<?xml version="1.0" encoding="utf-8"?>
<!-- Generator: Adobe Illustrator 16.0.0, SVG Export Plug-In . SVG Version: 6.00 Build 0)  -->
<!DOCTYPE svg PUBLIC "-//W3C//DTD SVG 1.1//EN" "http://www.w3.org/Graphics/SVG/1.1/DTD/svg11.dtd">
<svg version="1.1" id="圖層_2" xmlns="http://www.w3.org/2000/svg" xmlns:xlink="http://www.w3.org/1999/xlink" x="0px" y="0px"
	 width="500px" height="500px" viewBox="0 0 500 500" enable-background="new 0 0 500 500" xml:space="preserve">
<rect x="-1.28" fill="#00913A" width="501.28" height="500.001"/>
<rect x="28.065" y="28.213" fill="#FFFFFF" width="440.713" height="441.001"/>
<path fill="#43425D" d="M334.339,443.493c-6.411-4.085-10.487-9.914-12.236-17.483c-2.915-10.194-5.826-18.637-8.736-25.34H202.821
	c-8.454,0-15.292-2.625-20.537-7.862c-5.242-5.25-7.864-12.087-7.864-20.541v-65.104c0-8.442,2.622-15.292,7.864-20.535
	c5.246-5.242,12.083-7.861,20.537-7.861h110.545c8.443,0,15.291,2.619,20.533,7.861c5.245,5.243,7.867,12.093,7.867,20.535v85.645
	h18.786c6.405,0,9.614-3.205,9.614-9.614V125.836c0-6.989-3.494-10.486-10.487-10.486H160.002c-6.99,0-10.487,3.497-10.487,10.486
	v89.137c0,90.005-11.654,159.192-34.953,207.545c-6.414,10.487-13.041,16.528-19.883,18.134c-6.85,1.593-14.932-1.243-24.251-8.519
	c-9.032-6.996-14.13-14.572-15.289-22.728c-1.169-7.862,1.308-17.037,7.425-27.524c10.194-22.721,17.184-50.532,20.973-83.453
	c2.623-22.426,3.933-50.247,3.933-83.455V85.204c0-8.443,2.622-15.293,7.864-20.538c5.246-5.242,12.087-7.864,20.537-7.864h144.627
	h144.626c8.445,0,15.293,2.622,20.535,7.864c5.245,5.245,7.863,12.095,7.863,20.538v298.423c0,15.73-1.822,27.817-5.462,36.266
	c-3.645,8.449-10.124,15.146-19.442,20.103c-11.075,5.823-27.383,9.175-48.938,10.048
	C349.192,450.329,340.742,448.144,334.339,443.493z M186.215,260.414c-16.314,0-24.466-8.302-24.466-24.903
	c0-16.314,8.152-24.471,24.466-24.471h41.512v-18.79h-34.083c-15.729,0-23.595-8.006-23.595-24.031
	c0-15.728,7.865-23.592,23.595-23.592h34.083v-0.875c0-7.278,3.057-13.109,9.175-17.477c5.529-3.785,12.376-5.682,20.537-5.682
	c8.151,0,15,1.897,20.535,5.682c5.822,4.368,8.739,10.199,8.739,17.477v0.875h37.139c15.728,0,23.597,7.864,23.597,23.592
	c0,16.025-7.869,24.031-23.597,24.031h-37.139v18.79h43.695c16.308,0,24.466,8.157,24.466,24.471
	c0,16.601-8.158,24.903-24.466,24.903h-72.097H186.215z M241.708,353.483h15.731h26.214v-17.044c0-6.989-3.494-10.487-10.485-10.487
	h-31.459c-6.991,0-10.486,3.498-10.486,10.487v6.557C231.222,349.985,234.717,353.483,241.708,353.483z"/>
</svg>
