<?xml version="1.0" encoding="utf-8"?>
<!-- Generator: Adobe Illustrator 16.0.0, SVG Export Plug-In . SVG Version: 6.00 Build 0)  -->
<!DOCTYPE svg PUBLIC "-//W3C//DTD SVG 1.1//EN" "http://www.w3.org/Graphics/SVG/1.1/DTD/svg11.dtd">
<svg version="1.1" id="圖層_3" xmlns="http://www.w3.org/2000/svg" xmlns:xlink="http://www.w3.org/1999/xlink" x="0px" y="0px"
	 width="500px" height="500px" viewBox="0 0 500 500" enable-background="new 0 0 500 500" xml:space="preserve">
<rect x="1" y="-2" fill="#FFF100" width="499.661" height="504.809"/>
<rect x="32.144" y="27.618" fill="#FFFFFF" width="434.872" height="445.235"/>
<path fill="#43425D" d="M275.778,459.215c-22.031,0-33.042-10.869-33.042-32.596v-57.713H79.296
	c-20.56,0-30.838-10.278-30.838-30.842c0-20.551,10.278-30.836,30.838-30.836h36.563l-0.44-98.242
	c-4.998,5.293-10.571,8.084-16.741,8.374c-6.167,0.295-12.331-1.905-18.501-6.607c-23.204-17.911-25.992-35.975-8.371-54.187
	c20.265-24.668,37.153-53.307,50.66-85.907c3.815-9.983,9.542-17.03,17.184-21.146c7.632-4.108,16.59-4.847,26.875-2.202
	c21.431,5.584,28.192,18.655,20.261,39.209h120.268h89.433c20.557,0,30.835,10.285,30.835,30.835
	c0,20.562-10.278,30.84-30.835,30.84h-88.109v44.936h78.855c19.673,0,29.521,9.842,29.521,29.512
	c0,19.979-9.849,29.955-29.521,29.955h-78.855v54.63h113.657c20.557,0,30.839,10.285,30.839,30.836
	c0,20.563-10.282,30.842-30.839,30.842H308.377v57.713C308.377,448.346,297.511,459.215,275.778,459.215z M127.313,193.131h57.713
	h57.71v-44.936h-86.349C147.282,164.352,137.591,179.326,127.313,193.131z M179.742,307.229h62.994v-54.63h-31.719h-31.275V307.229z
	"/>
</svg>
