<?xml version="1.0" encoding="utf-8"?>
<!-- Generator: Adobe Illustrator 16.0.0, SVG Export Plug-In . SVG Version: 6.00 Build 0)  -->
<!DOCTYPE svg PUBLIC "-//W3C//DTD SVG 1.1//EN" "http://www.w3.org/Graphics/SVG/1.1/DTD/svg11.dtd">
<svg version="1.1" id="圖層_2" xmlns="http://www.w3.org/2000/svg" xmlns:xlink="http://www.w3.org/1999/xlink" x="0px" y="0px"
	 width="500px" height="500px" viewBox="0 0 500 500" enable-background="new 0 0 500 500" xml:space="preserve">
<rect x="0.865" fill="#173064" width="499.135" height="425.157"/>
<rect x="-0.316" y="424.154" fill="#FFFFFF" width="500.316" height="75.848"/>
<path fill="#469CCF" d="M51.41,465.743c-0.927,1.767-1.958,3.368-3.084,4.807c-1.126,1.438-2.381,2.664-3.779,3.671
	c-1.398,1.015-2.948,1.798-4.65,2.365c-1.71,0.551-3.579,0.835-5.641,0.835c-2.569,0-4.974-0.556-7.227-1.694
	c-2.241-1.122-4.215-2.652-5.901-4.566c-1.686-1.917-3.012-4.178-3.979-6.771c-0.959-2.593-1.438-5.357-1.438-8.29
	c0-2.939,0.479-5.704,1.438-8.301c0.967-2.589,2.293-4.846,3.979-6.768c1.686-1.918,3.66-3.436,5.901-4.57
	c2.253-1.122,4.658-1.693,7.227-1.693c2.125,0,4.035,0.287,5.737,0.847c1.702,0.575,3.248,1.362,4.626,2.373
	c1.382,1.015,2.628,2.237,3.739,3.699c1.106,1.446,2.125,3.028,3.052,4.762c0.168,0.304,0.192,0.623,0.104,0.955
	c-0.104,0.339-0.292,0.587-0.583,0.739l-6.843,3.155c-0.324,0.152-0.644,0.152-0.959,0c-0.324-0.151-0.563-0.367-0.727-0.667
	c-0.931-1.741-2.057-3.068-3.375-3.982c-1.318-0.923-2.9-1.379-4.77-1.379c-1.214,0-2.365,0.296-3.444,0.899
	c-1.079,0.603-2.017,1.397-2.816,2.404c-0.807,0.999-1.426,2.157-1.881,3.476c-0.447,1.322-0.675,2.677-0.675,4.079
	c0,1.43,0.228,2.792,0.675,4.095c0.456,1.299,1.075,2.445,1.881,3.428c0.799,0.982,1.738,1.773,2.816,2.377s2.229,0.902,3.444,0.902
	c1.766,0,3.364-0.499,4.802-1.489c1.422-1.007,2.557-2.294,3.396-3.867c0.16-0.304,0.392-0.527,0.695-0.68
	c0.3-0.151,0.615-0.151,0.939,0l6.843,3.156c0.292,0.151,0.479,0.384,0.583,0.711C51.602,465.08,51.578,465.412,51.41,465.743z"/>
<path fill="#469CCF" d="M86.445,436.74v38.591c0,0.384-0.112,0.703-0.339,0.959c-0.232,0.271-0.5,0.403-0.819,0.403H78.06
	c-0.355,0-0.635-0.132-0.847-0.403c-0.204-0.256-0.308-0.575-0.308-0.959v-12.064c0-0.375-0.112-0.703-0.344-0.967
	c-0.22-0.264-0.491-0.396-0.807-0.396h-9.892c-0.352,0-0.631,0.132-0.839,0.396s-0.312,0.592-0.312,0.967v12.064
	c0,0.384-0.112,0.703-0.34,0.959c-0.228,0.271-0.507,0.403-0.827,0.403h-7.215c-0.352,0-0.639-0.132-0.847-0.403
	c-0.208-0.256-0.312-0.575-0.312-0.959V436.74c0-0.371,0.104-0.694,0.312-0.95c0.208-0.271,0.496-0.399,0.847-0.399h7.215
	c0.319,0,0.599,0.128,0.827,0.392c0.228,0.264,0.34,0.587,0.34,0.954v13.331c0,0.372,0.104,0.691,0.312,0.959
	c0.208,0.26,0.487,0.392,0.839,0.392h9.892c0.315,0,0.587-0.132,0.807-0.392c0.232-0.268,0.344-0.587,0.344-0.959v-13.331
	c0-0.367,0.104-0.69,0.308-0.954c0.211-0.264,0.491-0.392,0.847-0.392h7.227c0.319,0,0.587,0.128,0.819,0.399
	C86.333,436.046,86.445,436.369,86.445,436.74z"/>
<path fill="#469CCF" d="M103.982,436.685c0.132-0.335,0.348-0.623,0.655-0.866c0.3-0.252,0.627-0.372,0.987-0.372h6.743
	c0.324,0,0.635,0.12,0.935,0.372c0.308,0.243,0.523,0.531,0.655,0.866l14.066,38.367c0.131,0.344,0.112,0.703-0.072,1.07
	c-0.176,0.38-0.519,0.571-1.039,0.571h-8.233c-0.355,0-0.687-0.124-0.987-0.371c-0.312-0.24-0.543-0.535-0.699-0.871l-1.302-3.388
	c-0.164-0.336-0.396-0.635-0.699-0.879c-0.303-0.235-0.615-0.359-0.935-0.359h-10.171c-0.36,0-0.683,0.124-0.991,0.359
	c-0.304,0.244-0.527,0.543-0.647,0.879l-1.35,3.388c-0.128,0.336-0.348,0.631-0.655,0.871c-0.304,0.247-0.615,0.371-0.935,0.371
	h-8.286c-0.167,0-0.332-0.044-0.507-0.111c-0.18-0.08-0.323-0.196-0.436-0.34c-0.112-0.152-0.184-0.34-0.215-0.567
	c-0.032-0.224,0.012-0.483,0.144-0.795L103.982,436.685z M106.827,461.229h4.287c0.324,0,0.56-0.12,0.699-0.367
	c0.144-0.244,0.136-0.532-0.02-0.871c-0.328-0.935-0.707-2.042-1.163-3.3c-0.456-1.267-0.863-2.438-1.25-3.531
	c-0.132-0.336-0.271-0.508-0.431-0.508c-0.164,0-0.308,0.172-0.436,0.508l-2.409,6.831c-0.132,0.339-0.132,0.627,0,0.871
	C106.235,461.109,106.475,461.229,106.827,461.229z"/>
<path fill="#469CCF" d="M156.555,467.657v7.674c0,0.384-0.12,0.703-0.335,0.959c-0.232,0.271-0.503,0.403-0.823,0.403h-24.049
	c-0.352,0-0.631-0.132-0.839-0.403c-0.208-0.256-0.319-0.575-0.319-0.959V436.74c0-0.371,0.112-0.694,0.319-0.95
	c0.208-0.271,0.488-0.399,0.839-0.399h7.23c0.324,0,0.599,0.128,0.823,0.399c0.224,0.256,0.328,0.579,0.328,0.95v28.212
	c0,0.376,0.112,0.699,0.32,0.967c0.208,0.256,0.491,0.392,0.847,0.392h14.501c0.32,0,0.591,0.128,0.823,0.392
	C156.435,466.966,156.555,467.29,156.555,467.657z"/>
<path fill="#469CCF" d="M186.189,467.657v7.674c0,0.384-0.112,0.703-0.343,0.959c-0.22,0.271-0.496,0.403-0.815,0.403h-24.045
	c-0.355,0-0.639-0.132-0.843-0.403c-0.208-0.256-0.312-0.575-0.312-0.959V436.74c0-0.371,0.104-0.694,0.312-0.95
	c0.204-0.271,0.487-0.399,0.843-0.399h7.227c0.319,0,0.595,0.128,0.819,0.399c0.22,0.256,0.339,0.579,0.339,0.95v28.212
	c0,0.376,0.104,0.699,0.312,0.967c0.208,0.256,0.488,0.392,0.843,0.392h14.505c0.319,0,0.595,0.128,0.815,0.392
	C186.077,466.966,186.189,467.29,186.189,467.657z"/>
<path fill="#469CCF" d="M199.005,447.127v2.369c0,0.372,0.112,0.703,0.335,0.963c0.224,0.256,0.5,0.392,0.823,0.392h13.056
	c0.319,0,0.591,0.128,0.815,0.392c0.231,0.264,0.343,0.583,0.343,0.959v7.79c0,0.375-0.112,0.695-0.343,0.959
	c-0.224,0.263-0.496,0.399-0.815,0.399h-13.056c-0.323,0-0.599,0.127-0.823,0.391c-0.224,0.256-0.335,0.592-0.335,0.963v2.138
	c0,0.384,0.112,0.699,0.335,0.959c0.224,0.264,0.5,0.392,0.823,0.392h14.981c0.324,0,0.591,0.136,0.815,0.403
	c0.232,0.26,0.344,0.579,0.344,0.954v7.782c0,0.384-0.112,0.703-0.344,0.959c-0.224,0.271-0.491,0.403-0.815,0.403h-24.521
	c-0.328,0-0.599-0.132-0.823-0.403c-0.228-0.256-0.336-0.575-0.336-0.959V436.74c0-0.371,0.108-0.694,0.336-0.95
	c0.224-0.271,0.495-0.399,0.823-0.399h24.521c0.324,0,0.591,0.128,0.815,0.399c0.232,0.256,0.344,0.579,0.344,0.95v7.679
	c0,0.376-0.112,0.699-0.344,0.959c-0.224,0.264-0.491,0.399-0.815,0.399h-14.981c-0.323,0-0.599,0.128-0.823,0.392
	C199.117,446.44,199.005,446.752,199.005,447.127z"/>
<path fill="#469CCF" d="M255.576,436.74v38.591c0,0.384-0.115,0.703-0.348,0.959c-0.215,0.271-0.487,0.403-0.814,0.403h-7.111
	c-0.328,0-0.663-0.111-1.015-0.34c-0.348-0.231-0.623-0.491-0.815-0.79l-12.548-20.71c-0.196-0.292-0.388-0.42-0.599-0.359
	c-0.216,0.056-0.316,0.268-0.316,0.647v20.189c0,0.384-0.112,0.703-0.339,0.959c-0.228,0.271-0.5,0.403-0.819,0.403h-7.223
	c-0.312,0-0.591-0.132-0.823-0.403c-0.224-0.256-0.335-0.575-0.335-0.959V436.74c0-0.371,0.112-0.694,0.335-0.95
	c0.224-0.271,0.5-0.399,0.823-0.399h7.223c0.319,0,0.659,0.104,1.007,0.315c0.359,0.204,0.631,0.459,0.831,0.755l12.524,20.714
	c0.188,0.3,0.392,0.427,0.604,0.383c0.204-0.027,0.308-0.239,0.308-0.614V436.74c0-0.371,0.116-0.694,0.339-0.95
	c0.224-0.271,0.503-0.399,0.815-0.399h7.135c0.327,0,0.591,0.128,0.814,0.399C255.457,436.046,255.576,436.369,255.576,436.74z"/>
<path fill="#469CCF" d="M279.766,477.421c-2.573,0-4.982-0.556-7.231-1.694c-2.249-1.122-4.218-2.652-5.904-4.566
	c-1.686-1.917-3.02-4.178-3.995-6.771c-0.982-2.593-1.478-5.357-1.478-8.29c0-2.939,0.495-5.704,1.478-8.301
	c0.976-2.589,2.31-4.858,3.995-6.792c1.687-1.945,3.655-3.476,5.904-4.602c2.249-1.127,4.658-1.698,7.231-1.698
	c3.527,0,6.6,0.852,9.224,2.541c2.617,1.694,4.75,4.027,6.384,7.003c0.16,0.296,0.204,0.64,0.12,1.047
	c-0.08,0.392-0.252,0.683-0.508,0.871l-5.78,4.346c-0.252,0.185-0.547,0.252-0.862,0.192c-0.324-0.056-0.596-0.231-0.819-0.535
	c-0.999-1.431-2.121-2.573-3.355-3.439c-1.23-0.867-2.701-1.307-4.402-1.307c-1.223,0-2.373,0.3-3.444,0.883
	c-1.082,0.579-2.021,1.37-2.828,2.345c-0.803,0.967-1.438,2.113-1.901,3.412c-0.464,1.294-0.695,2.637-0.695,4.034
	c0,1.431,0.231,2.781,0.695,4.055c0.463,1.283,1.099,2.401,1.901,3.36c0.808,0.959,1.746,1.733,2.828,2.313
	c1.071,0.592,2.222,0.875,3.444,0.875c1.214,0,2.412-0.264,3.611-0.783c1.183-0.527,2.133-1.397,2.836-2.597
	c0.16-0.295,0.184-0.575,0.052-0.822c-0.119-0.244-0.348-0.372-0.667-0.372h-5.545c-0.327,0-0.591-0.132-0.822-0.388
	c-0.225-0.264-0.336-0.583-0.336-0.958v-6.72c0-0.375,0.111-0.691,0.336-0.959c0.231-0.256,0.495-0.392,0.822-0.392h16.575
	c0.315,0,0.603,0.12,0.843,0.364c0.239,0.247,0.375,0.579,0.407,0.986c0.064,0.64,0.096,1.422,0.096,2.349
	c0,0.919-0.048,1.862-0.144,2.845c-0.224,2.589-0.851,5.002-1.878,7.223c-1.034,2.213-2.353,4.139-3.971,5.753
	c-1.63,1.622-3.479,2.893-5.568,3.811C284.319,476.961,282.114,477.421,279.766,477.421z"/>
<path fill="#469CCF" d="M312.863,447.127v2.369c0,0.372,0.111,0.703,0.343,0.963c0.22,0.256,0.492,0.392,0.815,0.392h13.06
	c0.319,0,0.591,0.128,0.814,0.392c0.231,0.264,0.336,0.583,0.336,0.959v7.79c0,0.375-0.104,0.695-0.336,0.959
	c-0.224,0.263-0.495,0.399-0.814,0.399h-13.06c-0.323,0-0.596,0.127-0.815,0.391c-0.231,0.256-0.343,0.592-0.343,0.963v2.138
	c0,0.384,0.111,0.699,0.343,0.959c0.22,0.264,0.492,0.392,0.815,0.392h14.984c0.32,0,0.592,0.136,0.823,0.403
	c0.216,0.26,0.332,0.579,0.332,0.954v7.782c0,0.384-0.116,0.703-0.332,0.959c-0.231,0.271-0.503,0.403-0.823,0.403h-24.528
	c-0.319,0-0.595-0.132-0.814-0.403c-0.229-0.256-0.336-0.575-0.336-0.959V436.74c0-0.371,0.107-0.694,0.336-0.95
	c0.22-0.271,0.495-0.399,0.814-0.399h24.528c0.32,0,0.592,0.128,0.823,0.399c0.216,0.256,0.332,0.579,0.332,0.95v7.679
	c0,0.376-0.116,0.699-0.332,0.959c-0.231,0.264-0.503,0.399-0.823,0.399h-14.984c-0.323,0-0.596,0.128-0.815,0.392
	C312.975,446.44,312.863,446.752,312.863,447.127z"/>
<path fill="#469CCF" d="M370.601,467.657v7.674c0,0.384-0.123,0.703-0.343,0.959c-0.22,0.271-0.496,0.403-0.815,0.403h-24.045
	c-0.355,0-0.636-0.132-0.843-0.403c-0.212-0.256-0.312-0.575-0.312-0.959V436.74c0-0.371,0.1-0.694,0.312-0.95
	c0.207-0.271,0.487-0.399,0.843-0.399h7.219c0.327,0,0.599,0.128,0.831,0.399c0.224,0.256,0.327,0.579,0.327,0.95v28.212
	c0,0.376,0.112,0.699,0.319,0.967c0.208,0.256,0.487,0.392,0.839,0.392h14.51c0.319,0,0.596,0.128,0.815,0.392
	S370.601,467.29,370.601,467.657z"/>
<path fill="#469CCF" d="M385.438,436.685c0.128-0.335,0.344-0.623,0.655-0.866c0.3-0.252,0.624-0.372,0.979-0.372h6.747
	c0.319,0,0.631,0.12,0.942,0.372c0.304,0.243,0.523,0.531,0.647,0.866l14.074,38.367c0.128,0.344,0.1,0.703-0.072,1.07
	c-0.18,0.38-0.523,0.571-1.034,0.571h-8.246c-0.355,0-0.679-0.124-0.986-0.371c-0.308-0.24-0.539-0.535-0.699-0.871l-1.303-3.388
	c-0.151-0.336-0.392-0.635-0.694-0.879c-0.3-0.235-0.615-0.359-0.943-0.359h-10.163c-0.359,0-0.687,0.124-0.986,0.359
	c-0.312,0.244-0.527,0.543-0.651,0.879l-1.351,3.388c-0.128,0.336-0.343,0.631-0.65,0.871c-0.308,0.247-0.615,0.371-0.939,0.371
	h-8.285c-0.164,0-0.332-0.044-0.512-0.111c-0.172-0.08-0.319-0.196-0.431-0.34c-0.112-0.152-0.192-0.34-0.216-0.567
	c-0.032-0.224,0.02-0.483,0.151-0.795L385.438,436.685z M388.278,461.229h4.286c0.328,0,0.56-0.12,0.703-0.367
	c0.136-0.244,0.136-0.532-0.027-0.871c-0.324-0.935-0.699-2.042-1.155-3.3c-0.447-1.267-0.862-2.438-1.25-3.531
	c-0.136-0.336-0.275-0.508-0.436-0.508c-0.159,0-0.308,0.172-0.436,0.508l-2.408,6.831c-0.128,0.339-0.128,0.627,0,0.871
	C387.683,461.109,387.927,461.229,388.278,461.229z"/>
<path fill="#469CCF" d="M446.004,436.74v38.591c0,0.384-0.115,0.703-0.331,0.959c-0.231,0.271-0.499,0.403-0.815,0.403h-7.127
	c-0.319,0-0.65-0.111-1.002-0.34c-0.355-0.231-0.628-0.491-0.827-0.79l-12.544-20.71c-0.191-0.292-0.392-0.42-0.607-0.359
	c-0.203,0.056-0.308,0.268-0.308,0.647v20.189c0,0.384-0.115,0.703-0.34,0.959c-0.228,0.271-0.503,0.403-0.826,0.403h-7.211
	c-0.328,0-0.6-0.132-0.823-0.403c-0.224-0.256-0.335-0.575-0.335-0.959V436.74c0-0.371,0.111-0.694,0.335-0.95
	c0.216-0.271,0.495-0.399,0.815-0.399h7.23c0.319,0,0.659,0.104,1.011,0.315c0.348,0.204,0.627,0.459,0.818,0.755l12.528,20.714
	c0.196,0.3,0.396,0.427,0.6,0.383c0.216-0.027,0.312-0.239,0.312-0.614V436.74c0-0.371,0.12-0.694,0.344-0.95
	c0.224-0.271,0.495-0.399,0.822-0.399h7.127c0.324,0,0.592,0.128,0.823,0.399C445.889,436.046,446.004,436.369,446.004,436.74z"/>
<path fill="#469CCF" d="M453.327,475.331V436.74c0-0.371,0.115-0.694,0.34-0.95c0.22-0.271,0.491-0.399,0.818-0.399h13.159
	c5.033,0,9.168,1.726,12.38,5.201c1.738,1.874,3.057,4.106,3.955,6.703c0.896,2.601,1.347,5.514,1.347,8.749
	c0,3.231-0.451,6.152-1.347,8.772c-0.898,2.613-2.217,4.858-3.955,6.74c-1.602,1.693-3.439,2.976-5.517,3.839
	c-2.077,0.862-4.362,1.298-6.863,1.298h-13.159c-0.327,0-0.599-0.132-0.818-0.403C453.442,476.034,453.327,475.715,453.327,475.331z
	 M464.029,466.311h3.615c0.895,0,1.83-0.136,2.793-0.392c0.958-0.268,1.829-0.767,2.592-1.502c0.779-0.734,1.415-1.762,1.906-3.107
	c0.499-1.326,0.755-3.068,0.755-5.21c0-2.148-0.256-3.883-0.755-5.221c-0.491-1.335-1.131-2.377-1.922-3.104
	c-0.783-0.739-1.654-1.234-2.612-1.494c-0.943-0.264-1.862-0.399-2.757-0.399h-3.615c-0.327,0-0.6,0.136-0.815,0.399
	c-0.235,0.26-0.343,0.583-0.343,0.959v17.713c0,0.376,0.107,0.699,0.343,0.967C463.43,466.175,463.702,466.311,464.029,466.311z"/>
<polygon fill="#173064" points="346.976,487.22 337.191,497 327.42,487.22 337.191,477.448 "/>
<g>
	<path fill="#FFFFFF" d="M94.235,208.781V69.531c0-5.161-2.721-7.752-8.17-7.752H75.703V12.438h28.348
		c25.087,0,37.624,11.885,37.624,35.652v160.69H94.235z"/>
	<path fill="#FFFFFF" d="M175.204,208.781V69.531c0-5.161-2.729-7.752-8.182-7.752h-10.355V12.438h28.348
		c25.084,0,37.62,11.885,37.62,35.652v160.69H175.204z"/>
</g>
<path fill="#FFFFFF" d="M415.268,51.572v127.503c0,23.164-13.566,34.746-40.708,34.746h-81.727c-27.134,0-40.7-11.582-40.7-34.746
	V51.572c0-24.205,13.566-36.319,40.7-36.319h81.727C401.701,15.252,415.268,27.367,415.268,51.572z"/>
<path fill-rule="evenodd" clip-rule="evenodd" fill="#173064" d="M334.028,54.404c0.056,0,0.107,0,0.163,0
	c0.684,0.849,1.395,1.69,2.102,2.527c1.498,1.8,3.088,3.523,4.718,5.205c1.687,1.726,3.42,3.412,5.138,5.096
	c1.322,1.298,2.665,2.583,3.955,3.889c1.478,1.502,2.884,3.034,4.063,4.754c1.066,1.538,1.842,3.194,2.257,5.011
	c0.472,2.111,0.815,4.249,0.771,6.424c-0.036,1.536-0.275,3.044-0.563,4.544c-0.795,4.009-2.102,7.882-3.508,11.731
	c-1.118,3.054-2.333,6.086-3.555,9.106c-1.263,3.136-2.557,6.262-3.62,9.464c-1.47,4.373-2.872,8.761-3.827,13.271
	c-0.079,0.413-0.079,0.413,0.356,0.413c0.427,0,0.854-0.02,1.27,0c0.308,0,0.448-0.094,0.523-0.389
	c0.276-1.241,0.584-2.489,0.943-3.717c0.795-2.695,1.77-5.319,2.78-7.932c1.11-2.852,2.405-5.621,3.867-8.311
	c1.965-3.605,4.242-7.013,7.07-10.065c2.277-2.483,4.858-4.626,7.87-6.284c2.872-1.586,5.973-2.567,9.261-3.016
	c0.975-0.14,1.949-0.22,2.924-0.21c3.128,0.036,6.168,0.551,9.057,1.736c2.281,0.931,4.391,2.153,6.244,3.717
	c4.114,3.478,6.647,7.794,7.558,12.959c0.152,0.713,0.18,1.42,0.18,2.137c-0.012,1.532,0.076,3.072-0.171,4.6
	c-0.313,1.888-0.888,3.695-1.71,5.447c-1.007,2.177-2.385,4.119-4.06,5.871c-1.657,1.732-3.583,3.146-5.729,4.298
	c-2.612,1.406-5.425,2.271-8.405,2.629c-1.246,0.154-2.517,0.208-3.787,0.178c-0.119-0.006-0.235-0.026-0.352-0.036
	c-0.327-0.024-0.479-0.191-0.527-0.499c-0.144-0.811-0.291-1.634-0.531-2.429c-1.13-3.439-3.355-5.992-6.859-7.484
	c-1.198-0.505-2.452-0.747-3.763-0.815c-3.34-0.176-6.176,0.919-8.581,3.086c-1.259,1.137-2.189,2.495-2.845,4.025
	c-0.012,0.034-0.031,0.072-0.039,0.108c-0.137,0.352-0.124,0.397,0.271,0.397c0.694,0,1.39,0,2.101,0
	c1.051-0.03,2.046,0.214,2.965,0.699c1.909,1.035,3.028,2.595,3.107,4.706c0.088,2.221-1.43,4.3-3.675,5.199
	c-0.807,0.312-1.646,0.459-2.509,0.472c-0.504,0.014-1.007,0-1.502,0.004c-0.432,0-0.468,0.054-0.304,0.443
	c0.384,0.881,0.959,1.642,1.722,2.259c2.801,2.333,7.155,2.455,10.095,0.297c0.623-0.456,1.15-0.991,1.582-1.626
	c0.224-0.31,0.336-0.31,0.535,0c0.831,1.194,1.311,2.499,1.438,3.931c0.252,2.918-0.879,5.383-2.788,7.588
	c-1.366,1.576-3.04,2.76-5.074,3.459c-2.029,0.693-4.099,0.793-6.199,0.321c-2.549-0.589-4.73-1.786-6.656-3.456
	c-2.188-1.897-3.755-4.19-4.873-6.761c-0.835-1.947-1.331-3.983-1.479-6.082c-0.008-0.268-0.104-0.392-0.392-0.379
	c-0.264,0.02-0.535,0.02-0.791,0c-0.287-0.012-0.392,0.08-0.371,0.379c0.084,1.097,0.235,2.179,0.451,3.262
	c0.607,3.354,1.606,6.6,2.893,9.784c0.791,1.955,1.693,3.851,2.721,5.707c1.218,2.207,2.561,4.34,4.086,6.372
	c0.479,0.635,0.448,0.703-0.343,0.897c-2.461,0.617-4.954,1.155-7.482,1.486c-2.178,0.292-4.354,0.515-6.564,0.551
	c-2.165,0.044-4.334,0.044-6.491,0.026c-3.084-0.026-6.132-0.375-9.168-0.885c-1.85-0.3-3.659-0.745-5.474-1.193
	c-0.751-0.184-0.774-0.228-0.343-0.823c1.869-2.519,3.476-5.193,4.865-7.986c1.989-4.021,3.535-8.193,4.522-12.538
	c0.344-1.506,0.591-3.026,0.767-4.568c0.04-0.39-0.023-0.458-0.439-0.467c-0.199-0.004-0.392-0.004-0.599-0.004
	c-0.56,0.004-0.604,0.02-0.628,0.533c-0.063,1.048-0.239,2.065-0.499,3.076c-0.807,3.056-2.229,5.833-4.41,8.221
	c-1.526,1.678-3.32,3.04-5.434,3.979c-1.777,0.781-3.635,1.234-5.601,1.156c-2.58-0.1-4.83-0.995-6.783-2.574
	c-1.55-1.235-2.757-2.717-3.531-4.506c-1.219-2.844-1.11-5.627,0.516-8.335c0.023-0.04,0.052-0.074,0.079-0.122
	c0.244-0.339,0.372-0.347,0.611-0.012c0.376,0.511,0.791,0.991,1.295,1.392c1.118,0.887,2.396,1.424,3.827,1.612
	c2.524,0.37,4.77-0.209,6.663-1.843c0.695-0.585,1.215-1.289,1.578-2.105c0.188-0.414,0.16-0.467-0.315-0.471
	c-0.943,0-1.87,0.032-2.797-0.148c-2.828-0.551-4.882-2.966-4.742-5.681c0.116-2.038,1.234-3.53,3.089-4.541
	c0.906-0.493,1.913-0.737,2.987-0.707c0.655,0,1.318,0,1.966,0c0.447,0,0.472-0.052,0.312-0.433
	c-0.719-1.702-1.798-3.19-3.231-4.411c-1.578-1.344-3.416-2.267-5.529-2.615c-3.479-0.589-6.6,0.19-9.312,2.329
	c-2.317,1.818-3.695,4.177-4.291,6.955c-0.071,0.377-0.159,0.751-0.224,1.145c-0.096,0.567-0.164,0.641-0.795,0.671
	c-0.644,0.028-1.29,0.03-1.941,0c-1.618-0.092-3.224-0.3-4.798-0.687c-3.571-0.863-6.728-2.467-9.508-4.764
	c-2.261-1.879-4.051-4.099-5.409-6.638c-1.114-2.087-1.846-4.282-2.173-6.593c-0.064-0.456-0.032-0.921-0.104-1.39
	c0-1.137,0-2.299,0-3.444c0.088-0.677,0.072-1.368,0.208-2.035c0.52-2.789,1.598-5.359,3.172-7.756
	c0.871-1.328,1.878-2.551,3.028-3.655c1.653-1.596,3.523-2.936,5.604-3.995c2.354-1.188,4.838-2,7.482-2.351
	c0.855-0.12,1.734-0.176,2.597-0.21c2.421-0.125,4.766,0.21,7.079,0.803c1.391,0.357,2.732,0.837,4.043,1.414
	c2.505,1.113,4.777,2.555,6.871,4.271c1.382,1.135,2.669,2.379,3.867,3.688c2.404,2.632,4.426,5.523,6.147,8.581
	c1.435,2.546,2.673,5.191,3.775,7.896c1.423,3.52,2.604,7.103,3.468,10.791c0.144,0.659,0.271,1.33,0.376,2.001
	c0.031,0.313,0.191,0.451,0.535,0.433c0.439-0.024,0.879,0,1.31,0c0.432,0,0.444-0.03,0.364-0.413
	c-0.308-1.556-0.691-3.1-1.123-4.64c-0.739-2.739-1.638-5.431-2.589-8.114c-1.022-2.932-2.173-5.827-3.327-8.715
	c-1.314-3.272-2.613-6.545-3.827-9.855c-1.047-2.836-2.014-5.701-2.793-8.607c-0.599-2.233-1.103-4.48-1.31-6.785
	c-0.2-2.185-0.04-4.333,0.375-6.49c0.312-1.504,0.688-2.974,1.383-4.373c0.671-1.372,1.562-2.601,2.54-3.787
	c0.995-1.194,2.086-2.315,3.204-3.425c1.582-1.57,3.188-3.126,4.778-4.688c1.646-1.604,3.283-3.228,4.85-4.894
	c1.941-2.055,3.795-4.201,5.545-6.408C333.844,54.556,333.932,54.486,334.028,54.404z"/>
<path fill-rule="evenodd" clip-rule="evenodd" fill="#173064" d="M334.004,99.407c-0.195,0.671-0.199,1.38-0.296,2.065
	c-0.119,0.903-0.167,1.799-0.304,2.7c-0.088,0.556-0.107,1.133-0.18,1.688c-0.096,0.889-0.172,1.782-0.287,2.67
	c-0.076,0.583-0.132,1.179-0.18,1.766c-0.1,0.881-0.2,1.775-0.304,2.665c-0.064,0.581-0.112,1.168-0.184,1.758
	c-0.08,0.896-0.224,1.779-0.288,2.672c-0.04,0.581-0.12,1.179-0.18,1.764c-0.092,0.891-0.231,1.778-0.308,2.661
	c-0.044,0.601-0.1,1.177-0.151,1.772c-0.132,0.879-0.204,1.782-0.312,2.658c-0.068,0.562-0.112,1.139-0.176,1.692
	c-0.101,0.913-0.164,1.84-0.304,2.741c-0.104,0.561-0.108,1.13-0.172,1.694c-0.104,0.903-0.156,1.828-0.308,2.747
	c-0.048,0.233,0.096,0.569-0.128,0.691c-0.224,0.124-0.552,0.048-0.847,0.048c-0.416,0-0.815-0.018-1.23,0
	c-0.192,0.004-0.28-0.018-0.272-0.24c0.097-0.601,0.16-1.207,0.225-1.819c0.071-0.538,0.127-1.075,0.191-1.616
	c0.1-0.849,0.176-1.704,0.283-2.545c0.084-0.525,0.132-1.054,0.188-1.583c0.096-0.847,0.155-1.698,0.304-2.551
	c0.088-0.545,0.111-1.103,0.167-1.652c0.101-0.829,0.2-1.656,0.304-2.483c0.072-0.542,0.12-1.103,0.176-1.65
	c0.096-0.845,0.228-1.696,0.312-2.547c0.036-0.525,0.104-1.055,0.16-1.574c0.104-0.857,0.176-1.71,0.296-2.557
	c0.075-0.527,0.136-1.05,0.18-1.578c0.084-0.851,0.18-1.704,0.312-2.549c0.088-0.553,0.092-1.103,0.172-1.652
	c0.096-0.857,0.22-1.708,0.304-2.555c0.04-0.529,0.092-1.045,0.176-1.578c0.104-0.855,0.167-1.704,0.283-2.551
	c0.076-0.525,0.116-1.053,0.18-1.582c0.088-0.845,0.188-1.694,0.304-2.551c0.072-0.517,0.12-1.05,0.16-1.57
	c0.096-0.857,0.207-1.708,0.312-2.559c0.071-0.545,0.124-1.101,0.184-1.65c0.096-0.851,0.231-1.698,0.296-2.557
	c0.048-0.52,0.104-1.047,0.163-1.568c0.104-0.859,0.188-1.706,0.308-2.563c0.08-0.498,0.12-0.989,0.168-1.496
	c0.072-0.739,0.16-1.482,0.304-2.219c0.08,0.835,0.164,1.678,0.256,2.515c0.096,0.781,0.239,1.554,0.308,2.329
	c0.036,0.527,0.107,1.055,0.168,1.576c0.088,0.857,0.172,1.704,0.315,2.555c0.08,0.531,0.111,1.075,0.164,1.614
	c0.092,0.839,0.199,1.676,0.299,2.513c0.072,0.549,0.116,1.111,0.185,1.654c0.096,0.856,0.224,1.698,0.295,2.55
	c0.04,0.527,0.104,1.049,0.168,1.576c0.108,0.849,0.231,1.702,0.3,2.555c0.052,0.531,0.107,1.045,0.18,1.57
	c0.1,0.855,0.191,1.708,0.304,2.563c0.063,0.519,0.111,1.041,0.176,1.578c0.088,0.851,0.176,1.702,0.287,2.546
	c0.08,0.505,0.132,1.025,0.192,1.536c0.071,0.867,0.184,1.726,0.304,2.587c0.063,0.515,0.107,1.035,0.159,1.546
	c0.08,0.859,0.168,1.734,0.304,2.586c0.088,0.538,0.112,1.075,0.18,1.624c0.088,0.835,0.188,1.668,0.288,2.507
	c0.071,0.54,0.115,1.084,0.18,1.608c0.096,0.849,0.208,1.686,0.292,2.519c0.075,0.537,0.111,1.077,0.18,1.62
	c0.104,0.861,0.243,1.724,0.319,2.587c0.036,0.519,0.096,1.026,0.16,1.538c0.115,0.867,0.176,1.729,0.295,2.59
	c0.052,0.312,0.1,0.609,0.112,0.929c0,0.151-0.057,0.204-0.231,0.204c-0.636-0.006-1.295-0.006-1.942,0
	c-0.295,0-0.271-0.22-0.283-0.374c-0.1-0.869-0.147-1.746-0.252-2.611c-0.151-1.222-0.26-2.443-0.407-3.657
	c-0.068-0.727-0.147-1.448-0.231-2.161c-0.108-1.061-0.268-2.125-0.384-3.174c-0.072-0.624-0.092-1.252-0.16-1.888
	c-0.088-0.829-0.211-1.668-0.319-2.507c-0.063-0.559-0.1-1.125-0.16-1.684c-0.104-0.893-0.239-1.768-0.299-2.674
	c-0.04-0.559-0.116-1.128-0.18-1.686c-0.084-0.885-0.176-1.777-0.288-2.67c-0.072-0.557-0.111-1.139-0.184-1.716
	c-0.096-0.907-0.208-1.806-0.312-2.71c-0.064-0.551-0.096-1.101-0.164-1.646c-0.092-0.907-0.199-1.804-0.3-2.707
	c-0.06-0.539-0.107-1.077-0.176-1.612C334.063,100.118,334.036,99.76,334.004,99.407z"/>
<path fill-rule="evenodd" clip-rule="evenodd" fill="#173064" d="M287.296,113.173c-0.719,0.512-1.339,1.007-1.966,1.52
	c-0.971,0.797-1.865,1.716-3.02,2.27c-1.119,0.543-2.306,0.671-3.532,0.349c-0.447-0.11-0.734-0.425-0.931-0.805
	c-0.132-0.246,0.172-0.649,0.588-0.759c0.447-0.125,0.923-0.242,1.406-0.301c0.65-0.082,1.226-0.316,1.806-0.569
	c0.755-0.326,1.502-0.646,2.213-1.055c0.935-0.529,1.806-1.145,2.7-1.712c0.048-0.034,0.088-0.044,0.248-0.12
	c-0.384,0-0.655-0.024-0.927,0.004c-0.695,0.06-1.391,0.142-2.077,0.216c-0.659,0.074-1.327,0.132-1.974,0.233
	c-0.544,0.088-1.103,0.152-1.65,0.14c-0.483-0.002-0.795-0.33-0.734-0.781c0.088-0.605,0.874-1.064,1.546-0.977
	c0.551,0.08,1.134,0.084,1.693,0.02c0.548-0.066,1.095-0.088,1.63-0.12c0.879-0.058,1.734-0.184,2.589-0.236
	c0.096-0.014,0.124-0.034,0.144-0.125c0.145-0.595-0.199-1.556-0.774-1.826c-0.408-0.19-0.879-0.26-1.362-0.31
	c-0.268-0.028-0.523-0.098-0.768-0.21c-0.26-0.118-0.339-0.315-0.411-0.535c-0.068-0.242,0.12-0.45,0.399-0.45
	c0.854-0.022,1.71,0.138,2.557,0.07c1.462-0.126,2.912-0.258,4.331-0.671c0.287-0.08,0.599-0.226,0.799,0.172
	c0.147,0.31,0.052,0.699-0.26,0.917c-0.627,0.451-1.267,0.891-1.962,1.262c-0.104,0.056-0.176,0.104-0.168,0.244
	c0.017,0.401,0,0.793,0,1.201c0.443-0.05,0.863-0.092,1.287-0.12c0.962-0.072,1.917-0.192,2.876-0.355
	c0.352-0.052,0.707-0.124,1.083-0.096c0.431,0.032,0.555,0.229,0.475,0.621c-0.088,0.31-0.279,0.535-0.567,0.701
	c-0.319,0.176-0.606,0.416-0.898,0.621c-0.147,0.1-0.323,0.136-0.499,0.164c-0.76,0.088-1.486,0.068-2.237,0.068
	c-0.256,0-0.516-0.028-0.783,0.102c0.268,0.386,0.703,0.601,1.074,0.867c0.932,0.701,2.105,1.007,3.148,1.516
	c1.114,0.542,2.313,0.813,3.495,1.121c0.304,0.078,0.36,0.25,0.16,0.438c-0.52,0.461-1.03,0.943-1.714,1.181
	c-0.699,0.238-1.307,0.088-1.857-0.272c-0.6-0.375-1.143-0.831-1.726-1.236c-1.031-0.725-2.054-1.434-3.005-2.237
	c-0.144-0.128-0.415-0.35-0.407,0.124c0,0.068-0.071,0.146-0.071,0.236c0.063,0.823-0.072,1.646-0.08,2.463
	c0,0.224,0.056,0.295,0.312,0.286c0.982-0.032,1.966,0.032,2.932,0.216c0.739,0.14,1.095,0.555,1.199,1.306
	c0.088,0.721-0.112,1.42-0.24,2.117c-0.147,0.809-0.295,1.616-0.639,2.383c-0.192,0.464-0.424,0.919-0.771,1.291
	c-0.275,0.29-0.643,0.32-0.994,0.256c-0.592-0.118-1.195-0.184-1.79-0.124c-0.735,0.056-1.446,0.16-2.178,0.128
	c-0.715-0.038-1.445-0.056-2.101-0.403c-0.552-0.296-0.827-0.835-0.939-1.393c-0.144-0.717-0.144-1.45-0.191-2.171
	c-0.036-0.602-0.024-1.195-0.056-1.784c-0.024-0.32,0.056-0.609,0.088-0.919c0.04-0.366,0.375-0.595,0.831-0.597
	c0.831-0.028,1.653-0.188,2.477-0.23c0.231-0.008,0.176-0.158,0.176-0.26C287.296,115.234,287.296,114.234,287.296,113.173z"/>
<path fill-rule="evenodd" clip-rule="evenodd" fill="#173064" d="M384.235,113.69c0.711,1.19,1.854,1.734,3.053,2.207
	c1.29,0.505,2.612,0.869,3.938,1.274c0.224,0.068,0.312,0.152,0.168,0.419c-0.18,0.32-0.464,0.511-0.731,0.749
	c-0.459,0.399-0.891,0.839-1.302,1.282c-0.324,0.348-0.611,0.336-0.955,0.018c-0.814-0.739-1.614-1.496-2.457-2.223
	c-0.388-0.339-0.778-0.681-1.146-1.048c-0.159-0.144-0.191-0.122-0.26,0.082c-0.268,0.713-0.479,1.45-0.69,2.181
	c-0.048,0.188-0.148,0.36-0.192,0.538c-0.159,0.559-0.695,0.515-1.135,0.537c-0.627,0.044-1.27,0.082-1.901,0.152
	c-0.151,0.02-0.216,0.1-0.231,0.188c-0.04,0.345-0.088,0.693,0.016,1.028c0.145,0.404,0.552,0.392,0.896,0.438
	c1.15,0.154,2.32,0.098,3.467,0.074c0.552-0.018,1.087-0.05,1.622,0c0.911,0.08,1.015,0.515,0.879,1.104
	c-0.144,0.711-0.359,0.757-1.051,0.769c-1.418,0.044-2.832-0.108-4.246-0.274c-0.815-0.104-1.622-0.213-2.401-0.459
	c-0.491-0.146-0.738-0.485-0.851-0.896c-0.072-0.272-0.111-0.558-0.111-0.843c0.016-1.008,0.048-2.017-0.072-3.018
	c-0.044-0.266-0.08-0.527-0.1-0.891c-0.24,0.317-0.428,0.567-0.611,0.829c-0.512,0.727-0.995,1.47-1.834,1.94
	c-0.479,0.283-1.003,0.369-1.558,0.313c-0.388-0.038-0.571-0.372-0.628-0.683c-0.079-0.333-0.056-0.695,0.308-0.927
	c0.779-0.47,1.498-1.029,2.21-1.588c0.264-0.214,0.507-0.496,0.667-0.793c0.388-0.653,0.747-1.312,1.003-2.025
	c0.111-0.283,0.092-0.371-0.244-0.365c-0.56,0.02-1.106,0.05-1.658,0.158c-0.279,0.056-0.579-0.158-0.687-0.445
	c-0.088-0.296-0.032-0.569,0.128-0.813c0.128-0.19,0.352-0.096,0.527-0.082c0.747,0.034,1.474-0.132,2.197-0.082
	c0.159,0.012,0.207-0.05,0.207-0.193c-0.016-0.424-0.016-0.847,0-1.274c0-0.15-0.056-0.198-0.207-0.192
	c-0.416,0.052-0.863-0.066-1.279,0.074c-0.056,0.016-0.132-0.018-0.188-0.038c-0.428-0.152-0.411-0.5-0.379-0.833
	c0.02-0.272,0.207-0.355,0.499-0.419c0.279-0.04,0.556-0.062,0.839-0.04c0.275,0.008,0.336-0.088,0.327-0.32
	c-0.067-0.649-0.132-1.29-0.283-1.925c-0.107-0.45,0.016-0.617,0.499-0.617c0.644-0.014,1.194,0.248,1.73,0.521
	c0.191,0.088,0.176,0.246,0.176,0.397c0,0.539,0,1.084-0.004,1.624c0,0.154,0.027,0.25,0.231,0.232
	c0.755-0.054,1.506-0.104,2.265-0.152c0.208-0.01,0.112-0.156,0.124-0.256c0.06-0.571-0.084-1.128-0.084-1.702
	c0.017-0.637,0.284-0.863,0.943-0.739c0.128,0.022,0.264,0.052,0.375,0.088c0.328,0.098,0.56,0.174,0.455,0.642
	c-0.115,0.555-0.008,1.148-0.023,1.724c-0.008,0.216,0.128,0.178,0.252,0.174c0.606-0.068,1.214-0.116,1.817-0.198
	c0.239-0.046,0.287,0.024,0.312,0.226c0.016,0.463-0.424,1.093-1.055,1.095c-1.267,0.014-1.103-0.03-1.166,1.106
	c-0.032,0.619,0,0.599,0.654,0.625c0.991,0.032,1.99-0.128,2.997-0.086c0.375,0.016,0.455,0.108,0.343,0.457
	c-0.155,0.505-0.367,0.977-0.946,1.187c-0.148,0.052-0.292,0.084-0.451,0.084C386.257,113.808,385.274,113.772,384.235,113.69z"/>
<path fill-rule="evenodd" clip-rule="evenodd" fill="#173064" d="M340.372,146.748c-2.146,7.301-4.271,14.56-6.404,21.888
	c-2.105-7.328-4.187-14.597-6.292-21.888c0.751,0,1.479,0.008,2.201,0c0.116,0,0.164,0.02,0.196,0.156
	c0.727,2.699,1.466,5.393,2.217,8.09c0.548,1.905,1.087,3.817,1.586,5.736c0.012,0.048,0.056,0.072,0.116,0.138
	c0.415-1.494,0.811-2.953,1.223-4.418c0.487-1.76,0.979-3.523,1.474-5.279c0.38-1.402,0.759-2.778,1.127-4.173
	c0.048-0.202,0.111-0.25,0.312-0.25C338.854,146.756,339.597,146.748,340.372,146.748z"/>
<path fill-rule="evenodd" clip-rule="evenodd" fill="#173064" d="M349.152,140.828c0,0.979-0.008,1.85,0,2.729
	c0.008,0.2-0.04,0.268-0.268,0.268c-0.851,0.008-0.851,0.016-0.851-0.791c0-1.33,0.016-2.655,0-3.973
	c0-0.268,0.063-0.318,0.352-0.364c0.607-0.09,0.814,0.326,1.07,0.665c0.583,0.723,1.106,1.468,1.646,2.228
	c0.039,0.056,0.048,0.114,0.063,0.18c0.044-0.028,0.088-0.066,0.128-0.094c0-0.895,0.008-1.788-0.008-2.682
	c0-0.228,0.063-0.284,0.304-0.284c0.811,0.008,0.811-0.012,0.811,0.773c0,1.348-0.004,2.703,0.012,4.051
	c0,0.224-0.063,0.25-0.304,0.299c-0.575,0.104-0.822-0.27-1.094-0.617C350.423,142.448,349.815,141.674,349.152,140.828z"/>
<path fill-rule="evenodd" clip-rule="evenodd" fill="#173064" d="M322.698,140.866c0,0.931-0.012,1.797,0,2.678
	c0.017,0.23-0.08,0.288-0.304,0.28c-0.811,0-0.811,0.008-0.811-0.739c0-1.356,0.004-2.707,0-4.061c0-0.258,0.06-0.328,0.331-0.328
	c0.384,0.012,0.64,0.058,0.888,0.414c0.623,0.889,1.31,1.72,2.029,2.646c0-0.951,0.02-1.826,0-2.707
	c-0.017-0.295,0.08-0.354,0.371-0.341c0.735,0.014,0.735,0,0.735,0.721c0,1.366-0.004,2.727,0.004,4.085
	c0,0.25-0.072,0.268-0.312,0.317c-0.64,0.122-0.823-0.33-1.11-0.667c-0.567-0.711-1.119-1.448-1.67-2.165
	C322.818,140.959,322.771,140.927,322.698,140.866z"/>
<path fill-rule="evenodd" clip-rule="evenodd" fill="#173064" d="M331.04,141.04c0.344,0,0.687,0.008,1.03,0
	c0.176-0.014,0.22,0.058,0.22,0.208c-0.02,0.567-0.02,1.126,0,1.684c0,0.144-0.044,0.212-0.18,0.298
	c-0.6,0.355-1.219,0.573-1.941,0.611c-0.688,0.024-1.303-0.076-1.886-0.406c-0.667-0.374-0.99-0.986-1.106-1.666
	c-0.168-0.841,0.004-1.662,0.595-2.341c0.791-0.915,2.47-1.075,3.588-0.355c0.352,0.22,0.56,0.52,0.775,0.849
	c0.096,0.164,0.084,0.271-0.141,0.297c-0.1,0.014-0.188,0.03-0.259,0.08c-0.284,0.138-0.439,0.102-0.632-0.17
	c-0.371-0.519-1.103-0.625-1.886-0.357c-0.571,0.176-0.891,0.651-0.902,1.276c-0.021,0.579,0.048,1.099,0.535,1.514
	c0.392,0.335,1.158,0.473,1.662,0.293c0.367-0.13,0.695-0.218,0.719-0.689c0.008-0.22,0.028-0.316-0.243-0.3
	c-0.316,0.002-0.628-0.016-0.947,0.002c-0.256,0.024-0.323-0.062-0.296-0.292c0.009-0.108,0.009-0.216,0-0.332
	c-0.023-0.17,0.048-0.206,0.22-0.206C330.32,141.047,330.688,141.04,331.04,141.04z"/>
<path fill-rule="evenodd" clip-rule="evenodd" fill="#173064" d="M357.737,141.866c-0.436,0-0.835-0.016-1.227,0.002
	c-0.275,0.024-0.347-0.072-0.303-0.312c0.012-0.102,0.012-0.196,0-0.297c-0.032-0.142,0.012-0.22,0.207-0.22
	c0.703,0.008,1.423,0.008,2.134,0c0.168,0,0.191,0.062,0.191,0.198c-0.004,0.577,0,1.146,0,1.728c0,0.12-0.04,0.194-0.16,0.25
	c-0.61,0.382-1.27,0.602-2.013,0.625c-0.663,0.01-1.259-0.084-1.813-0.39c-0.703-0.39-1.047-1.027-1.143-1.734
	c-0.128-0.901,0.023-1.784,0.791-2.457c0.906-0.805,2.44-0.811,3.427-0.172c0.272,0.178,0.483,0.394,0.632,0.669
	c0.071,0.13,0.264,0.242,0.071,0.386c-0.415,0.29-0.751,0.297-0.895,0.066c-0.336-0.518-1.103-0.675-1.63-0.577
	c-0.711,0.14-1.099,0.561-1.246,1.196c-0.136,0.757,0.031,1.406,0.711,1.866c0.579,0.409,1.442,0.264,2.053-0.104
	c0.097-0.06,0.112-0.132,0.097-0.226C357.622,142.206,357.622,142.046,357.737,141.866z"/>
<path fill-rule="evenodd" clip-rule="evenodd" fill="#173064" d="M320.317,141.195c0.048,0.763-0.116,1.442-0.695,1.969
	c-0.747,0.667-1.638,0.835-2.637,0.617c-1.357-0.308-2.077-1.817-1.845-2.962c0.18-0.835,0.487-1.522,1.286-1.906
	c1.158-0.54,2.349-0.372,3.188,0.396C320.142,139.801,320.405,140.48,320.317,141.195z"/>
<path fill-rule="evenodd" clip-rule="evenodd" fill="#173064" d="M346.771,141.309c0.08,0.667-0.151,1.29-0.639,1.786
	c-0.743,0.745-1.662,0.905-2.749,0.661c-1.338-0.306-2.025-1.838-1.781-2.988c0.199-0.941,0.606-1.648,1.573-1.973
	C345.038,138.173,346.907,139.28,346.771,141.309z"/>
<path fill-rule="evenodd" clip-rule="evenodd" fill="#173064" d="M341.115,143.774c-0.072,0.028-0.084,0.036-0.104,0.036
	c-1.17,0.054-1.17,0.054-1.833-0.853c-0.332-0.439-0.659-0.871-0.979-1.309c-0.056-0.06-0.111-0.098-0.144-0.122
	c-0.623,0.31-0.814,0.809-0.703,1.438c0.016,0.11,0,0.228,0,0.332c0,0.527,0,0.527-0.56,0.527c-0.547,0-0.547,0-0.547-0.542
	c0-1.416,0.012-2.824-0.012-4.232c-0.008-0.299,0.088-0.354,0.375-0.341c0.743,0.014,0.743,0,0.743,0.721c0,0.422,0,0.849,0,1.203
	c0.647-0.591,1.322-1.205,1.989-1.828c0.076-0.062,0.145-0.096,0.24-0.096c0.415,0.014,0.814,0.008,1.29,0.008
	c-0.659,0.623-1.267,1.216-1.886,1.774c-0.228,0.208-0.199,0.33-0.016,0.549C339.677,141.924,340.372,142.841,341.115,143.774z"/>
<path fill-rule="evenodd" clip-rule="evenodd" fill="#173064" d="M309.635,141.227c0-0.747,0-1.502-0.016-2.257
	c-0.008-0.204,0.056-0.262,0.288-0.262c0.831-0.012,0.822-0.012,0.831,0.753c0.016,0.39-0.176,0.921,0.079,1.146
	c0.232,0.198,0.783,0.058,1.187,0.058c0.787,0,0.787,0,0.787-0.745c0-0.15,0-0.312,0-0.459c0-0.807,0.104-0.871,0.959-0.753
	c0.144,0.024,0.164,0.083,0.164,0.184c0,1.566,0,3.108,0,4.664c0,0.018,0.004,0.066-0.021,0.068
	c-0.271,0.268-0.599,0.05-0.898,0.118c-0.204,0.04-0.204-0.078-0.204-0.228c0-0.557-0.008-1.119,0.012-1.68
	c0-0.214-0.06-0.284-0.283-0.27c-0.516,0.012-1.039,0.012-1.546,0c-0.184-0.008-0.244,0.042-0.244,0.232
	c0.017,0.559,0,1.117,0.017,1.678c0.008,0.222-0.057,0.27-0.28,0.278c-0.847,0.004-0.831,0.01-0.831-0.759
	C309.635,142.399,309.635,141.824,309.635,141.227z"/>
<path fill-rule="evenodd" clip-rule="evenodd" fill="#173064" d="M372.914,119.457c0.128,0.697-0.375,1.282-0.743,1.888
	c-0.296,0.467-0.52,0.971-0.95,1.366c-0.476,0.439-0.955,0.399-1.303-0.13c-0.224-0.33-0.503-0.623-0.6-1.035
	c-0.023-0.168-0.056-0.31-0.023-0.463c0.096-0.366,0.208-0.633,0.647-0.795c0.679-0.25,1.142-0.811,1.646-1.296
	c0.168-0.166,0.363-0.304,0.587-0.412c0.364-0.182,0.691-0.028,0.739,0.381C372.926,119.091,372.914,119.233,372.914,119.457z"/>
<path fill-rule="evenodd" clip-rule="evenodd" fill="#173064" d="M374.265,115.364c0,0.542-0.384,0.833-1.047,0.663
	c-1.326-0.348-2.545-0.903-3.396-1.987c-0.304-0.39-0.208-1.104,0.159-1.417c0.32-0.27,1.119-0.25,1.482,0.046
	c0.859,0.715,1.65,1.486,2.569,2.144C374.248,114.965,374.296,115.167,374.265,115.364z"/>
<path fill-rule="evenodd" clip-rule="evenodd" fill="#173064" d="M372.147,108.16c0.275-0.048,0.543,0.042,0.719,0.231
	c0.539,0.583,1.183,1.113,1.542,1.838c0.088,0.166,0.168,0.352,0.136,0.535c-0.056,0.441-0.547,0.681-1.015,0.495
	c-0.967-0.375-1.706-1.03-2.253-1.87c-0.12-0.178-0.256-0.431-0.096-0.627C371.428,108.477,371.62,108.083,372.147,108.16z"/>
<path fill-rule="evenodd" clip-rule="evenodd" fill="#173064" d="M288.542,122.423c-0.503-0.03-1.106,0.018-1.71-0.05
	c-0.559-0.08-1.166-0.873-0.975-1.456c0.132-0.427,0.52-0.389,0.839-0.433c0.775-0.116,1.57-0.082,2.35-0.092
	c0.455,0,0.91-0.062,1.374-0.072c0.535-0.022,0.719,0.138,0.655,0.651c-0.064,0.563-0.144,1.154-0.839,1.402
	c-0.328,0.104-0.644,0.02-0.975,0.05C289.062,122.437,288.854,122.423,288.542,122.423z"/>
<path fill-rule="evenodd" clip-rule="evenodd" fill="#173064" d="M289.062,117.693c0.472,0,0.955,0.022,1.414-0.002
	c0.439-0.028,0.663,0.202,0.695,0.549c0.04,0.481-0.176,0.896-0.583,0.947c-0.544,0.072-1.095,0.138-1.65,0.174
	c-0.555,0.028-1.082,0.068-1.63-0.008c-0.26-0.034-0.511-0.012-0.767-0.082c-0.451-0.112-0.779-0.459-0.764-0.843
	c0.017-0.292,0.328-0.527,0.783-0.583c0.416-0.042,0.812-0.17,1.227-0.154C288.215,117.703,288.638,117.693,289.062,117.693z"/>
<path fill-rule="evenodd" clip-rule="evenodd" fill="#173064" d="M383.765,115.308c-0.775-0.058-1.482,0.03-2.206,0.05
	c-0.734,0.02-1.462,0.006-2.229,0.006c0.168-0.557,0.388-1.083,0.479-1.634c0.023-0.16,0.216-0.14,0.271-0.14
	c0.771-0.016,1.542-0.038,2.305,0c0.403,0.006,0.619,0.352,0.815,0.641C383.421,114.549,383.572,114.911,383.765,115.308z"/>
<path fill-rule="evenodd" clip-rule="evenodd" fill="#173064" d="M380.065,116.725c0.551-0.14,1.094-0.03,1.653-0.12
	c0.032-0.01,0.056-0.038,0.104-0.04c0.735-0.11,0.939,0.132,0.747,0.919c-0.012,0.078-0.052,0.148-0.067,0.21
	c-0.116,0.809-0.116,0.809-0.999,0.819c-0.399,0.026-0.818-0.07-1.214,0.074c-0.092,0.046-0.176-0.006-0.152-0.132
	C380.177,117.867,379.969,117.278,380.065,116.725z"/>
<path fill-rule="evenodd" clip-rule="evenodd" fill="#173064" d="M381.279,110.788c0.344-0.048,0.759,0.066,1.175-0.072
	c0.147-0.048,0.275-0.04,0.308,0.204c0.044,0.33,0.027,0.665,0.067,1.003c0.048,0.383-0.151,0.459-0.503,0.439
	c-0.352-0.008-0.703-0.008-1.07,0c-0.276,0.008-0.571-0.02-0.848,0.062c-0.231,0.078-0.515,0.03-0.439-0.313
	c0.104-0.385,0.08-0.761,0.08-1.152c0-0.158,0.064-0.178,0.204-0.17C380.576,110.788,380.88,110.788,381.279,110.788z"/>
<path fill-rule="evenodd" clip-rule="evenodd" fill="#173064" d="M319.223,141.259c0,0.837-0.415,1.404-1.078,1.586
	c-0.808,0.209-1.555-0.232-1.806-0.851c-0.26-0.671-0.12-1.812,0.643-2.203c0.531-0.266,1.003-0.234,1.498,0
	c0.464,0.218,0.663,0.619,0.735,1.084C319.223,141.005,319.223,141.129,319.223,141.259z"/>
<path fill-rule="evenodd" clip-rule="evenodd" fill="#173064" d="M345.669,141.291c0,0.887-0.367,1.346-1.263,1.582
	c-0.495,0.142-1.262-0.148-1.565-0.739c-0.323-0.645-0.264-1.712,0.392-2.213c0.407-0.318,0.854-0.368,1.311-0.27
	c0.527,0.12,0.898,0.417,1.05,0.937C345.653,140.828,345.653,141.053,345.669,141.291z"/>
<path fill-rule="evenodd" clip-rule="evenodd" fill="#FFFFFF" d="M334.004,99.407c-0.195,0.671-0.199,1.38-0.296,2.065
	c-0.119,0.903-0.167,1.799-0.304,2.7c-0.088,0.556-0.107,1.133-0.18,1.688c-0.096,0.889-0.172,1.782-0.287,2.67
	c-0.076,0.583-0.132,1.179-0.18,1.766c-0.1,0.881-0.2,1.775-0.304,2.665c-0.064,0.581-0.112,1.168-0.184,1.758
	c-0.08,0.896-0.224,1.779-0.288,2.672c-0.04,0.581-0.12,1.179-0.18,1.764c-0.092,0.891-0.231,1.778-0.308,2.661
	c-0.044,0.601-0.1,1.177-0.151,1.772c-0.132,0.879-0.204,1.782-0.312,2.658c-0.068,0.562-0.112,1.139-0.176,1.692
	c-0.101,0.913-0.164,1.84-0.304,2.741c-0.104,0.561-0.108,1.13-0.172,1.694c-0.104,0.903-0.156,1.828-0.308,2.747
	c-0.048,0.233,0.096,0.569-0.128,0.691c-0.224,0.124-0.552,0.048-0.847,0.048c-0.416,0-0.815-0.018-1.23,0
	c-0.192,0.004-0.28-0.018-0.272-0.24c0.097-0.601,0.16-1.207,0.225-1.819c0.071-0.538,0.127-1.075,0.191-1.616
	c0.1-0.849,0.176-1.704,0.283-2.545c0.084-0.525,0.132-1.054,0.188-1.583c0.096-0.847,0.155-1.698,0.304-2.551
	c0.088-0.545,0.111-1.103,0.167-1.652c0.101-0.829,0.2-1.656,0.304-2.483c0.072-0.542,0.12-1.103,0.176-1.65
	c0.096-0.845,0.228-1.696,0.312-2.547c0.036-0.525,0.104-1.055,0.16-1.574c0.104-0.857,0.176-1.71,0.296-2.557
	c0.075-0.527,0.136-1.05,0.18-1.578c0.084-0.851,0.18-1.704,0.312-2.549c0.088-0.553,0.092-1.103,0.172-1.652
	c0.096-0.857,0.22-1.708,0.304-2.555c0.04-0.529,0.092-1.045,0.176-1.578c0.104-0.855,0.167-1.704,0.283-2.551
	c0.076-0.525,0.116-1.053,0.18-1.582c0.088-0.845,0.188-1.694,0.304-2.551c0.072-0.517,0.12-1.05,0.16-1.57
	c0.096-0.857,0.207-1.708,0.312-2.559c0.071-0.545,0.124-1.101,0.184-1.65c0.096-0.851,0.231-1.698,0.296-2.557
	c0.048-0.52,0.104-1.047,0.163-1.568c0.104-0.859,0.188-1.706,0.308-2.563c0.08-0.498,0.12-0.989,0.168-1.496
	c0.072-0.739,0.16-1.482,0.304-2.219c0.08,0.835,0.164,1.678,0.256,2.515c0.096,0.781,0.239,1.554,0.308,2.329
	c0.036,0.527,0.107,1.055,0.168,1.576c0.088,0.857,0.172,1.704,0.315,2.555c0.08,0.531,0.111,1.075,0.164,1.614
	c0.092,0.839,0.199,1.676,0.299,2.513c0.072,0.549,0.116,1.111,0.185,1.654c0.096,0.856,0.224,1.698,0.295,2.55
	c0.04,0.527,0.104,1.049,0.168,1.576c0.108,0.849,0.231,1.702,0.3,2.555c0.052,0.531,0.107,1.045,0.18,1.57
	c0.1,0.855,0.191,1.708,0.304,2.563c0.063,0.519,0.111,1.041,0.176,1.578c0.088,0.851,0.176,1.702,0.287,2.546
	c0.08,0.505,0.132,1.025,0.192,1.536c0.071,0.867,0.184,1.726,0.304,2.587c0.063,0.515,0.107,1.035,0.159,1.546
	c0.08,0.859,0.168,1.734,0.304,2.586c0.088,0.538,0.112,1.075,0.18,1.624c0.088,0.835,0.188,1.668,0.288,2.507
	c0.071,0.54,0.115,1.084,0.18,1.608c0.096,0.849,0.208,1.686,0.292,2.519c0.075,0.537,0.111,1.077,0.18,1.62
	c0.104,0.861,0.243,1.724,0.319,2.587c0.036,0.519,0.096,1.026,0.16,1.538c0.115,0.867,0.176,1.729,0.295,2.59
	c0.052,0.312,0.1,0.609,0.112,0.929c0,0.151-0.057,0.204-0.231,0.204c-0.636-0.006-1.295-0.006-1.942,0
	c-0.295,0-0.271-0.22-0.283-0.374c-0.1-0.869-0.147-1.746-0.252-2.611c-0.151-1.222-0.26-2.443-0.407-3.657
	c-0.068-0.727-0.147-1.448-0.231-2.161c-0.108-1.061-0.268-2.125-0.384-3.174c-0.072-0.624-0.092-1.252-0.16-1.888
	c-0.088-0.829-0.211-1.668-0.319-2.507c-0.063-0.559-0.1-1.125-0.16-1.684c-0.104-0.893-0.239-1.768-0.299-2.674
	c-0.04-0.559-0.116-1.128-0.18-1.686c-0.084-0.885-0.176-1.777-0.288-2.67c-0.072-0.557-0.111-1.139-0.184-1.716
	c-0.096-0.907-0.208-1.806-0.312-2.71c-0.064-0.551-0.096-1.101-0.164-1.646c-0.092-0.907-0.199-1.804-0.3-2.707
	c-0.06-0.539-0.107-1.077-0.176-1.612C334.063,100.118,334.036,99.76,334.004,99.407z"/>
<path fill-rule="evenodd" clip-rule="evenodd" fill="#FFFFFF" d="M287.296,113.173c-0.719,0.512-1.339,1.007-1.966,1.52
	c-0.971,0.797-1.865,1.716-3.02,2.27c-1.119,0.543-2.306,0.671-3.532,0.349c-0.447-0.11-0.734-0.425-0.931-0.805
	c-0.132-0.246,0.172-0.649,0.588-0.759c0.447-0.125,0.923-0.242,1.406-0.301c0.65-0.082,1.226-0.316,1.806-0.569
	c0.755-0.326,1.502-0.646,2.213-1.055c0.935-0.529,1.806-1.145,2.7-1.712c0.048-0.034,0.088-0.044,0.248-0.12
	c-0.384,0-0.655-0.024-0.927,0.004c-0.695,0.06-1.391,0.142-2.077,0.216c-0.659,0.074-1.327,0.132-1.974,0.233
	c-0.544,0.088-1.103,0.152-1.65,0.14c-0.483-0.002-0.795-0.33-0.734-0.781c0.088-0.605,0.874-1.064,1.546-0.977
	c0.551,0.08,1.134,0.084,1.693,0.02c0.548-0.066,1.095-0.088,1.63-0.12c0.879-0.058,1.734-0.184,2.589-0.236
	c0.096-0.014,0.124-0.034,0.144-0.125c0.145-0.595-0.199-1.556-0.774-1.826c-0.408-0.19-0.879-0.26-1.362-0.31
	c-0.268-0.028-0.523-0.098-0.768-0.21c-0.26-0.118-0.339-0.315-0.411-0.535c-0.068-0.242,0.12-0.45,0.399-0.45
	c0.854-0.022,1.71,0.138,2.557,0.07c1.462-0.126,2.912-0.258,4.331-0.671c0.287-0.08,0.599-0.226,0.799,0.172
	c0.147,0.31,0.052,0.699-0.26,0.917c-0.627,0.451-1.267,0.891-1.962,1.262c-0.104,0.056-0.176,0.104-0.168,0.244
	c0.017,0.401,0,0.793,0,1.201c0.443-0.05,0.863-0.092,1.287-0.12c0.962-0.072,1.917-0.192,2.876-0.355
	c0.352-0.052,0.707-0.124,1.083-0.096c0.431,0.032,0.555,0.229,0.475,0.621c-0.088,0.31-0.279,0.535-0.567,0.701
	c-0.319,0.176-0.606,0.416-0.898,0.621c-0.147,0.1-0.323,0.136-0.499,0.164c-0.76,0.088-1.486,0.068-2.237,0.068
	c-0.256,0-0.516-0.028-0.783,0.102c0.268,0.386,0.703,0.601,1.074,0.867c0.932,0.701,2.105,1.007,3.148,1.516
	c1.114,0.542,2.313,0.813,3.495,1.121c0.304,0.078,0.36,0.25,0.16,0.438c-0.52,0.461-1.03,0.943-1.714,1.181
	c-0.699,0.238-1.307,0.088-1.857-0.272c-0.6-0.375-1.143-0.831-1.726-1.236c-1.031-0.725-2.054-1.434-3.005-2.237
	c-0.144-0.128-0.415-0.35-0.407,0.124c0,0.068-0.071,0.146-0.071,0.236c0.063,0.823-0.072,1.646-0.08,2.463
	c0,0.224,0.056,0.295,0.312,0.286c0.982-0.032,1.966,0.032,2.932,0.216c0.739,0.14,1.095,0.555,1.199,1.306
	c0.088,0.721-0.112,1.42-0.24,2.117c-0.147,0.809-0.295,1.616-0.639,2.383c-0.192,0.464-0.424,0.919-0.771,1.291
	c-0.275,0.29-0.643,0.32-0.994,0.256c-0.592-0.118-1.195-0.184-1.79-0.124c-0.735,0.056-1.446,0.16-2.178,0.128
	c-0.715-0.038-1.445-0.056-2.101-0.403c-0.552-0.296-0.827-0.835-0.939-1.393c-0.144-0.717-0.144-1.45-0.191-2.171
	c-0.036-0.602-0.024-1.195-0.056-1.784c-0.024-0.32,0.056-0.609,0.088-0.919c0.04-0.366,0.375-0.595,0.831-0.597
	c0.831-0.028,1.653-0.188,2.477-0.23c0.231-0.008,0.176-0.158,0.176-0.26C287.296,115.234,287.296,114.234,287.296,113.173z"/>
<path fill-rule="evenodd" clip-rule="evenodd" fill="#FFFFFF" d="M384.235,113.69c0.711,1.19,1.854,1.734,3.053,2.207
	c1.29,0.505,2.612,0.869,3.938,1.274c0.224,0.068,0.312,0.152,0.168,0.419c-0.18,0.32-0.464,0.511-0.731,0.749
	c-0.459,0.399-0.891,0.839-1.302,1.282c-0.324,0.348-0.611,0.336-0.955,0.018c-0.814-0.739-1.614-1.496-2.457-2.223
	c-0.388-0.339-0.778-0.681-1.146-1.048c-0.159-0.144-0.191-0.122-0.26,0.082c-0.268,0.713-0.479,1.45-0.69,2.181
	c-0.048,0.188-0.148,0.36-0.192,0.538c-0.159,0.559-0.695,0.515-1.135,0.537c-0.627,0.044-1.27,0.082-1.901,0.152
	c-0.151,0.02-0.216,0.1-0.231,0.188c-0.04,0.345-0.088,0.693,0.016,1.028c0.145,0.404,0.552,0.392,0.896,0.438
	c1.15,0.154,2.32,0.098,3.467,0.074c0.552-0.018,1.087-0.05,1.622,0c0.911,0.08,1.015,0.515,0.879,1.104
	c-0.144,0.711-0.359,0.757-1.051,0.769c-1.418,0.044-2.832-0.108-4.246-0.274c-0.815-0.104-1.622-0.213-2.401-0.459
	c-0.491-0.146-0.738-0.485-0.851-0.896c-0.072-0.272-0.111-0.558-0.111-0.843c0.016-1.008,0.048-2.017-0.072-3.018
	c-0.044-0.266-0.08-0.527-0.1-0.891c-0.24,0.317-0.428,0.567-0.611,0.829c-0.512,0.727-0.995,1.47-1.834,1.94
	c-0.479,0.283-1.003,0.369-1.558,0.313c-0.388-0.038-0.571-0.372-0.628-0.683c-0.079-0.333-0.056-0.695,0.308-0.927
	c0.779-0.47,1.498-1.029,2.21-1.588c0.264-0.214,0.507-0.496,0.667-0.793c0.388-0.653,0.747-1.312,1.003-2.025
	c0.111-0.283,0.092-0.371-0.244-0.365c-0.56,0.02-1.106,0.05-1.658,0.158c-0.279,0.056-0.579-0.158-0.687-0.445
	c-0.088-0.296-0.032-0.569,0.128-0.813c0.128-0.19,0.352-0.096,0.527-0.082c0.747,0.034,1.474-0.132,2.197-0.082
	c0.159,0.012,0.207-0.05,0.207-0.193c-0.016-0.424-0.016-0.847,0-1.274c0-0.15-0.056-0.198-0.207-0.192
	c-0.416,0.052-0.863-0.066-1.279,0.074c-0.056,0.016-0.132-0.018-0.188-0.038c-0.428-0.152-0.411-0.5-0.379-0.833
	c0.02-0.272,0.207-0.355,0.499-0.419c0.279-0.04,0.556-0.062,0.839-0.04c0.275,0.008,0.336-0.088,0.327-0.32
	c-0.067-0.649-0.132-1.29-0.283-1.925c-0.107-0.45,0.016-0.617,0.499-0.617c0.644-0.014,1.194,0.248,1.73,0.521
	c0.191,0.088,0.176,0.246,0.176,0.397c0,0.539,0,1.084-0.004,1.624c0,0.154,0.027,0.25,0.231,0.232
	c0.755-0.054,1.506-0.104,2.265-0.152c0.208-0.01,0.112-0.156,0.124-0.256c0.06-0.571-0.084-1.128-0.084-1.702
	c0.017-0.637,0.284-0.863,0.943-0.739c0.128,0.022,0.264,0.052,0.375,0.088c0.328,0.098,0.56,0.174,0.455,0.642
	c-0.115,0.555-0.008,1.148-0.023,1.724c-0.008,0.216,0.128,0.178,0.252,0.174c0.606-0.068,1.214-0.116,1.817-0.198
	c0.239-0.046,0.287,0.024,0.312,0.226c0.016,0.463-0.424,1.093-1.055,1.095c-1.267,0.014-1.103-0.03-1.166,1.106
	c-0.032,0.619,0,0.599,0.654,0.625c0.991,0.032,1.99-0.128,2.997-0.086c0.375,0.016,0.455,0.108,0.343,0.457
	c-0.155,0.505-0.367,0.977-0.946,1.187c-0.148,0.052-0.292,0.084-0.451,0.084C386.257,113.808,385.274,113.772,384.235,113.69z"/>
<path fill-rule="evenodd" clip-rule="evenodd" fill="#FFFFFF" d="M340.372,146.748c-2.146,7.301-4.271,14.56-6.404,21.888
	c-2.105-7.328-4.187-14.597-6.292-21.888c0.751,0,1.479,0.008,2.201,0c0.116,0,0.164,0.02,0.196,0.156
	c0.727,2.699,1.466,5.393,2.217,8.09c0.548,1.905,1.087,3.817,1.586,5.736c0.012,0.048,0.056,0.072,0.116,0.138
	c0.415-1.494,0.811-2.953,1.223-4.418c0.487-1.76,0.979-3.523,1.474-5.279c0.38-1.402,0.759-2.778,1.127-4.173
	c0.048-0.202,0.111-0.25,0.312-0.25C338.854,146.756,339.597,146.748,340.372,146.748z"/>
<path fill-rule="evenodd" clip-rule="evenodd" fill="#FFFFFF" d="M349.152,140.828c0,0.979-0.008,1.85,0,2.729
	c0.008,0.2-0.04,0.268-0.268,0.268c-0.851,0.008-0.851,0.016-0.851-0.791c0-1.33,0.016-2.655,0-3.973
	c0-0.268,0.063-0.318,0.352-0.364c0.607-0.09,0.814,0.326,1.07,0.665c0.583,0.723,1.106,1.468,1.646,2.228
	c0.039,0.056,0.048,0.114,0.063,0.18c0.044-0.028,0.088-0.066,0.128-0.094c0-0.895,0.008-1.788-0.008-2.682
	c0-0.228,0.063-0.284,0.304-0.284c0.811,0.008,0.811-0.012,0.811,0.773c0,1.348-0.004,2.703,0.012,4.051
	c0,0.224-0.063,0.25-0.304,0.299c-0.575,0.104-0.822-0.27-1.094-0.617C350.423,142.448,349.815,141.674,349.152,140.828z"/>
<path fill-rule="evenodd" clip-rule="evenodd" fill="#FFFFFF" d="M322.698,140.866c0,0.931-0.012,1.797,0,2.678
	c0.017,0.23-0.08,0.288-0.304,0.28c-0.811,0-0.811,0.008-0.811-0.739c0-1.356,0.004-2.707,0-4.061c0-0.258,0.06-0.328,0.331-0.328
	c0.384,0.012,0.64,0.058,0.888,0.414c0.623,0.889,1.31,1.72,2.029,2.646c0-0.951,0.02-1.826,0-2.707
	c-0.017-0.295,0.08-0.354,0.371-0.341c0.735,0.014,0.735,0,0.735,0.721c0,1.366-0.004,2.727,0.004,4.085
	c0,0.25-0.072,0.268-0.312,0.317c-0.64,0.122-0.823-0.33-1.11-0.667c-0.567-0.711-1.119-1.448-1.67-2.165
	C322.818,140.959,322.771,140.927,322.698,140.866z"/>
<path fill-rule="evenodd" clip-rule="evenodd" fill="#FFFFFF" d="M331.04,141.04c0.344,0,0.687,0.008,1.03,0
	c0.176-0.014,0.22,0.058,0.22,0.208c-0.02,0.567-0.02,1.126,0,1.684c0,0.144-0.044,0.212-0.18,0.298
	c-0.6,0.355-1.219,0.573-1.941,0.611c-0.688,0.024-1.303-0.076-1.886-0.406c-0.667-0.374-0.99-0.986-1.106-1.666
	c-0.168-0.841,0.004-1.662,0.595-2.341c0.791-0.915,2.47-1.075,3.588-0.355c0.352,0.22,0.56,0.52,0.775,0.849
	c0.096,0.164,0.084,0.271-0.141,0.297c-0.1,0.014-0.188,0.03-0.259,0.08c-0.284,0.138-0.439,0.102-0.632-0.17
	c-0.371-0.519-1.103-0.625-1.886-0.357c-0.571,0.176-0.891,0.651-0.902,1.276c-0.021,0.579,0.048,1.099,0.535,1.514
	c0.392,0.335,1.158,0.473,1.662,0.293c0.367-0.13,0.695-0.218,0.719-0.689c0.008-0.22,0.028-0.316-0.243-0.3
	c-0.316,0.002-0.628-0.016-0.947,0.002c-0.256,0.024-0.323-0.062-0.296-0.292c0.009-0.108,0.009-0.216,0-0.332
	c-0.023-0.17,0.048-0.206,0.22-0.206C330.32,141.047,330.688,141.04,331.04,141.04z"/>
<path fill-rule="evenodd" clip-rule="evenodd" fill="#FFFFFF" d="M357.737,141.866c-0.436,0-0.835-0.016-1.227,0.002
	c-0.275,0.024-0.347-0.072-0.303-0.312c0.012-0.102,0.012-0.196,0-0.297c-0.032-0.142,0.012-0.22,0.207-0.22
	c0.703,0.008,1.423,0.008,2.134,0c0.168,0,0.191,0.062,0.191,0.198c-0.004,0.577,0,1.146,0,1.728c0,0.12-0.04,0.194-0.16,0.25
	c-0.61,0.382-1.27,0.602-2.013,0.625c-0.663,0.01-1.259-0.084-1.813-0.39c-0.703-0.39-1.047-1.027-1.143-1.734
	c-0.128-0.901,0.023-1.784,0.791-2.457c0.906-0.805,2.44-0.811,3.427-0.172c0.272,0.178,0.483,0.394,0.632,0.669
	c0.071,0.13,0.264,0.242,0.071,0.386c-0.415,0.29-0.751,0.297-0.895,0.066c-0.336-0.518-1.103-0.675-1.63-0.577
	c-0.711,0.14-1.099,0.561-1.246,1.196c-0.136,0.757,0.031,1.406,0.711,1.866c0.579,0.409,1.442,0.264,2.053-0.104
	c0.097-0.06,0.112-0.132,0.097-0.226C357.622,142.206,357.622,142.046,357.737,141.866z"/>
<path fill-rule="evenodd" clip-rule="evenodd" fill="#FFFFFF" d="M320.317,141.195c0.048,0.763-0.116,1.442-0.695,1.969
	c-0.747,0.667-1.638,0.835-2.637,0.617c-1.357-0.308-2.077-1.817-1.845-2.962c0.18-0.835,0.487-1.522,1.286-1.906
	c1.158-0.54,2.349-0.372,3.188,0.396C320.142,139.801,320.405,140.48,320.317,141.195z"/>
<path fill-rule="evenodd" clip-rule="evenodd" fill="#FFFFFF" d="M346.771,141.309c0.08,0.667-0.151,1.29-0.639,1.786
	c-0.743,0.745-1.662,0.905-2.749,0.661c-1.338-0.306-2.025-1.838-1.781-2.988c0.199-0.941,0.606-1.648,1.573-1.973
	C345.038,138.173,346.907,139.28,346.771,141.309z"/>
<path fill-rule="evenodd" clip-rule="evenodd" fill="#FFFFFF" d="M341.115,143.774c-0.072,0.028-0.084,0.036-0.104,0.036
	c-1.17,0.054-1.17,0.054-1.833-0.853c-0.332-0.439-0.659-0.871-0.979-1.309c-0.056-0.06-0.111-0.098-0.144-0.122
	c-0.623,0.31-0.814,0.809-0.703,1.438c0.016,0.11,0,0.228,0,0.332c0,0.527,0,0.527-0.56,0.527c-0.547,0-0.547,0-0.547-0.542
	c0-1.416,0.012-2.824-0.012-4.232c-0.008-0.299,0.088-0.354,0.375-0.341c0.743,0.014,0.743,0,0.743,0.721c0,0.422,0,0.849,0,1.203
	c0.647-0.591,1.322-1.205,1.989-1.828c0.076-0.062,0.145-0.096,0.24-0.096c0.415,0.014,0.814,0.008,1.29,0.008
	c-0.659,0.623-1.267,1.216-1.886,1.774c-0.228,0.208-0.199,0.33-0.016,0.549C339.677,141.924,340.372,142.841,341.115,143.774z"/>
<path fill-rule="evenodd" clip-rule="evenodd" fill="#FFFFFF" d="M309.635,141.227c0-0.747,0-1.502-0.016-2.257
	c-0.008-0.204,0.056-0.262,0.288-0.262c0.831-0.012,0.822-0.012,0.831,0.753c0.016,0.39-0.176,0.921,0.079,1.146
	c0.232,0.198,0.783,0.058,1.187,0.058c0.787,0,0.787,0,0.787-0.745c0-0.15,0-0.312,0-0.459c0-0.807,0.104-0.871,0.959-0.753
	c0.144,0.024,0.164,0.083,0.164,0.184c0,1.566,0,3.108,0,4.664c0,0.018,0.004,0.066-0.021,0.068
	c-0.271,0.268-0.599,0.05-0.898,0.118c-0.204,0.04-0.204-0.078-0.204-0.228c0-0.557-0.008-1.119,0.012-1.68
	c0-0.214-0.06-0.284-0.283-0.27c-0.516,0.012-1.039,0.012-1.546,0c-0.184-0.008-0.244,0.042-0.244,0.232
	c0.017,0.559,0,1.117,0.017,1.678c0.008,0.222-0.057,0.27-0.28,0.278c-0.847,0.004-0.831,0.01-0.831-0.759
	C309.635,142.399,309.635,141.824,309.635,141.227z"/>
<path fill-rule="evenodd" clip-rule="evenodd" fill="#FFFFFF" d="M372.914,119.457c0.128,0.697-0.375,1.282-0.743,1.888
	c-0.296,0.467-0.52,0.971-0.95,1.366c-0.476,0.439-0.955,0.399-1.303-0.13c-0.224-0.33-0.503-0.623-0.6-1.035
	c-0.023-0.168-0.056-0.31-0.023-0.463c0.096-0.366,0.208-0.633,0.647-0.795c0.679-0.25,1.142-0.811,1.646-1.296
	c0.168-0.166,0.363-0.304,0.587-0.412c0.364-0.182,0.691-0.028,0.739,0.381C372.926,119.091,372.914,119.233,372.914,119.457z"/>
<path fill-rule="evenodd" clip-rule="evenodd" fill="#FFFFFF" d="M374.265,115.364c0,0.542-0.384,0.833-1.047,0.663
	c-1.326-0.348-2.545-0.903-3.396-1.987c-0.304-0.39-0.208-1.104,0.159-1.417c0.32-0.27,1.119-0.25,1.482,0.046
	c0.859,0.715,1.65,1.486,2.569,2.144C374.248,114.965,374.296,115.167,374.265,115.364z"/>
<path fill-rule="evenodd" clip-rule="evenodd" fill="#FFFFFF" d="M372.147,108.16c0.275-0.048,0.543,0.042,0.719,0.231
	c0.539,0.583,1.183,1.113,1.542,1.838c0.088,0.166,0.168,0.352,0.136,0.535c-0.056,0.441-0.547,0.681-1.015,0.495
	c-0.967-0.375-1.706-1.03-2.253-1.87c-0.12-0.178-0.256-0.431-0.096-0.627C371.428,108.477,371.62,108.083,372.147,108.16z"/>
<path fill-rule="evenodd" clip-rule="evenodd" fill="#173064" d="M288.542,122.423c-0.503-0.03-1.106,0.018-1.71-0.05
	c-0.559-0.08-1.166-0.873-0.975-1.456c0.132-0.427,0.52-0.389,0.839-0.433c0.775-0.116,1.57-0.082,2.35-0.092
	c0.455,0,0.91-0.062,1.374-0.072c0.535-0.022,0.719,0.138,0.655,0.651c-0.064,0.563-0.144,1.154-0.839,1.402
	c-0.328,0.104-0.644,0.02-0.975,0.05C289.062,122.437,288.854,122.423,288.542,122.423z"/>
<path fill-rule="evenodd" clip-rule="evenodd" fill="#173064" d="M289.062,117.693c0.472,0,0.955,0.022,1.414-0.002
	c0.439-0.028,0.663,0.202,0.695,0.549c0.04,0.481-0.176,0.896-0.583,0.947c-0.544,0.072-1.095,0.138-1.65,0.174
	c-0.555,0.028-1.082,0.068-1.63-0.008c-0.26-0.034-0.511-0.012-0.767-0.082c-0.451-0.112-0.779-0.459-0.764-0.843
	c0.017-0.292,0.328-0.527,0.783-0.583c0.416-0.042,0.812-0.17,1.227-0.154C288.215,117.703,288.638,117.693,289.062,117.693z"/>
<path fill-rule="evenodd" clip-rule="evenodd" fill="#173064" d="M383.765,115.308c-0.775-0.058-1.482,0.03-2.206,0.05
	c-0.734,0.02-1.462,0.006-2.229,0.006c0.168-0.557,0.388-1.083,0.479-1.634c0.023-0.16,0.216-0.14,0.271-0.14
	c0.771-0.016,1.542-0.038,2.305,0c0.403,0.006,0.619,0.352,0.815,0.641C383.421,114.549,383.572,114.911,383.765,115.308z"/>
<path fill-rule="evenodd" clip-rule="evenodd" fill="#173064" d="M380.065,116.725c0.551-0.14,1.094-0.03,1.653-0.12
	c0.032-0.01,0.056-0.038,0.104-0.04c0.735-0.11,0.939,0.132,0.747,0.919c-0.012,0.078-0.052,0.148-0.067,0.21
	c-0.116,0.809-0.116,0.809-0.999,0.819c-0.399,0.026-0.818-0.07-1.214,0.074c-0.092,0.046-0.176-0.006-0.152-0.132
	C380.177,117.867,379.969,117.278,380.065,116.725z"/>
<path fill-rule="evenodd" clip-rule="evenodd" fill="#173064" d="M381.279,110.788c0.344-0.048,0.759,0.066,1.175-0.072
	c0.147-0.048,0.275-0.04,0.308,0.204c0.044,0.33,0.027,0.665,0.067,1.003c0.048,0.383-0.151,0.459-0.503,0.439
	c-0.352-0.008-0.703-0.008-1.07,0c-0.276,0.008-0.571-0.02-0.848,0.062c-0.231,0.078-0.515,0.03-0.439-0.313
	c0.104-0.385,0.08-0.761,0.08-1.152c0-0.158,0.064-0.178,0.204-0.17C380.576,110.788,380.88,110.788,381.279,110.788z"/>
<path fill-rule="evenodd" clip-rule="evenodd" fill="#173064" d="M319.223,141.259c0,0.837-0.415,1.404-1.078,1.586
	c-0.808,0.209-1.555-0.232-1.806-0.851c-0.26-0.671-0.12-1.812,0.643-2.203c0.531-0.266,1.003-0.234,1.498,0
	c0.464,0.218,0.663,0.619,0.735,1.084C319.223,141.005,319.223,141.129,319.223,141.259z"/>
<path fill-rule="evenodd" clip-rule="evenodd" fill="#173064" d="M345.669,141.291c0,0.887-0.367,1.346-1.263,1.582
	c-0.495,0.142-1.262-0.148-1.565-0.739c-0.323-0.645-0.264-1.712,0.392-2.213c0.407-0.318,0.854-0.368,1.311-0.27
	c0.527,0.12,0.898,0.417,1.05,0.937C345.653,140.828,345.653,141.053,345.669,141.291z"/>
<path fill-rule="evenodd" clip-rule="evenodd" fill="#FFFFFF" d="M392.354,299.874c-0.711-5.401-0.152-5.971,6.671-6.77
	c0-4.622,0.044-9.246-0.016-13.876c-0.04-3.726-0.363-7.45-0.288-11.17c0.097-4.857,2.35-7.123,7.423-7.886
	c1.079-0.158,2.169-0.271,3.26-0.258c8.27,0.072,10.714,2.375,10.866,10.223c0.107,6.003,0.199,12.009,0.319,18.011
	c0.017,1.113,0.144,2.224,0.231,3.607c6.8-0.413,13.308-0.809,19.815-1.208c2.404-0.147,4.701-0.092,5.341,2.794
	c0.644,2.898-0.499,4.721-3.623,5.062c-4.771,0.506-9.58,0.739-14.362,1.101c-2.265,0.17-4.525,0.368-6.571,0.525
	c0,5.142,0,10.027,0,14.921c0.244,0.028,0.495,0.068,0.743,0.097c0.975-2.461,1.93-4.942,2.956-7.391
	c2.046-4.848,6.088-6.477,11.765-4.811c5.769,1.714,8.921,5.896,7.371,10.675c-1.079,3.315-2.661,6.623-4.754,9.443
	c-3.883,5.241-8.162,10.243-12.584,15.081c-1.718,1.89-2.325,3.491-1.414,5.789c1.007,2.54,1.81,5.153,2.692,7.737
	c0.415-0.012,0.843-0.02,1.254-0.031c0.388-1.274,0.884-2.545,1.107-3.84c0.371-2.029,0.479-4.106,0.826-6.155
	c0.72-4.223,2.126-5.441,6.057-5.413c4.559,0.031,8.189,2.356,8.254,5.96c0.144,7.966-1.139,15.764-6.152,22.432
	c-6.3,8.377-19.367,8.984-26.467,1.226c-2.452-2.692-4.158-5.992-6.312-9.176c-3.472,2.44-7.003,5.169-10.782,7.53
	c-3.348,2.081-6.911,3.923-10.53,5.561c-2.229,1.023-4.882,1.327-6.32-1.262c-1.402-2.517-0.104-4.427,2.062-6.16
	c6.919-5.529,13.774-11.142,20.51-16.866c0.938-0.8,1.61-2.47,1.51-3.68c-0.998-12.995-2.177-25.979-3.315-38.96
	c-0.023-0.3-0.124-0.6-0.08-0.382c-2.725-0.929-5.125-1.756-7.53-2.57L392.354,299.874z"/>
<path fill-rule="evenodd" clip-rule="evenodd" fill="#FFFFFF" d="M143.644,287.136c0.683-2.129,1.29-4.278,2.077-6.359
	c1.546-4.101,5.074-5.543,9.792-4.129c4.57,1.381,7.351,5.253,5.833,8.973c-3.236,7.902-8.709,14.308-16.083,19.071
	c-1.598,1.033-2.005,1.857-2.285,3.516c-0.783,4.738,0.987,7.411,5.92,8.845c2.952,0.855,5.677,2.637,8.27,4.314
	c3.604,2.333,4.442,5.729,2.78,9.572c-1.773,4.074-6.479,7.318-10.083,6.52c-1.418-0.315-2.752-1.519-3.803-2.597
	c-0.991-1.023-1.558-2.425-2.636-4.179c-0.176,1.223-0.348,1.869-0.356,2.524c-0.012,8.489-0.012,16.967-0.004,25.447
	c0,0.623-0.176,1.358,0.112,1.846c0.36,0.623,1.099,1.066,1.678,1.59c0.479-0.479,1.278-0.91,1.386-1.45
	c0.308-1.617,0.403-3.279,0.459-4.926c0.092-2.692,0.008-5.385,0.148-8.069c0.204-3.787,1.618-5.353,5.018-5.809
	c4.415-0.599,8.417,0.982,9.121,4.267c1.49,6.943,1.03,13.942-2.833,20.103c-1.214,1.941-4.53,3.56-7.011,3.739
	c-6.719,0.479-13.535,0.436-20.262-0.032c-5.633-0.396-7.734-3.092-7.734-8.493c-0.04-19.87-0.02-39.741-0.02-59.602
	c0-10.87-0.012-21.734,0.012-32.599c0.008-4.512,1.39-6.735,4.833-7.936c4.475-1.574,11.146-0.839,13.179,1.918
	c1.159,1.569,1.73,3.793,1.822,5.748c0.236,5.478,0.084,10.966,0.084,16.447c0,0.56,0,1.129,0,1.693
	C143.256,287.104,143.448,287.122,143.644,287.136z"/>
<path fill-rule="evenodd" clip-rule="evenodd" fill="#FFFFFF" d="M97.147,331.445c-2.557,2.577-4.351,4.67-6.468,6.412
	c-2.625,2.149-4.79,1.813-7.067-0.695c-4.97-5.473-4.003-11.881,2.341-15.692c2.489-1.489,4.814-3.255,7.407-4.55
	c4.786-2.377,6.843-5.772,5.146-10.896c0.016,0-0.224-0.139-0.375-0.078c-8.014,3.124-10.299,2.029-12.053-5.917
	c-1.267-5.75-2.637-11.501-3.576-17.313c-0.244-1.544,0.432-3.763,1.558-4.842c1.67-1.578,3.995-0.811,5.589,0.686
	c3.008,2.826,5.86,5.811,9.208,9.16c0-2.593,0-4.888,0-7.171c0.008-4.145-0.056-8.281,0.032-12.42
	c0.096-4.221,2.117-6.546,6.543-7.193c2.217-0.327,4.57-0.315,6.795-0.008c4.798,0.677,6.975,3.008,6.935,7.53
	c-0.147,18.205-0.156,36.413-0.699,54.606c-0.559,18.588-9.08,33.353-25.351,43.928c-2.045,1.326-4.231,2.752-6.568,3.319
	c-1.71,0.416-4.307,0.072-5.565-0.959c-1.881-1.55-0.851-3.739,0.507-5.576c3.42-4.643,7.143-9.141,10.011-14.082
	C94.639,344.293,96.336,338.289,97.147,331.445z"/>
<path fill-rule="evenodd" clip-rule="evenodd" fill="#FFFFFF" d="M53.827,337.953c-7.794,1.722-11.226-1.183-10.754-8.557
	c0.208-3.196,2.193-4.69,5.073-5.737c5.705-2.073,5.681-2.133,5.681-7.918c0-6.415,0.004-12.827-0.004-19.249
	c0-1.007-0.104-2.02-0.164-2.979c-3.436-1.143-9.165,1.502-9.068-4.6c0.096-5.791,5.505-3.443,9.236-4.492
	c0-4.366-0.004-8.885,0.004-13.399c0.004-3.543-0.3-7.36,3.775-9.231c4.554-2.082,9.34-2.034,13.898,0.123
	c2.912,1.377,3.503,4.071,3.527,6.867c0.04,5.168,0.016,10.331,0.016,15.677c3.3,0.583,7.466,0.033,7.103,4.897
	c-0.295,4.055-3.619,3.735-6.815,3.937c0,6.894,0,13.757,0,20.951c1.398-0.459,2.756-1.274,4.123-1.274
	c1.678,0,3.815,0.212,4.898,1.183c1.59,1.414,1.103,3.516-0.567,4.95c-1.926,1.657-3.855,3.396-6.064,4.678
	c-2.185,1.263-2.764,2.78-2.729,5.073c0.136,8.485,0.052,16.975,0.052,25.464c0,0.935,0.012,1.861-0.008,2.792
	c-0.231,10.311-2.844,12.756-13.722,12.804c-4.263,0.008-8.517-0.016-12.78-0.016c-2.792,0-4.267-1.263-4.314-3.955
	c-0.048-2.789,1.267-4.083,4.362-4.287c5.241-0.327,5.241-0.327,5.241-5.373C53.827,350.201,53.827,344.117,53.827,337.953z"/>
<path fill-rule="evenodd" clip-rule="evenodd" fill="#FFFFFF" d="M433.337,289.31c-4.175,0.04-6.244-1.466-7.127-5.159
	c-1.29-5.338-2.729-10.652-3.671-16.042c-0.28-1.532,0.435-4.011,1.609-4.758c1.202-0.761,4.035-0.56,5.262,0.317
	c4.13,3.002,8.021,6.353,11.725,9.842c2.889,2.723,4.175,6.126,2.125,9.901C441.171,287.254,437.631,289.029,433.337,289.31z"/>
<path fill-rule="evenodd" clip-rule="evenodd" fill="#FFFFFF" d="M392.285,299.784c-0.076,8.359-0.164,16.725-0.203,25.082
	c-0.04,10.794-2.014,12.699-13.271,12.699c-1.838,0-3.675,0-5.753,0c0,1.918,0,3.516,0,5.521c5.537,0,11.066-0.021,16.604,0.004
	c2.597,0.008,4.85,0.519,5.105,3.571c0.279,3.164-1.167,4.722-4.818,4.794c-5.541,0.1-11.09,0.023-17.142,0.023
	c0,3.651-0.021,7.016,0,10.387c0.027,3.563-0.324,7.135-4.559,8.386c-4.897,1.446-10.067,1.985-14.229-1.578
	c-1.37-1.167-1.901-3.644-2.065-5.577c-0.315-3.683-0.092-7.414-0.092-11.604c-4.738,0-9.148,0.008-13.583-0.005
	c-1.525,0-3.06,0.024-4.578-0.023c-2.836-0.096-4.53-1.326-4.506-4.187c0.008-2.868,1.701-4.146,4.538-4.171
	c5.014-0.052,10.035-0.016,15.064-0.032c0.867,0,1.729-0.063,2.816-0.119c0-1.687,0-3.284,0-5.485c-3.06,0-6.072,0.096-9.068-0.02
	c-7.566-0.328-10.091-2.865-10.107-10.027c-0.012-7.962-0.048-15.932,0.021-23.892c0.084-7.746,2.736-10.211,10.874-10.239
	c11.904-0.02,23.798,0,35.694,0c0.439,0,0.879,0.019,1.318,0.013c5.325-0.013,9.991,1.08,12.001,6.553
	C392.354,299.874,392.285,299.784,392.285,299.784z M353.87,311.195c0-3.248,0-6.456,0-9.649c-0.259-0.208-0.522-0.414-0.782-0.617
	c-0.971,0.785-2.641,1.468-2.785,2.367c-0.383,2.582-0.128,5.239-0.128,7.899C351.661,311.195,352.636,311.195,353.87,311.195z
	 M374.248,311.147c0.695-9.24,0.567-10.497-3.323-9.426c0,3.096,0,6.222,0,9.426C372.139,311.147,373.098,311.147,374.248,311.147z
	 M350.151,319.528c0,2.397-0.04,4.643,0.008,6.896c0.056,2.916,0.38,3.116,3.711,2.493c0-3.164,0-6.305,0-9.389
	C352.548,319.528,351.502,319.528,350.151,319.528z M370.825,330.219c1.674-1.154,3.427-1.758,3.535-2.549
	c0.359-2.688,0.136-5.457,0.136-8.361c-1.534,0.124-2.572,0.204-3.671,0.292C370.825,322.904,370.825,325.977,370.825,330.219z
	 M346.068,290.4c-3.252-0.252-6.523-0.35-9.747-0.789c-3.348-0.458-5.218-2.537-5.298-5.737c-0.096-4.544-0.132-9.094,0.084-13.628
	c0.204-4.151,2.377-6.408,6.684-6.626c5.105-0.26,10.251-0.281,15.356,0.052c5.433,0.357,7.423,2.701,7.471,7.889
	c0.031,3.613,0.088,7.23-0.057,10.84c-0.207,5.539-2.473,7.616-8.261,7.76c-2.077,0.05-4.146,0.008-6.216,0.008
	C346.076,290.246,346.072,290.318,346.068,290.4z M343.936,276.965c0,1.035-0.224,2.126,0.071,3.064
	c0.248,0.775,1.127,1.378,1.718,2.058c0.672-0.623,1.83-1.185,1.902-1.874c0.259-2.123,0.268-4.305,0.016-6.428
	c-0.08-0.713-1.23-1.316-1.878-1.961c-0.611,0.696-1.494,1.308-1.758,2.095C343.708,274.854,343.936,275.952,343.936,276.965z
	 M378.319,263.299c2.92,0.193,5.893,0.178,8.772,0.631c3.991,0.604,5.717,2.443,5.849,6.296c0.147,4.544,0.092,9.104-0.16,13.639
	c-0.211,3.764-2.153,5.9-6.084,6.09c-5.641,0.256-11.346,0.206-16.97-0.247c-4.223-0.352-5.881-2.373-6.009-6.438
	c-0.136-4.333-0.104-8.691,0.128-13.023c0.24-4.461,2.484-6.454,7.255-6.716c2.389-0.138,4.798-0.032,7.198-0.032
	C378.299,263.438,378.308,263.371,378.319,263.299z M380.305,277.135c0,0,0.008,0,0.016,0c0-1.028,0.26-2.139-0.079-3.056
	c-0.32-0.857-1.278-1.508-1.942-2.247c-0.61,0.701-1.646,1.352-1.733,2.109c-0.248,2.023-0.248,4.106,0,6.128
	c0.08,0.729,1.139,1.346,1.754,2.018c0.659-0.632,1.63-1.15,1.905-1.901C380.553,279.267,380.305,278.16,380.305,277.135z"/>
<path fill="#FFFFFF" d="M280.608,418.21l-37.496-54.434l-36.074,54.434h-76.79l73.574-100.188l-72.499-95.841h77.504l36.417,52.767
	l35.007-52.767h74.656l-72.155,95.841l75.004,100.188H280.608z"/>
<path fill="#469CCF" d="M180.94,252.74c-2.305-3.15-1.874-5.754,1.283-7.832l11.241-7.373c3.276-2.151,6.044-1.68,8.286,1.402
	l7.247,9.919l-6.196,4.061l-5.613-7.696c-0.495-0.673-1.094-0.775-1.81-0.313l-6.328,4.161c-0.763,0.498-0.899,1.089-0.408,1.762
	l5.665,7.756l-6.156,4.034L180.94,252.74z"/>
<path fill="#469CCF" d="M198.593,276.925l13.635-8.944c0.707-0.463,0.819-1.038,0.324-1.705l-3.715-5.098l-14.697,9.644
	l-4.263-5.837l27.054-17.743l4.258,5.839l-6.16,4.034l5.337,7.321c2.257,3.076,1.75,5.692-1.526,7.844l-15.979,10.484
	L198.593,276.925z"/>
<path fill="#469CCF" d="M207.91,289.677c-2.102-2.88-1.578-5.351,1.578-7.42l3.096-2.027c3.228-2.124,5.889-1.738,7.994,1.138
	l4.854,6.647c0.275,0.378,0.463,0.804,0.563,1.272l1.57-1.026c0.703-0.468,0.815-1.047,0.328-1.716l-7.526-10.285l5.848-3.827
	l9.068,12.412c2.297,3.148,1.806,5.797-1.466,7.942l-11.07,7.263c-3.276,2.147-6.017,1.699-8.242-1.332L207.91,289.677z
	 M221.476,292.25c0.467-0.314,0.547-0.691,0.216-1.143l-3.6-4.924c-0.323-0.445-0.731-0.516-1.198-0.208l-1.466,0.961
	c-0.471,0.31-0.543,0.691-0.211,1.143l3.591,4.924c0.332,0.449,0.727,0.511,1.207,0.21L221.476,292.25z"/>
<path fill="#469CCF" d="M219.902,306.1l27.049-17.735l4.262,5.833l-27.045,17.741L219.902,306.1z"/>
<path fill="#469CCF" d="M226.334,314.91l27.045-17.745l4.259,5.841l-27.049,17.733L226.334,314.91z"/>
<path fill="#469CCF" d="M236.113,328.302c-2.305-3.152-1.813-5.805,1.462-7.95l11.065-7.255c3.276-2.149,6.021-1.706,8.238,1.33
	l6.604,9.041c2.102,2.876,1.558,5.361-1.618,7.442l-3.06,2.006c-3.229,2.117-5.893,1.737-7.998-1.139l-4.898-6.716
	c-0.295-0.399-0.471-0.811-0.519-1.21l-1.558,1.03c-0.711,0.468-0.823,1.039-0.332,1.718l7.466,10.219l-5.84,3.831L236.113,328.302z
	 M255.952,326.208c0.472-0.319,0.547-0.695,0.224-1.143l-3.6-4.926c-0.332-0.451-0.73-0.515-1.202-0.203l-1.466,0.958
	c-0.467,0.304-0.547,0.691-0.216,1.139l3.599,4.918c0.328,0.451,0.728,0.523,1.199,0.216L255.952,326.208z"/>
<path fill="#469CCF" d="M256.399,356.09l13.643-8.94c0.699-0.464,0.819-1.031,0.323-1.71l-3.008-4.114
	c-0.491-0.676-1.091-0.779-1.802-0.313l-13.63,8.941l-4.263-5.837l15.98-10.486c3.275-2.142,6.036-1.678,8.285,1.402l6.228,8.537
	c2.237,3.06,1.71,5.664-1.59,7.834l-15.939,10.454L256.399,356.09z"/>
<path fill="#469CCF" d="M256.635,369.809l5.302-3.476l7.51,10.286c0.496,0.684,1.095,0.783,1.814,0.316l2.341-1.542l-5.465-7.491
	c-2.254-3.08-1.73-5.696,1.533-7.842l9.108-5.977c3.188-2.085,5.921-1.558,8.222,1.586l9.66,13.235l-22.563,14.789
	c-3.3,2.169-6.072,1.71-8.325-1.366L256.635,369.809z M286.385,367.012l-3.851-5.27c-0.487-0.663-1.119-0.755-1.874-0.251
	l-4.981,3.26c-0.703,0.471-0.815,1.038-0.327,1.714l3.843,5.261L286.385,367.012z"/>
<path fill="#469CCF" d="M281.287,390.162c-2.305-3.152-1.813-5.797,1.467-7.945l11.062-7.263c3.275-2.149,6.017-1.71,8.241,1.334
	l6.596,9.036c2.105,2.885,1.559,5.361-1.614,7.446l-3.06,2.014c-3.228,2.117-5.893,1.733-7.998-1.15l-4.897-6.703
	c-0.296-0.408-0.472-0.812-0.512-1.215l-1.569,1.026c-0.716,0.464-0.819,1.039-0.328,1.714l7.459,10.224l-5.833,3.818
	L281.287,390.162z M301.126,388.064c0.479-0.312,0.552-0.683,0.224-1.134l-3.595-4.922c-0.328-0.447-0.735-0.523-1.207-0.216
	l-1.458,0.967c-0.468,0.312-0.547,0.688-0.22,1.127l3.592,4.93c0.327,0.451,0.734,0.527,1.206,0.207L301.126,388.064z"/>
</svg>
