<?xml version="1.0" encoding="utf-8"?>
<!-- Generator: Adobe Illustrator 16.0.0, SVG Export Plug-In . SVG Version: 6.00 Build 0)  -->
<!DOCTYPE svg PUBLIC "-//W3C//DTD SVG 1.1//EN" "http://www.w3.org/Graphics/SVG/1.1/DTD/svg11.dtd">
<svg version="1.1" id="圖層_1" xmlns="http://www.w3.org/2000/svg" xmlns:xlink="http://www.w3.org/1999/xlink" x="0px" y="0px"
	 width="500px" height="500px" viewBox="0 0 500 500" enable-background="new 0 0 500 500" xml:space="preserve">
<rect y="1" fill="#A9252D" width="501.579" height="500.001"/>
<rect x="27.126" y="25.914" fill="#FFFFFF" width="442.39" height="444.302"/>
<path fill="#69318E" d="M162.971,222.255c-3.638,0-7.273-0.331-10.873-0.981l-45.063,238.711l103.282-74.379l-35.745-164.508
	C170.839,221.851,166.962,222.255,162.971,222.255"/>
<path fill="#69318E" d="M124.483,208.861l-74.531,90.861l23.619,108.43l70.878-188.758
	C137.042,217.079,130.282,213.473,124.483,208.861"/>
<polygon fill="#FFF100" points="253.687,60.183 337.85,111.317 351.633,107.135 261.186,52.181 "/>
<polygon fill="#192F72" points="280.986,128.584 294.772,124.401 230.249,85.201 222.758,93.201 "/>
<polygon fill="#F8B62D" points="356.809,105.568 376.733,99.517 273.669,38.86 263.997,49.179 "/>
<polygon fill="#A9252D" points="299.939,122.83 313.727,118.644 240.56,74.195 233.067,82.197 "/>
<polygon fill="#00913A" points="318.896,117.075 332.683,112.893 250.872,63.187 243.378,71.193 "/>
<polygon fill="#69318E" points="165.788,153.991 184.354,157.926 275.816,130.156 219.936,96.206 "/>
<polygon fill="#69318E" points="141.984,148.956 158.995,152.555 150.903,39.124 88.289,101.465 "/>
<path fill="#D70051" d="M120.802,196.229c6.344,7.688,15.075,13.528,25.2,16.749c5.417,1.722,10.979,2.61,16.523,2.646
	c7.661,0.037,14.876-1.556,21.2-4.463l-1.058-47.058l-42.655-9.277L120.802,196.229z"/>
<path fill="#FFFFFF" d="M137.062,183.196c0.647-0.423,1.643-0.053,2.277,2.144c0.625,2.211,1.968,4.349,5.11,2.35
	c0,0,2.57-0.409,3.794,1.543c1.216,1.928-0.297,2.698-1.408,2.114c-1.136-0.553-4.069-1.773-6.764-0.896
	c-2.716,0.895-3.839,3.962-3.968,4.502c-0.123,0.537,1.195,0.281,1.195,0.281s1.454-0.054,2.804,2.07
	c1.329,2.12,1.939,3.719,5.785,1.291c3.826-2.416,4.524-3.858,8.133-3.048c3.616,0.788,3.641,2.393,6.085,6.195
	c2.465,3.826,3.692,2.633,5.801,1.275c2.117-1.358,3.409-0.695,3.409-0.695s1.086,0.788,1.201,0.254
	c0.115-0.542,0.387-3.805-1.695-5.762c-2.075-1.932-5.245-2.061-6.512-2.042c-1.257,0.057-2.301-1.277-0.387-2.51
	c1.936-1.257,4.098,0.201,4.098,0.201c2.002,3.136,4.117,1.77,5.619,0.029c1.503-1.724,2.561-1.638,2.972-0.981
	c0.417,0.65,0.926,0.663,0.926,0.663c1.735-5.156-2.222-10.271-8.299-8.517c-3.53,1.018-5.262,2.385-6.366,3.623
	c0.334,0.254,0.5,0.686,0.406,1.115c-0.129,0.593-0.724,0.973-1.312,0.831c-0.122-0.008-0.214-0.067-0.31-0.122l-3.15,3.371
	l-0.369-0.34l2.091-2.23c-0.262-0.285,0.093-1.51,0.093-1.51c0.615-1.112,4.695-3.949,6.349-7.294
	c1.575-3.171-0.612-6.429-2.637-8.1c-1.453-1.217-1.585-3.949-2.063-4.19v-0.003c-0.003-0.008-0.011-0.003-0.026-0.008
	c-0.008-0.001-0.014-0.008-0.025-0.008v0.006c-0.542,0.016-1.813,2.435-3.643,2.93c-2.542,0.66-5.899,2.695-5.804,6.229
	c0.062,2.655,1.342,5.603,2.112,7.531c0.205,0.211,0.321,0.505,0.312,0.82c0.138,0.391,0.233,0.717,0.24,0.938
	c0,0-0.128,0.839-0.364,1.232l0.833,3.291l-0.472,0.12l-0.859-3.387c-0.075-0.105-0.158-0.262-0.244-0.489
	c-0.085-0.205-0.146-0.419-0.203-0.65c-0.089,0-0.179-0.01-0.278-0.034c-0.591-0.134-0.967-0.714-0.831-1.291
	c0.079-0.353,0.31-0.633,0.609-0.775c-0.466-1.605-1.43-3.604-4.259-6.074c-4.775-4.15-10.528-1.187-11.124,4.214
	C135.942,183.404,136.406,183.61,137.062,183.196 M159.538,191.662c-0.075-0.169-0.096-0.377-0.058-0.593
	c0.138-0.599,0.73-0.974,1.313-0.827c0.607,0.126,0.966,0.717,0.834,1.313c-0.122,0.575-0.717,0.971-1.305,0.826
	c-0.217-0.051-0.399-0.147-0.527-0.288l-2.32,1.473l-0.257-0.441L159.538,191.662z M156.984,185.225
	c0.125-0.578,0.715-0.947,1.318-0.828c0.575,0.128,0.947,0.733,0.813,1.309c-0.117,0.585-0.646,0.928-1.241,0.864l-2.069,5.209
	l-0.441-0.179l2.061-5.214C157.07,186.142,156.875,185.686,156.984,185.225 M154.507,185.875c-0.554-0.176-0.904-0.729-0.767-1.294
	c0.129-0.607,0.716-0.976,1.313-0.84c0.585,0.129,0.973,0.712,0.845,1.321c-0.108,0.445-0.478,0.759-0.899,0.827l-0.304,5.557
	l-0.49-0.02L154.507,185.875z M150.319,187.804c0.593,0.136,0.952,0.74,0.823,1.321c-0.029,0.144-0.091,0.288-0.179,0.407
	l1.58,2.551l-0.42,0.252l-1.532-2.486c-0.217,0.117-0.487,0.166-0.759,0.093c-0.594-0.128-0.962-0.687-0.837-1.291
	C149.135,188.056,149.716,187.681,150.319,187.804"/>
<path fill="#D70051" d="M150.713,186.039c-0.133,0.577,0.243,1.156,0.828,1.291c0.105,0.024,0.195,0.034,0.284,0.034
	c0.046,0,0.104-0.001,0.155-0.01l0.292,1.149l0.856,3.387l0.471-0.12l-0.829-3.291l-0.333-1.315
	c0.203-0.163,0.366-0.385,0.423-0.653c0.016-0.069,0.027-0.133,0.034-0.201c0.01-0.315-0.107-0.609-0.312-0.82
	c-0.146-0.142-0.335-0.254-0.545-0.297c-0.254-0.061-0.5-0.029-0.714,0.072C151.026,185.406,150.795,185.686,150.713,186.039"/>
<path fill="#D70051" d="M149.832,189.943c0.268,0.073,0.542,0.024,0.759-0.094l1.535,2.491l0.417-0.257l-1.58-2.55
	c0.088-0.12,0.15-0.264,0.179-0.406c0.129-0.589-0.23-1.187-0.823-1.323c-0.603-0.123-1.187,0.252-1.325,0.848
	C148.87,189.256,149.237,189.815,149.832,189.943"/>
<path fill="#D70051" d="M156.506,192.477l3.15-3.371c0.096,0.055,0.188,0.114,0.31,0.122c0.588,0.142,1.182-0.238,1.312-0.831
	c0.094-0.433-0.072-0.861-0.406-1.115c-0.115-0.094-0.262-0.165-0.425-0.206c-0.596-0.136-1.184,0.248-1.315,0.852
	c-0.072,0.313,0.006,0.601,0.158,0.847l-1.063,1.133l-2.091,2.23L156.506,192.477z"/>
<path fill="#D70051" d="M154.696,191.446L155,185.89c0.422-0.068,0.791-0.382,0.899-0.821c0.128-0.617-0.26-1.198-0.845-1.328
	c-0.597-0.136-1.184,0.233-1.313,0.84c-0.137,0.565,0.212,1.118,0.767,1.289l-0.302,5.556L154.696,191.446z"/>
<path fill="#D70051" d="M155.805,191.78l2.069-5.212c0.596,0.067,1.122-0.276,1.241-0.861c0.134-0.575-0.238-1.181-0.813-1.309
	c-0.603-0.12-1.193,0.25-1.318,0.828c-0.109,0.46,0.086,0.917,0.441,1.162l-2.061,5.214L155.805,191.78z"/>
<path fill="#D70051" d="M159.792,192.093c0.129,0.141,0.313,0.236,0.531,0.288c0.588,0.145,1.184-0.251,1.305-0.826
	c0.132-0.596-0.227-1.187-0.834-1.313c-0.583-0.147-1.176,0.229-1.313,0.827c-0.038,0.216-0.018,0.423,0.058,0.593l-2.324,1.463
	l0.262,0.441L159.792,192.093z"/>
<path fill="#69318E" d="M246.797,283.373l-0.904-2.796h-7.191l-0.935,2.796h-5.569l7.773-22.97h4.983l7.387,22.97H246.797z
	 M240.505,275.295h3.697l-1.799-5.565L240.505,275.295z"/>
<polygon fill="#69318E" points="268.832,260.403 274.094,260.403 274.094,283.373 268.4,283.373 260.927,269.976 260.927,283.373 
	255.668,283.373 255.668,260.464 261.391,260.464 268.832,273.822 "/>
<polygon fill="#69318E" points="291.929,260.403 297.188,260.403 297.188,283.373 291.491,283.373 284.024,269.976 284.024,283.373 
	278.766,283.373 278.766,260.464 284.491,260.464 291.929,273.822 "/>
<rect x="301.856" y="260.377" fill="#69318E" width="5.263" height="22.996"/>
<polygon fill="#69318E" points="323.746,260.218 329.312,260.218 321.528,283.373 316.551,283.373 309.17,260.218 314.717,260.218 
	319.106,274.417 "/>
<polygon fill="#69318E" points="345.598,265.688 336.194,265.688 336.194,269.17 343.814,269.17 343.814,274.455 336.194,274.455 
	336.194,278.085 345.598,278.085 345.598,283.373 330.936,283.373 330.936,260.435 345.598,260.403 "/>
<path fill="#69318E" d="M356.991,277.427c-0.278,0.045-0.54,0.07-0.814,0.093c-0.271,0.016-0.547,0.041-0.838,0.061v5.793h-5.262
	v-22.874h5.262c1.301,0.019,2.534,0.259,3.668,0.716c1.145,0.46,2.145,1.073,3.004,1.853c0.869,0.768,1.54,1.658,2.025,2.681
	c0.492,1.022,0.732,2.112,0.732,3.278c0,1.23-0.259,2.368-0.777,3.422c-0.518,1.055-1.249,1.962-2.179,2.735l5.042,8.189h-6.198
	L356.991,277.427z M355.339,272.26c0.557-0.022,1.097-0.118,1.598-0.297c0.512-0.179,0.956-0.409,1.343-0.7
	c0.38-0.294,0.684-0.632,0.9-1.016c0.221-0.387,0.326-0.802,0.326-1.243c0-0.438-0.105-0.837-0.326-1.214
	c-0.217-0.377-0.521-0.709-0.9-1.003c-0.387-0.294-0.831-0.524-1.343-0.706c-0.501-0.176-1.041-0.278-1.598-0.294V272.26z"/>
<path fill="#69318E" d="M375.446,283.804c-0.723,0-1.441-0.096-2.157-0.294c-0.715-0.204-1.393-0.505-2.045-0.92
	c-1.118-0.735-1.987-1.674-2.613-2.834c-0.623-1.157-0.93-2.419-0.93-3.806h5.263c0,0.626,0.131,1.112,0.402,1.46
	c0.271,0.342,0.511,0.572,0.716,0.693c0.37,0.259,0.779,0.391,1.214,0.416c0.432,0.013,0.856-0.064,1.278-0.25
	c0.294-0.121,0.518-0.287,0.696-0.473c0.173-0.188,0.31-0.364,0.402-0.549c0.093-0.173,0.153-0.352,0.173-0.512
	c0.022-0.166,0.035-0.301,0.035-0.409c0-0.105-0.013-0.236-0.035-0.402c-0.02-0.169-0.08-0.345-0.173-0.53
	c-0.093-0.191-0.229-0.371-0.402-0.553c-0.179-0.17-0.402-0.342-0.696-0.482c-0.23-0.103-0.473-0.205-0.735-0.281
	c-0.255-0.083-0.536-0.179-0.824-0.281c-0.518-0.166-1.061-0.357-1.623-0.568c-0.556-0.208-1.118-0.479-1.678-0.844
	c-0.725-0.457-1.345-1.029-1.83-1.719c-0.502-0.69-0.863-1.429-1.08-2.225c-0.214-0.782-0.294-1.61-0.214-2.453
	c0.07-0.844,0.3-1.655,0.699-2.429c0.371-0.703,0.837-1.326,1.399-1.837c0.556-0.524,1.183-0.934,1.863-1.243
	c0.689-0.3,1.422-0.476,2.214-0.543c0.786-0.07,1.591,0.007,2.396,0.214c0.786,0.188,1.502,0.482,2.141,0.892
	s1.195,0.901,1.655,1.47c0.46,0.575,0.817,1.218,1.07,1.924c0.246,0.709,0.367,1.457,0.367,2.229h-5.233
	c0-0.482-0.15-0.814-0.457-1.01c-0.297-0.185-0.56-0.313-0.786-0.37c-0.048,0-0.144-0.02-0.297-0.051
	c-0.157-0.032-0.332-0.032-0.527,0c-0.198,0.031-0.406,0.108-0.604,0.22c-0.211,0.115-0.384,0.304-0.512,0.547
	c-0.159,0.332-0.191,0.696-0.09,1.051c0.109,0.367,0.313,0.652,0.62,0.859c0.297,0.166,0.617,0.313,0.965,0.454
	c0.361,0.141,0.729,0.269,1.131,0.393c0.352,0.1,0.707,0.221,1.067,0.342c0.364,0.125,0.729,0.272,1.105,0.444
	c1.361,0.623,2.426,1.537,3.202,2.751c0.772,1.215,1.156,2.553,1.156,4.032c0,1.464-0.384,2.793-1.156,4.004
	c-0.776,1.211-1.841,2.134-3.202,2.754c-0.536,0.246-1.086,0.438-1.648,0.55C376.574,283.753,376.009,283.804,375.446,283.804"/>
<path fill="#69318E" d="M399.097,283.373l-0.908-2.796h-7.186l-0.939,2.796h-5.565l7.776-22.97h4.984l7.381,22.97H399.097z
	 M392.805,275.295h3.707l-1.809-5.565L392.805,275.295z"/>
<path fill="#69318E" d="M414.874,277.427c-0.266,0.045-0.53,0.07-0.809,0.093c-0.269,0.016-0.55,0.041-0.84,0.061v5.793h-5.263
	v-22.874h5.263c1.307,0.019,2.533,0.259,3.671,0.716c1.144,0.46,2.141,1.073,3.007,1.853c0.859,0.768,1.53,1.658,2.022,2.681
	c0.491,1.022,0.734,2.112,0.734,3.278c0,1.23-0.262,2.368-0.779,3.422c-0.515,1.055-1.24,1.962-2.173,2.735l5.035,8.189h-6.191
	L414.874,277.427z M413.226,272.26c0.565-0.022,1.092-0.118,1.601-0.297c0.511-0.179,0.958-0.409,1.345-0.7
	c0.38-0.294,0.681-0.632,0.904-1.016c0.218-0.387,0.326-0.802,0.326-1.243c0-0.438-0.108-0.837-0.326-1.214
	c-0.224-0.377-0.524-0.709-0.904-1.003c-0.387-0.294-0.834-0.524-1.345-0.706c-0.509-0.176-1.035-0.278-1.601-0.294V272.26z"/>
<polygon fill="#69318E" points="428.868,283.373 431.511,276.864 423.705,260.218 429.517,260.218 434.22,270.199 438.243,260.218 
	443.937,260.218 434.565,283.373 "/>
<polygon fill="#D70051" points="250.086,306.799 240.135,306.799 240.135,293.677 232.198,293.677 232.198,327.11 240.135,327.11 
	240.135,314.496 250.086,314.496 250.086,327.11 258.029,327.11 258.029,293.677 250.086,293.677 "/>
<polygon fill="#D70051" points="282.258,293.632 271.129,304.198 271.129,293.632 263.186,293.632 263.186,327.11 271.129,327.11 
	271.129,316.589 282.203,327.11 293.674,327.11 275.963,310.394 293.674,293.632 "/>
<path fill="#69318E" d="M311.094,306.726c-0.623-0.233-1.236-0.447-1.847-0.626c-0.604-0.179-1.208-0.336-1.803-0.486
	c-0.658-0.179-1.29-0.367-1.879-0.562c-0.594-0.198-1.137-0.409-1.623-0.652c-0.518-0.297-0.872-0.703-1.041-1.227
	c-0.173-0.518-0.128-1.017,0.159-1.499c0.205-0.354,0.479-0.606,0.831-0.772c0.345-0.173,0.684-0.278,1.022-0.316
	c0.326-0.052,0.623-0.052,0.882,0c0.262,0.038,0.435,0.066,0.498,0.066c0.384,0.083,0.825,0.259,1.336,0.534
	c0.505,0.269,0.761,0.744,0.761,1.428h8.78c0-1.102-0.205-2.15-0.627-3.173c-0.412-1.009-1.006-1.93-1.782-2.741
	c-0.783-0.83-1.716-1.523-2.78-2.108c-1.08-0.575-2.274-1-3.591-1.271c-1.361-0.294-2.71-0.403-4.032-0.313
	c-1.319,0.093-2.557,0.352-3.71,0.779c-1.146,0.435-2.195,1.022-3.134,1.776c-0.943,0.741-1.72,1.617-2.352,2.627
	c-0.655,1.108-1.055,2.259-1.173,3.47c-0.122,1.204,0,2.377,0.367,3.502c0.357,1.138,0.962,2.198,1.806,3.176
	c0.827,0.984,1.862,1.809,3.076,2.46c0.946,0.512,1.879,0.908,2.825,1.205c0.936,0.297,1.843,0.568,2.719,0.809
	c0.482,0.146,0.942,0.284,1.384,0.402c0.435,0.118,0.843,0.249,1.229,0.402c0.482,0.208,0.879,0.435,1.18,0.696
	c0.29,0.253,0.514,0.512,0.671,0.776c0.153,0.263,0.255,0.521,0.287,0.764c0.038,0.243,0.051,0.425,0.051,0.582
	c0,0.141-0.013,0.339-0.051,0.581c-0.032,0.243-0.134,0.479-0.287,0.729c-0.157,0.256-0.381,0.524-0.671,0.793
	c-0.301,0.262-0.697,0.482-1.18,0.664c-0.699,0.269-1.418,0.387-2.144,0.354c-0.735-0.022-1.416-0.22-2.045-0.578
	c-0.339-0.179-0.741-0.511-1.195-1.003c-0.457-0.492-0.677-1.183-0.677-2.077h-8.835c0,1.965,0.521,3.776,1.569,5.426
	c1.035,1.654,2.511,3.01,4.383,4.045c1.087,0.601,2.225,1.035,3.426,1.322c1.201,0.281,2.415,0.422,3.63,0.422
	c0.945,0,1.888-0.083,2.824-0.243c0.939-0.166,1.859-0.428,2.761-0.779c2.287-0.9,4.08-2.211,5.374-3.937
	c1.304-1.726,1.952-3.636,1.952-5.719c0-2.118-0.648-4.042-1.952-5.765C315.174,308.934,313.381,307.62,311.094,306.726"/>
<path fill="#69318E" d="M331.21,303.735c0.907-0.869,1.93-1.515,3.073-1.943c1.145-0.435,2.313-0.654,3.502-0.654
	c1.186,0,2.358,0.22,3.521,0.654c1.156,0.429,2.191,1.074,3.096,1.943l5.592-5.317c-1.69-1.616-3.588-2.817-5.703-3.62
	c-2.115-0.808-4.275-1.207-6.48-1.207c-2.211,0-4.377,0.399-6.505,1.207c-2.135,0.803-4.045,2.004-5.729,3.62
	c-1.633,1.547-2.879,3.311-3.735,5.295c-0.862,1.98-1.297,4.086-1.297,6.323c0,2.211,0.435,4.294,1.297,6.281
	c0.856,1.981,2.103,3.767,3.735,5.336c1.684,1.613,3.588,2.812,5.696,3.604c2.122,0.79,4.285,1.183,6.512,1.183
	c2.25,0,4.422-0.393,6.521-1.183c2.1-0.792,3.997-1.99,5.688-3.604l-5.592-5.358c-0.904,0.866-1.939,1.512-3.096,1.946
	c-1.163,0.428-2.336,0.646-3.521,0.646c-1.188,0-2.357-0.218-3.502-0.646c-1.144-0.435-2.166-1.08-3.073-1.946
	c-0.876-0.866-1.547-1.831-2.02-2.885c-0.467-1.055-0.703-2.186-0.703-3.374s0.236-2.32,0.703-3.4
	C329.663,305.565,330.334,304.598,331.21,303.735"/>
<path fill="#69318E" d="M380.581,298.438c-1.572-1.477-3.4-2.646-5.496-3.508c-2.096-0.863-4.326-1.298-6.71-1.298
	c-2.37,0-4.604,0.435-6.703,1.298c-2.096,0.862-3.911,2.031-5.464,3.508c-1.54,1.473-2.773,3.214-3.681,5.208
	c-0.907,1.997-1.361,4.125-1.361,6.391c0,2.262,0.454,4.396,1.361,6.396c0.907,1.993,2.141,3.729,3.681,5.201
	c1.553,1.482,3.368,2.64,5.464,3.512c2.1,0.859,4.333,1.294,6.703,1.294c2.384,0,4.614-0.435,6.71-1.294
	c2.096-0.872,3.924-2.029,5.496-3.512c1.553-1.473,2.792-3.208,3.693-5.201c0.914-2,1.367-4.135,1.367-6.396
	c0-2.266-0.453-4.394-1.367-6.391C383.373,301.651,382.134,299.91,380.581,298.438 M376.977,313.477c-0.485,1.07-1.15,2.017-2,2.818
	c-0.841,0.806-1.828,1.438-2.952,1.901c-1.131,0.46-2.326,0.69-3.617,0.69s-2.492-0.23-3.62-0.69
	c-1.128-0.464-2.115-1.096-2.962-1.901c-0.837-0.802-1.508-1.748-1.993-2.818c-0.486-1.07-0.726-2.214-0.726-3.44
	c0-1.221,0.239-2.368,0.726-3.438c0.485-1.08,1.156-2.013,1.993-2.821c0.847-0.802,1.834-1.438,2.962-1.901
	c1.128-0.453,2.329-0.689,3.62-0.689s2.486,0.236,3.617,0.689c1.124,0.464,2.111,1.1,2.952,1.901c0.85,0.809,1.515,1.741,2,2.821
	c0.485,1.07,0.726,2.218,0.726,3.438C377.702,311.263,377.462,312.406,376.977,313.477"/>
<path fill="#69318E" d="M407.433,313.973c0,0.689-0.128,1.322-0.377,1.923c-0.253,0.588-0.61,1.118-1.083,1.56
	c-0.464,0.45-1.01,0.812-1.64,1.08c-0.629,0.262-1.284,0.396-1.972,0.396c-1.415,0-2.629-0.46-3.664-1.383
	c-1.035-0.981-1.553-2.128-1.553-3.444v-20.472h-7.934v20.522c0.035,1.696,0.38,3.284,1.058,4.776
	c0.671,1.495,1.636,2.831,2.885,4.022c1.224,1.135,2.617,2.004,4.183,2.617c1.563,0.607,3.224,0.914,4.978,0.914h0.141
	c1.783-0.025,3.464-0.377,5.049-1.048c1.578-0.671,2.952-1.572,4.134-2.703c1.176-1.135,2.097-2.461,2.768-3.981
	c0.677-1.521,0.993-3.125,0.965-4.831v-20.289h-7.937V313.973z"/>
<polygon fill="#69318E" points="418.935,301.093 427.817,301.093 427.817,326.484 435.76,326.484 435.76,301.093 444.688,301.093 
	444.688,293.543 418.935,293.543 "/>
<polygon fill="#69318E" points="251.971,165.25 232.494,165.25 211.641,190.943 226.736,203.273 232.494,196.128 232.494,250.048 
	251.971,250.048 "/>
<polygon fill="#69318E" points="303.815,165.25 284.344,165.25 263.489,190.943 278.58,203.273 284.344,196.128 284.344,250.048 
	303.815,250.048 "/>
<path fill="#69318E" d="M407.068,244.226c0,1.653,0.511,3.008,1.559,4.066c1.1,1.176,2.55,1.756,4.353,1.756h4.729v-4.278h-2.205
	c-1.118,0-1.677-0.521-1.677-1.543v-16.793h3.709v-4.278h-3.709v-12.301h-6.758v12.301h-3.764v4.278h3.764V244.226z"/>
<path fill="#69318E" d="M433.46,222.507h-6.288v-11.78h-6.339v39.321h6.339v-23.251h4.179c1.554,0,2.889,0.556,4.02,1.666
	c1.087,1.146,1.646,2.503,1.646,4.071v17.514h6.33v-17.514c0-2.772-0.972-5.146-2.911-7.109
	C438.508,223.482,436.194,222.507,433.46,222.507"/>
<path fill="#69318E" d="M399.61,207.712c0,23.537-19.087,42.621-42.629,42.621c-23.541,0-42.632-19.084-42.632-42.621
	c0-23.549,19.091-42.637,42.632-42.637C380.523,165.075,399.61,184.163,399.61,207.712"/>
<path fill="#69318E" d="M357.007,240.303c3.732-0.018,9.081-1.392,9.157-1.419c-6.779-10.181-5.527-18.222-4.892-20.912
	c0.543-2.364,1.266-5.312,5.438-15.947c3.678-9.384,1.754-14.306-0.543-16.659c-3.097-3.173-9.129-10.253-9.129-10.253
	s-6.026,7.08-9.125,10.253c-2.294,2.354-4.218,7.28-0.537,16.659c4.17,10.635,4.882,13.583,5.441,15.947
	c0.62,2.69,1.882,10.731-4.898,20.912C347.972,238.898,353.313,240.285,357.007,240.303"/>
<path fill="#FFFFFF" d="M348.572,186.01L348.572,186.01c-1.061,1.078-2.339,3.131-2.339,6.714c0,2.302,0.53,5.245,1.993,8.962
	c4.27,10.875,4.934,13.755,5.483,16.081c0.278,1.238,0.533,2.904,0.533,4.903c0,4.031-1.061,9.448-4.882,15.619
	c1.754,0.398,5.115,1.079,7.646,1.094c2.566-0.016,5.94-0.696,7.72-1.094c-3.828-6.174-4.892-11.588-4.892-15.619
	c0-1.999,0.256-3.665,0.546-4.903c0.544-2.326,1.208-5.207,5.483-16.081c1.457-3.718,1.99-6.66,1.99-8.962
	c0-3.583-1.287-5.636-2.345-6.714c-2.483-2.555-6.79-7.534-8.464-9.486C355.361,178.476,351.058,183.455,348.572,186.01"/>
<polygon fill="#69318E" points="357.052,189.205 353.403,223.533 357.109,236.601 360.815,223.661 "/>
<path fill="#FFFFFF" d="M354.374,223.442c0.077,0.273,1.713,6.029,2.735,9.632c1.029-3.579,2.646-9.232,2.726-9.505
	c-0.032-0.273-1.71-15.626-2.773-25.349C356.032,207.92,354.406,223.173,354.374,223.442"/>
<path fill="#69318E" d="M323.063,211.224c0.865,4.641,4.901,9.967,12.308,9.964c0,0-0.435-5.189,4.972-6.232
	c3.594-0.688,7.003,2.738,6.741,7.005c0.613,4.972-3.981,7.627-7.425,3.773c0.079,0-2.225,3.896,1.214,6.818
	c3.473,2.944,8.479,1.155,10.499-3.388c1-2.232,0.978-3.272,0.955-6.125c-0.01-1.15-2.419-26.989-20.074-24.887
	C327.158,198.763,321.736,204.037,323.063,211.224"/>
<path fill="#FFFFFF" d="M332.363,199.062L332.363,199.062c-2.527,0.305-5.007,1.823-6.655,4.064c-0.939,1.291-1.93,3.265-1.93,5.895
	c0,0.644,0.054,1.318,0.188,2.035c0.809,4.375,4.357,8.78,10.499,9.176c0.191-2.205,1.505-5.371,5.71-6.181
	c1.84-0.35,3.754,0.207,5.259,1.532c1.636,1.449,2.575,3.633,2.575,5.92c0,0.153-0.007,0.307-0.013,0.457
	c0.032,0.307,0.048,0.593,0.048,0.879c0,2.395-1.103,4.399-2.975,5.25c-1.595,0.738-3.425,0.431-5-0.743
	c-0.112,0.447-0.183,0.875-0.183,1.288c0,1.242,0.521,2.326,1.575,3.218c1.262,1.064,2.818,1.452,4.394,1.096
	c1.98-0.455,3.726-2.01,4.687-4.157c0.901-2.029,0.896-2.877,0.873-5.67v-0.07c-0.013-1.749-1.675-14.756-8.531-20.819
	C339.974,199.645,336.431,198.583,332.363,199.062"/>
<path fill="#69318E" d="M390.904,211.224c-0.866,4.641-4.908,9.964-12.305,9.961c0,0,0.441-5.19-4.975-6.229
	c-3.601-0.688-7.014,2.735-6.738,7.012c-0.617,4.965,3.98,7.621,7.422,3.767c-0.073,0,2.228,3.896-1.221,6.818
	c-3.47,2.944-8.47,1.155-10.489-3.385c-1.003-2.235-0.984-3.275-0.965-6.122c0.006-1.154,2.428-26.996,20.078-24.892
	C386.812,198.763,392.224,204.037,390.904,211.224"/>
<path fill="#FFFFFF" d="M381.604,199.062L381.604,199.062c2.53,0.299,5.016,1.82,6.658,4.064c0.939,1.288,1.937,3.265,1.937,5.892
	c0,0.644-0.061,1.321-0.192,2.039c-0.812,4.373-4.364,8.78-10.499,9.176c-0.198-2.205-1.515-5.371-5.706-6.181
	c-1.854-0.35-3.764,0.203-5.26,1.537c-1.642,1.449-2.588,3.628-2.588,5.913c0,0.156,0,0.307,0.02,0.46
	c-0.032,0.299-0.058,0.589-0.058,0.879c0,2.39,1.105,4.399,2.975,5.25c1.607,0.738,3.429,0.431,5.007-0.743
	c0.112,0.447,0.186,0.869,0.186,1.288c0,1.242-0.53,2.326-1.585,3.218c-1.253,1.064-2.809,1.449-4.39,1.096
	c-1.975-0.455-3.726-2.01-4.672-4.157c-0.914-2.029-0.904-2.877-0.888-5.673v-0.067c0.016-1.749,1.687-14.758,8.53-20.822
	C373.999,199.645,377.539,198.583,381.604,199.062"/>
<path fill="#69318E" d="M337.051,207.61c-1.444-0.537-2.026-1.131-2.026-1.131s1.1-0.123,1.448-0.165
	c0.348-0.054,0.709-0.637,0.859-0.92c0.146-0.28-0.173-0.235-0.447-0.219c-0.285,0.029-1.943,0.241-2.141,0.241
	c-0.202,0-0.202-0.022-0.202-0.131c0-0.11-0.149-0.452,0.416-0.741c0.559-0.28,0.859-0.754,0.757-0.954
	c-0.108-0.193-0.741,0.021-1.252,0.107c-0.518,0.093-1.604,0.224-1.927,0.152c-0.323-0.059-0.623-0.123-0.738,0.043
	c-0.103,0.182-0.038,0.35,0.134,0.482c0.18,0.131,0.803,0.169,1.125,0.326c0.316,0.15,0.371,0.874,0.371,0.874
	s-2.492,0.195-2.927,0.214c-0.435,0.016-0.825,0.148-0.838,0.525c-0.025,0.363,0.24,0.43,0.492,0.407
	c0.262-0.022,1.956-0.131,2.253-0.153c0.304-0.021,0.284,0.042,0.169,0.198c-0.108,0.15-0.646,0.479-1.304,0.844
	c-0.646,0.371-1.137,0.461-1.46,0.548c-0.322,0.084-0.565,0.037-0.827,0.214c-0.263,0.173-0.083,0.545,0.46,0.786
	c0.54,0.235,1.259,0.083,1.814-0.262c0.563-0.351,1.879-1.391,2.032-1.522c0.147-0.127,0.135-0.021,0.147,0.063v1.221
	c-0.278-0.02-1.103,0.176-1.253,0.195c-0.146,0.025-0.39-0.019-0.454,0.567c-0.063,0.586,0,1.499,0.09,2.086
	c0.09,0.586,0.288,0.764,0.62,0.957c0.357,0.198,2.23,0.198,2.927,0.153c0.689-0.043,0.904-0.783,1.103-1.741
	c0.194-0.956,0.239-1.521-0.062-1.892c-0.307-0.367-1.975-0.345-1.975-0.345c-0.044-0.244,0.052-0.911,0.052-1.201
	c0-0.28,0.144-0.297,0.313-0.169c0.173,0.129,1.758,1.349,2.316,1.65c0.566,0.307,0.911,0.133,1.026,0
	c0.102-0.133,0.269-0.217,0.523-0.46C338.933,208.222,338.508,208.158,337.051,207.61 M335.434,211.2
	c0.02,0.347-0.277,0.545-0.591,0.633c-0.301,0.083-0.897,0.11-1.512,0.021c-0.597-0.09-0.562-0.371-0.568-0.566
	c-0.028-0.193-0.035-0.329,0.23-0.329c0.063,0,1.578-0.084,2.031-0.105C335.472,210.828,335.415,210.853,335.434,211.2
	 M335.3,209.481c0.131,0.105,0.006,0.524-0.166,0.632c-0.176,0.105-1.233,0.086-1.521,0.061c-0.281-0.019-0.795,0.152-0.878-0.32
	c-0.087-0.48,0.731-0.423,1.313-0.436C334.891,209.393,335.127,209.342,335.3,209.481"/>
<path fill="#69318E" d="M376.057,204.011c-0.364,0.203-0.298,0.344,0,0.764c0.304,0.43,0.945,1.03,1.326,0.709
	c0.383-0.323-0.017-0.748-0.215-0.968C376.957,204.292,376.657,203.664,376.057,204.011"/>
<path fill="#69318E" d="M376.657,206.838c-0.364-0.332-0.454-0.466-0.623-0.626c-0.163-0.158-0.547-0.259-0.802,0.08
	c-0.326,0.433-0.039,0.892,0.578,1.235c0.629,0.349,1.319,0.631,1.53,0.227C377.571,207.35,376.868,207.024,376.657,206.838"/>
<path fill="#69318E" d="M376.577,209.27c0.246,0.139,0.15,0.725-0.093,1.131c-0.249,0.404-0.751,1.358-1.131,1.091
	c-0.377-0.262-0.377-0.623-0.345-0.887c0.063-0.406,0.102-0.447,0.303-0.61c0.202-0.158,0.723-0.435,0.847-0.586
	C376.344,209.188,376.577,209.27,376.577,209.27"/>
<path fill="#69318E" d="M385.204,208.463c-0.467-0.15-2.604-0.852-2.719-1.454c0,0,0.913,0.039,1.188-0.021
	c0.255-0.058,0.639-0.511,0.696-0.776c0.048-0.264,0.108-0.32-0.218-0.32c-0.313,0-1.294-0.042-1.367-0.042
	c-0.076,0-0.37-0.011-0.332-0.474c0.006-0.3,0.236-0.3,0.387-0.321c0.156-0.018,0.642-0.018,0.661-0.435
	c0.016-0.417-0.326-0.318-0.457-0.318h-0.47c0,0-0.191,0-0.191-0.246c0-0.251-0.013-0.701-0.013-0.701s0.051-0.23-0.454-0.23
	c-0.511,0-0.409,0.281-0.409,0.487c0,0.212,0.017,0.607,0.017,0.607s0.019,0.196-0.166,0.231c-0.25,0.048-0.914,0.089-0.914,0.089
	l-0.138-0.07c0,0,0.058-0.665,0-0.845c-0.061-0.182-0.281-0.328-0.565-0.408c-0.281-0.077-0.604-0.163-0.655,0.184
	c-0.031,0.347,0.115,1.171,0.115,1.171l-0.563,0.067c-0.089,0.016-0.227,0.139-0.227,0.297c0,0.166-0.02,0.348,0.08,0.388
	c0.108,0.038,0.284,0.019,0.447,0.019c0.146,0,0.377-0.04,0.377,0.077v0.588c0,0-0.824,0.126-1.01,0.147
	c-0.173,0.018-0.335,0.136-0.335,0.481s0.303,0.262,0.421,0.262h0.547c0,0,0.134-0.074,0.058,0.208
	c-0.083,0.283-0.198,0.861-0.927,1.47c-0.729,0.612-1.007,0.732-1.029,0.877c-0.016,0.138,0.022,0.358,0.23,0.542
	c0.195,0.186,0.454,0.285,0.895,0c0.441-0.286,0.949-0.843,1.15-1.374c0,0,0.038-0.08,0.061,0.123
	c0.022,0.203,0.083,1.594,0.144,2.021c0.064,0.427,0.097,0.546,0.368,0.667c0.259,0.125,1.702,0.484,2.648,0.484
	c0.945,0,1.09-0.037,1.204-0.521c0.125-0.487-0.277-0.549-0.518-0.549c-0.246,0-2.019-0.058-2.399-0.141
	c-0.38-0.082-0.476-0.082-0.476-0.24v-0.391c0,0,0.865-0.133,1.176-0.184c0.304-0.062,0.277-0.097,0.45-0.48
	c0.17-0.373,0.396-1.096,0.396-1.363c0,0,1.559,1.497,1.754,1.692c0.188,0.187,0.419,0.283,0.56,0.167
	c0.153-0.113,0.802-0.779,0.85-0.989C385.584,208.711,385.68,208.615,385.204,208.463 M380.318,205.286l0.984-0.019
	c0.125,0,0.221,0.019,0.221,0.188c0,0.171,0.019,0.53-0.08,0.545c-0.086,0.022-0.831,0.118-0.968,0.042
	c-0.157-0.074-0.291-0.208-0.304-0.436C380.146,205.377,380.197,205.321,380.318,205.286 M381.213,209.037
	c-0.057,0.09-0.466,0.075-0.651,0.075c-0.188,0-0.243,0.015-0.278-0.101l-0.061-0.583l0.15-0.094h0.783l0.185,0.19L381.213,209.037z
	 M381.507,207.573c-0.28,0.031-1.565-0.016-1.565-0.016l0.243-0.761c0.099-0.131,0.319-0.169,0.601-0.147
	c0.371,0.022,0.607,0.091,0.722,0.24c0.109,0.158,0.358,0.418,0.336,0.494C381.805,207.518,381.695,207.558,381.507,207.573"/>
<path fill="#69318E" d="M371.65,221.924c0,1.594-1.288,2.89-2.879,2.89h-23.445c-1.585,0-2.879-1.296-2.879-2.89
	c0-1.596,1.294-2.893,2.879-2.893h23.445C370.362,219.031,371.65,220.328,371.65,221.924"/>
<path fill="#FFFFFF" d="M345.326,219.948c-1.083,0-1.959,0.885-1.959,1.976c0,1.083,0.876,1.97,1.959,1.97h23.445
	c1.09,0,1.969-0.887,1.969-1.97c0-1.091-0.879-1.976-1.969-1.976H345.326z"/>
<polygon fill="#69318E" points="347.301,223.305 346.897,223.305 346.897,222.066 345.633,222.066 345.633,223.305 345.23,223.305 
	345.23,220.624 345.633,220.624 345.633,221.718 346.897,221.718 346.897,220.624 347.301,220.624 "/>
<path fill="#69318E" d="M350.131,222.36l-0.089,0.231l-0.259,0.275c-0.138,0.085-0.278,0.128-0.432,0.128
	c-0.243,0-0.432-0.077-0.581-0.241c-0.173-0.181-0.263-0.447-0.263-0.795c0-0.358,0.09-0.634,0.269-0.805
	c0.147-0.152,0.332-0.233,0.575-0.233c0.253,0,0.454,0.101,0.604,0.278c0.15,0.182,0.221,0.438,0.221,0.752
	C350.176,222.102,350.163,222.244,350.131,222.36 M350.281,220.967c-0.233-0.262-0.54-0.395-0.93-0.395
	c-0.418,0-0.741,0.144-0.965,0.428c-0.191,0.257-0.294,0.569-0.294,0.949c0,0.42,0.112,0.751,0.332,1.011
	c0.214,0.256,0.524,0.387,0.914,0.387c0.402,0,0.709-0.131,0.942-0.396c0.214-0.251,0.323-0.582,0.323-0.994
	C350.604,221.552,350.495,221.223,350.281,220.967"/>
<polygon fill="#69318E" points="353.228,223.305 352.818,223.305 351.62,221.412 351.565,221.293 351.534,221.317 351.547,221.517 
	351.547,223.305 351.173,223.305 351.173,220.624 351.582,220.624 352.688,222.393 352.79,222.557 352.841,222.677 352.869,222.637 
	352.854,222.32 352.854,220.624 353.228,220.624 "/>
<path fill="#69318E" d="M356.454,222.934c-0.149,0.131-0.316,0.23-0.518,0.298c-0.188,0.079-0.387,0.115-0.594,0.115
	c-0.406,0-0.719-0.131-0.962-0.387c-0.227-0.257-0.345-0.586-0.345-1c0-0.35,0.079-0.66,0.259-0.902
	c0.232-0.323,0.571-0.486,1.031-0.486c0.601,0,0.965,0.257,1.093,0.776l-0.39,0.082c-0.051-0.184-0.153-0.319-0.3-0.407
	c-0.109-0.066-0.243-0.104-0.403-0.104c-0.325,0-0.556,0.123-0.709,0.359c-0.115,0.171-0.173,0.388-0.173,0.646
	c0,0.328,0.07,0.57,0.201,0.757c0.157,0.204,0.381,0.313,0.681,0.313c0.166,0,0.313-0.034,0.467-0.109l0.256-0.169v-0.446h-0.7
	v-0.347h1.105V222.934z"/>
<polygon fill="#69318E" points="360.471,223.305 359.943,223.305 359.059,222.001 358.675,222.417 358.675,223.305 358.266,223.305 
	358.266,220.624 358.675,220.624 358.675,221.95 359.851,220.624 360.365,220.624 359.336,221.718 "/>
<path fill="#69318E" d="M362.912,222.36l-0.083,0.231l-0.259,0.275c-0.132,0.085-0.272,0.128-0.432,0.128
	c-0.233,0-0.429-0.077-0.575-0.241c-0.186-0.181-0.269-0.447-0.269-0.795c0-0.358,0.09-0.634,0.269-0.805
	c0.146-0.152,0.342-0.233,0.575-0.233c0.256,0,0.46,0.101,0.604,0.278c0.15,0.182,0.23,0.438,0.23,0.752
	C362.973,222.102,362.947,222.244,362.912,222.36 M363.071,220.967c-0.227-0.262-0.54-0.395-0.933-0.395
	c-0.412,0-0.735,0.144-0.959,0.428c-0.201,0.257-0.3,0.569-0.3,0.949c0,0.42,0.115,0.751,0.332,1.011
	c0.221,0.256,0.53,0.387,0.914,0.387c0.405,0,0.719-0.131,0.945-0.396c0.211-0.251,0.326-0.582,0.326-0.994
	C363.397,221.552,363.282,221.223,363.071,220.967"/>
<polygon fill="#69318E" points="366.015,223.305 365.608,223.305 364.407,221.412 364.347,221.293 364.324,221.317 364.343,221.517 
	364.343,223.305 363.966,223.305 363.966,220.624 364.375,220.624 365.475,222.393 365.57,222.557 365.634,222.677 365.656,222.637 
	365.646,222.32 365.646,220.624 366.015,220.624 "/>
<path fill="#69318E" d="M369.244,222.934c-0.146,0.131-0.316,0.23-0.514,0.298c-0.189,0.079-0.391,0.115-0.592,0.115
	c-0.409,0-0.729-0.131-0.971-0.387c-0.23-0.257-0.352-0.586-0.352-1c0-0.35,0.089-0.66,0.269-0.902
	c0.224-0.323,0.575-0.486,1.035-0.486c0.601,0,0.965,0.257,1.089,0.776l-0.393,0.082c-0.055-0.184-0.153-0.319-0.301-0.407
	c-0.108-0.066-0.239-0.104-0.396-0.104c-0.329,0-0.557,0.123-0.71,0.359c-0.115,0.171-0.176,0.388-0.176,0.646
	c0,0.328,0.07,0.57,0.208,0.757c0.15,0.204,0.38,0.313,0.678,0.313c0.163,0,0.307-0.034,0.46-0.109l0.256-0.169v-0.446h-0.69v-0.347
	h1.099V222.934z"/>
<path fill="#69318E" d="M238.168,355.835c-0.564,0-1.115-0.077-1.667-0.23s-1.08-0.39-1.572-0.709
	c-0.863-0.563-1.534-1.285-2.02-2.173c-0.476-0.882-0.712-1.854-0.712-2.914h4.045c0,0.485,0.109,0.862,0.319,1.118
	c0.206,0.269,0.39,0.444,0.55,0.543c0.291,0.186,0.601,0.298,0.936,0.313c0.331,0.013,0.658-0.051,0.978-0.191
	c0.225-0.103,0.414-0.221,0.542-0.364c0.137-0.145,0.241-0.285,0.313-0.422c0.073-0.131,0.122-0.266,0.126-0.396
	c0.021-0.128,0.031-0.23,0.031-0.313c0-0.076-0.01-0.179-0.031-0.307c-0.004-0.128-0.053-0.255-0.126-0.408
	c-0.072-0.141-0.176-0.288-0.313-0.416c-0.128-0.141-0.316-0.262-0.542-0.377c-0.171-0.08-0.363-0.146-0.555-0.217
	c-0.206-0.064-0.418-0.132-0.641-0.211c-0.401-0.131-0.818-0.271-1.248-0.429c-0.43-0.166-0.863-0.377-1.299-0.658
	c-0.556-0.348-1.025-0.779-1.416-1.316c-0.38-0.523-0.658-1.093-0.823-1.699c-0.171-0.607-0.222-1.237-0.171-1.882
	c0.059-0.643,0.238-1.269,0.543-1.856c0.287-0.55,0.648-1.017,1.077-1.419c0.435-0.402,0.912-0.722,1.444-0.945
	c0.526-0.23,1.085-0.371,1.7-0.416c0.602-0.051,1.22,0.004,1.847,0.166c0.605,0.141,1.155,0.364,1.648,0.678
	c0.492,0.313,0.919,0.69,1.275,1.134c0.358,0.432,0.629,0.927,0.824,1.474c0.189,0.543,0.285,1.108,0.285,1.699h-4.032
	c0-0.367-0.117-0.619-0.345-0.767c-0.236-0.144-0.439-0.243-0.615-0.287c-0.033,0-0.108-0.013-0.228-0.039
	c-0.117-0.025-0.256-0.025-0.404,0c-0.153,0.026-0.316,0.08-0.471,0.173c-0.158,0.083-0.288,0.23-0.384,0.415
	c-0.132,0.256-0.153,0.524-0.07,0.806c0.08,0.274,0.235,0.502,0.476,0.658c0.227,0.128,0.475,0.249,0.745,0.352
	c0.281,0.102,0.563,0.204,0.871,0.294c0.265,0.086,0.539,0.172,0.821,0.269c0.283,0.096,0.563,0.211,0.847,0.335
	c1.046,0.477,1.874,1.186,2.468,2.112s0.893,1.955,0.893,3.086c0,1.122-0.299,2.141-0.893,3.071
	c-0.594,0.93-1.422,1.639-2.468,2.111c-0.416,0.192-0.839,0.333-1.264,0.422C239.026,355.79,238.6,355.835,238.168,355.835"/>
<rect x="246.536" y="337.871" fill="#69318E" width="4.055" height="17.631"/>
<polygon fill="#69318E" points="263.854,337.891 267.902,337.891 267.902,355.502 263.519,355.502 257.761,345.233 257.761,355.502 
	253.703,355.502 253.703,337.941 258.118,337.941 263.854,348.188 "/>
<path fill="#69318E" d="M278.459,355.471c-1.145,0-2.246-0.208-3.323-0.633c-1.086-0.429-2.058-1.067-2.921-1.93
	c-0.827-0.851-1.463-1.809-1.91-2.869c-0.432-1.062-0.651-2.186-0.651-3.368c0-1.201,0.22-2.329,0.651-3.399
	c0.447-1.055,1.083-2,1.91-2.844c0.863-0.854,1.835-1.499,2.927-1.937c1.093-0.428,2.198-0.646,3.33-0.646
	c1.124,0,2.229,0.218,3.304,0.646c1.073,0.438,2.058,1.083,2.907,1.937l-2.844,2.856c-0.467-0.454-0.993-0.806-1.585-1.035
	c-0.594-0.236-1.191-0.352-1.795-0.352c-0.614,0-1.208,0.115-1.79,0.352c-0.581,0.229-1.111,0.581-1.565,1.035
	c-0.453,0.47-0.799,0.987-1.041,1.563c-0.236,0.578-0.358,1.191-0.358,1.824c0,0.639,0.122,1.243,0.358,1.812
	c0.242,0.565,0.588,1.077,1.041,1.547c0.454,0.463,0.984,0.814,1.565,1.038c0.582,0.236,1.176,0.357,1.79,0.357
	c0.604,0,1.201-0.121,1.795-0.357c0.592-0.224,1.118-0.575,1.585-1.038l2.844,2.879c-0.85,0.862-1.821,1.501-2.897,1.93
	C280.714,355.263,279.603,355.471,278.459,355.471"/>
<polygon fill="#69318E" points="297.642,341.942 290.396,341.942 290.396,344.61 296.271,344.61 296.271,348.665 290.396,348.665 
	290.396,351.438 297.642,351.438 297.642,355.502 286.351,355.502 286.351,337.923 297.642,337.891 "/>
<polygon fill="#69318E" points="309.579,337.846 313.637,337.846 313.637,355.502 309.579,355.502 309.579,344.271 308.391,345.757 
	305.24,343.191 "/>
<path fill="#69318E" d="M322.123,350.582c-0.806-0.08-1.547-0.301-2.249-0.662c-0.703-0.36-1.323-0.82-1.834-1.377
	c-0.524-0.563-0.931-1.211-1.228-1.942c-0.294-0.734-0.447-1.521-0.447-2.352c0-0.882,0.173-1.706,0.508-2.479
	c0.336-0.779,0.789-1.45,1.364-2.032c0.575-0.575,1.253-1.035,2.026-1.361c0.773-0.345,1.61-0.505,2.485-0.505
	c0.882,0,1.7,0.16,2.467,0.505c0.773,0.326,1.438,0.786,2.02,1.361c0.571,0.582,1.028,1.253,1.361,2.032
	c0.345,0.773,0.505,1.598,0.505,2.479c0,0.942-0.198,1.854-0.602,2.731l-4.313,8.521h-4.537L322.123,350.582z M322.749,341.923
	c-0.319,0-0.62,0.064-0.9,0.179c-0.281,0.122-0.531,0.288-0.745,0.499c-0.217,0.22-0.38,0.466-0.508,0.747
	c-0.112,0.285-0.179,0.582-0.179,0.901s0.066,0.62,0.179,0.895c0.128,0.284,0.291,0.53,0.508,0.735
	c0.214,0.211,0.464,0.373,0.745,0.498c0.28,0.115,0.581,0.173,0.9,0.173c0.633,0,1.183-0.218,1.63-0.671
	c0.447-0.447,0.671-0.994,0.671-1.63c0-0.319-0.061-0.616-0.179-0.901c-0.122-0.281-0.288-0.527-0.492-0.747
	c-0.211-0.211-0.447-0.377-0.735-0.499C323.369,341.987,323.063,341.923,322.749,341.923"/>
<polygon fill="#69318E" points="335.037,337.846 339.089,337.846 339.089,355.502 335.037,355.502 335.037,344.271 333.836,345.757 
	330.695,343.191 "/>
<polygon fill="#69318E" points="346.547,337.846 350.598,337.846 350.598,355.502 346.547,355.502 346.547,344.271 345.345,345.757 
	342.201,343.191 "/>
</svg>
