<?xml version="1.0" encoding="utf-8"?>
<!-- Generator: Adobe Illustrator 16.0.0, SVG Export Plug-In . SVG Version: 6.00 Build 0)  -->
<!DOCTYPE svg PUBLIC "-//W3C//DTD SVG 1.1//EN" "http://www.w3.org/Graphics/SVG/1.1/DTD/svg11.dtd">
<svg version="1.1" id="圖層_2" xmlns="http://www.w3.org/2000/svg" xmlns:xlink="http://www.w3.org/1999/xlink" x="0px" y="0px"
	 width="500px" height="500px" viewBox="0 0 500 500" enable-background="new 0 0 500 500" xml:space="preserve">
<rect x="1" y="-1" fill="#69318E" width="500.512" height="503.294"/>
<rect x="30.53" y="27.876" fill="#FFFFFF" width="441.453" height="447.393"/>
<g>
	<path fill-rule="evenodd" clip-rule="evenodd" fill="#FFFFFF" d="M249.837,199.355c-0.599,2.189-0.634,4.438-0.914,6.655
		c-0.351,2.907-0.491,5.807-0.933,8.698c-0.264,1.794-0.315,3.628-0.507,5.44c-0.317,2.848-0.563,5.729-0.917,8.593
		c-0.227,1.862-0.365,3.788-0.542,5.678c-0.281,2.853-0.6,5.718-0.914,8.584c-0.195,1.87-0.353,3.778-0.547,5.675
		c-0.262,2.868-0.7,5.722-0.893,8.587c-0.158,1.888-0.372,3.786-0.563,5.677c-0.281,2.865-0.687,5.729-0.916,8.584
		c-0.122,1.911-0.315,3.777-0.508,5.689c-0.353,2.845-0.581,5.728-0.916,8.572c-0.212,1.815-0.349,3.64-0.544,5.451
		c-0.301,2.941-0.492,5.905-0.933,8.82c-0.28,1.806-0.317,3.621-0.524,5.442c-0.301,2.935-0.475,5.895-0.935,8.836
		c-0.122,0.767,0.303,1.863-0.384,2.24c-0.667,0.389-1.706,0.16-2.586,0.16c-1.247,0-2.494-0.045-3.739,0.007
		c-0.6,0.013-0.882-0.097-0.827-0.778c0.263-1.95,0.475-3.913,0.686-5.863c0.193-1.731,0.369-3.469,0.544-5.194
		c0.334-2.741,0.544-5.499,0.914-8.212c0.229-1.689,0.351-3.386,0.545-5.081c0.297-2.745,0.491-5.487,0.93-8.235
		c0.282-1.73,0.336-3.521,0.512-5.307c0.315-2.671,0.595-5.325,0.913-7.986c0.227-1.761,0.368-3.551,0.543-5.319
		c0.301-2.732,0.703-5.456,0.948-8.206c0.124-1.696,0.319-3.391,0.515-5.08c0.317-2.741,0.542-5.5,0.893-8.225
		c0.228-1.677,0.388-3.373,0.529-5.07c0.262-2.75,0.543-5.49,0.965-8.217c0.262-1.765,0.299-3.559,0.507-5.324
		c0.302-2.732,0.687-5.475,0.937-8.225c0.121-1.686,0.296-3.374,0.508-5.072c0.333-2.742,0.545-5.474,0.914-8.215
		c0.21-1.686,0.351-3.392,0.527-5.08c0.314-2.732,0.56-5.472,0.93-8.225c0.211-1.668,0.369-3.382,0.508-5.07
		c0.282-2.742,0.615-5.493,0.934-8.224c0.208-1.765,0.351-3.549,0.547-5.316c0.296-2.744,0.702-5.466,0.911-8.233
		c0.14-1.682,0.353-3.377,0.529-5.063c0.315-2.742,0.544-5.492,0.911-8.224c0.23-1.607,0.386-3.208,0.513-4.835
		c0.209-2.388,0.472-4.769,0.93-7.144c0.246,2.698,0.491,5.406,0.789,8.103c0.281,2.497,0.722,4.991,0.935,7.495
		c0.14,1.696,0.349,3.385,0.507,5.071c0.265,2.749,0.529,5.492,0.947,8.233c0.266,1.714,0.336,3.455,0.512,5.184
		c0.301,2.707,0.597,5.405,0.914,8.103c0.194,1.773,0.333,3.561,0.564,5.324c0.295,2.742,0.665,5.467,0.895,8.217
		c0.126,1.697,0.333,3.383,0.526,5.071c0.317,2.73,0.703,5.472,0.915,8.224c0.141,1.702,0.334,3.374,0.546,5.07
		c0.313,2.743,0.562,5.492,0.912,8.243c0.213,1.661,0.354,3.358,0.544,5.072c0.3,2.74,0.529,5.472,0.899,8.215
		c0.227,1.635,0.387,3.295,0.544,4.937c0.244,2.795,0.579,5.572,0.93,8.341c0.195,1.651,0.354,3.312,0.512,4.975
		c0.245,2.774,0.526,5.569,0.931,8.328c0.262,1.725,0.336,3.456,0.525,5.204c0.301,2.698,0.579,5.392,0.898,8.101
		c0.211,1.725,0.353,3.463,0.544,5.185c0.297,2.719,0.6,5.416,0.897,8.093c0.23,1.726,0.351,3.476,0.545,5.214
		c0.317,2.786,0.72,5.554,0.948,8.337c0.14,1.661,0.317,3.306,0.512,4.946c0.331,2.787,0.542,5.573,0.912,8.36
		c0.14,0.972,0.281,1.95,0.317,2.961c0.019,0.518-0.159,0.676-0.688,0.676c-1.968-0.036-3.953-0.036-5.919-0.01
		c-0.936,0.016-0.827-0.718-0.882-1.204c-0.282-2.803-0.438-5.615-0.772-8.401c-0.475-3.927-0.792-7.862-1.231-11.798
		c-0.229-2.304-0.455-4.634-0.703-6.938c-0.333-3.418-0.808-6.829-1.176-10.221c-0.229-2.021-0.281-4.028-0.512-6.05
		c-0.262-2.69-0.632-5.38-0.949-8.093c-0.193-1.821-0.317-3.622-0.491-5.441c-0.297-2.872-0.719-5.694-0.913-8.586
		c-0.123-1.828-0.353-3.638-0.544-5.438c-0.283-2.856-0.547-5.729-0.898-8.585c-0.229-1.828-0.334-3.691-0.544-5.546
		c-0.301-2.906-0.632-5.807-0.947-8.717c-0.196-1.765-0.318-3.546-0.51-5.314c-0.268-2.911-0.599-5.801-0.898-8.702
		c-0.212-1.739-0.353-3.467-0.544-5.202C250.012,201.631,249.941,200.499,249.837,199.355z"/>
	<path fill-rule="evenodd" clip-rule="evenodd" fill="#FFFFFF" d="M107.289,243.697c-2.182,1.637-4.097,3.244-6.011,4.888
		c-2.97,2.566-5.677,5.516-9.21,7.317c-3.41,1.724-7.031,2.146-10.754,1.115c-1.392-0.366-2.235-1.379-2.848-2.599
		c-0.421-0.773,0.508-2.103,1.773-2.443c1.406-0.396,2.829-0.774,4.29-0.968c1.986-0.262,3.762-1.018,5.518-1.829
		c2.304-1.044,4.605-2.088,6.766-3.39c2.83-1.706,5.521-3.681,8.264-5.527c0.121-0.097,0.262-0.148,0.718-0.386
		c-1.141,0-2.003-0.063-2.829,0.016c-2.125,0.187-4.235,0.457-6.343,0.705c-2.005,0.227-4.009,0.412-5.997,0.748
		c-1.686,0.28-3.374,0.489-5.062,0.455c-1.474-0.009-2.421-1.073-2.212-2.529c0.264-1.952,2.671-3.438,4.692-3.137
		c1.688,0.251,3.48,0.262,5.186,0.042c1.668-0.201,3.321-0.262,4.972-0.368c2.655-0.177,5.274-0.589,7.911-0.766
		c0.28-0.018,0.369-0.111,0.438-0.404c0.423-1.908-0.648-5.017-2.374-5.87c-1.247-0.631-2.726-0.845-4.149-0.999
		c-0.822-0.09-1.595-0.319-2.336-0.679c-0.806-0.376-1.068-1.01-1.281-1.729c-0.212-0.775,0.386-1.434,1.229-1.443
		c2.619-0.069,5.202,0.457,7.804,0.221c4.445-0.396,8.896-0.817,13.198-2.145c0.88-0.272,1.846-0.747,2.444,0.545
		c0.439,0.993,0.158,2.241-0.774,2.935c-1.915,1.467-3.886,2.883-5.994,4.077c-0.315,0.177-0.545,0.334-0.528,0.79
		c0.053,1.284,0.016,2.56,0.016,3.86c1.355-0.151,2.62-0.282,3.923-0.378c2.935-0.236,5.87-0.623,8.769-1.15
		c1.089-0.169,2.179-0.405,3.305-0.317c1.314,0.123,1.739,0.747,1.438,2c-0.262,1.03-0.825,1.725-1.704,2.262
		c-0.983,0.581-1.863,1.342-2.761,2.003c-0.438,0.323-0.964,0.457-1.511,0.536c-2.301,0.273-4.554,0.219-6.833,0.219
		c-0.793,0-1.583-0.081-2.391,0.343c0.826,1.221,2.14,1.917,3.27,2.779c2.882,2.257,6.449,3.225,9.628,4.867
		c3.395,1.767,7.05,2.627,10.669,3.61c0.914,0.255,1.088,0.812,0.477,1.414c-1.582,1.495-3.13,3.043-5.239,3.808
		c-2.091,0.764-3.971,0.266-5.659-0.871c-1.828-1.23-3.48-2.679-5.255-3.99c-3.128-2.318-6.257-4.623-9.192-7.213
		c-0.421-0.405-1.245-1.117-1.229,0.402c0,0.23-0.211,0.475-0.193,0.774c0.158,2.647-0.244,5.281-0.264,7.917
		c0,0.729,0.159,0.968,0.912,0.931c3.043-0.104,6.029,0.1,9,0.681c2.231,0.453,3.321,1.799,3.638,4.215
		c0.28,2.322-0.353,4.57-0.737,6.812c-0.439,2.611-0.896,5.23-1.917,7.689c-0.595,1.493-1.319,2.94-2.373,4.138
		c-0.845,0.924-1.933,1.036-3.041,0.817c-1.809-0.38-3.638-0.589-5.462-0.393c-2.232,0.199-4.414,0.534-6.646,0.419
		c-2.196-0.106-4.412-0.193-6.4-1.301c-1.718-0.965-2.529-2.681-2.878-4.479c-0.422-2.304-0.422-4.666-0.581-6.997
		c-0.104-1.933-0.069-3.839-0.194-5.737c-0.069-1.027,0.21-1.978,0.299-2.963c0.108-1.186,1.125-1.906,2.533-1.931
		c2.547-0.072,5.026-0.608,7.558-0.721c0.719-0.039,0.528-0.512,0.528-0.845C107.289,250.323,107.289,247.099,107.289,243.697z"/>
	<path fill-rule="evenodd" clip-rule="evenodd" fill="#FFFFFF" d="M403.142,245.341c2.177,3.857,5.659,5.588,9.316,7.1
		c3.921,1.634,7.963,2.829,11.985,4.121c0.701,0.219,1.002,0.492,0.544,1.361c-0.563,1.029-1.438,1.635-2.232,2.391
		c-1.407,1.292-2.706,2.697-3.986,4.146c-0.985,1.126-1.848,1.101-2.901,0.063c-2.495-2.398-4.922-4.831-7.488-7.16
		c-1.195-1.1-2.391-2.197-3.514-3.385c-0.493-0.473-0.565-0.404-0.792,0.266c-0.808,2.299-1.458,4.656-2.09,7.02
		c-0.159,0.608-0.459,1.152-0.616,1.739c-0.474,1.804-2.108,1.634-3.443,1.724c-1.935,0.14-3.868,0.271-5.783,0.484
		c-0.475,0.069-0.703,0.323-0.74,0.597c-0.122,1.115-0.281,2.243,0.055,3.331c0.439,1.287,1.687,1.261,2.742,1.412
		c3.514,0.486,7.063,0.28,10.579,0.223c1.67-0.052,3.305-0.151,4.938,0.013c2.776,0.251,3.092,1.635,2.707,3.553
		c-0.457,2.284-1.106,2.436-3.232,2.478c-4.324,0.142-8.649-0.341-12.955-0.904c-2.494-0.318-4.937-0.679-7.327-1.458
		c-1.511-0.482-2.23-1.583-2.618-2.902c-0.231-0.85-0.317-1.773-0.317-2.703c0.036-3.245,0.141-6.495-0.231-9.71
		c-0.122-0.845-0.225-1.716-0.294-2.885c-0.739,1.039-1.319,1.847-1.865,2.664c-1.563,2.355-3.043,4.745-5.604,6.273
		c-1.479,0.914-3.06,1.162-4.729,1.003c-1.213-0.133-1.742-1.196-1.934-2.19c-0.246-1.098-0.193-2.266,0.932-3.002
		c2.373-1.53,4.569-3.305,6.746-5.107c0.813-0.695,1.546-1.608,2.06-2.558c1.162-2.116,2.267-4.237,3.058-6.52
		c0.314-0.914,0.262-1.204-0.757-1.178c-1.704,0.055-3.39,0.169-5.078,0.5c-0.841,0.175-1.776-0.5-2.075-1.45
		c-0.298-0.924-0.106-1.81,0.388-2.583c0.386-0.632,1.073-0.317,1.617-0.282c2.249,0.116,4.482-0.421,6.713-0.264
		c0.476,0.035,0.616-0.158,0.616-0.625c-0.036-1.371-0.036-2.732,0-4.093c0-0.484-0.178-0.642-0.635-0.606
		c-1.298,0.14-2.637-0.237-3.919,0.219c-0.158,0.043-0.387-0.061-0.544-0.122c-1.317-0.502-1.284-1.598-1.178-2.681
		c0.07-0.88,0.632-1.152,1.511-1.335c0.88-0.15,1.727-0.222,2.584-0.15c0.842,0.036,1.019-0.281,0.967-1.019
		c-0.175-2.1-0.37-4.149-0.843-6.204c-0.317-1.45,0.034-1.987,1.511-1.994c1.97-0.035,3.638,0.814,5.307,1.667
		c0.564,0.29,0.527,0.819,0.527,1.31c0,1.731,0.018,3.464-0.018,5.202c0,0.518,0.089,0.819,0.72,0.756
		c2.286-0.177,4.59-0.333,6.891-0.473c0.635-0.045,0.353-0.51,0.388-0.826c0.19-1.837-0.265-3.649-0.246-5.491
		c0.052-2.06,0.861-2.779,2.882-2.383c0.387,0.069,0.774,0.175,1.125,0.281c1.002,0.324,1.723,0.554,1.408,2.063
		c-0.372,1.795-0.055,3.702-0.091,5.544c-0.015,0.697,0.405,0.59,0.772,0.565c1.865-0.212,3.711-0.345,5.538-0.644
		c0.755-0.123,0.932,0.079,0.948,0.74c0.053,1.493-1.283,3.524-3.215,3.542c-3.87,0.034-3.358-0.106-3.533,3.558
		c-0.105,1.985-0.019,1.926,1.986,2.013c3.04,0.097,6.081-0.404,9.14-0.291c1.156,0.064,1.404,0.352,1.069,1.477
		c-0.49,1.625-1.124,3.148-2.917,3.829c-0.457,0.179-0.878,0.267-1.369,0.275C409.294,245.728,406.304,245.613,403.142,245.341z"/>
	<path fill-rule="evenodd" clip-rule="evenodd" fill="#FFFFFF" d="M269.258,351.802c-6.539,23.523-13.008,46.88-19.543,70.468
		c-6.417-23.588-12.763-46.989-19.176-70.468c2.287,0,4.499,0.026,6.697,0c0.369,0,0.51,0.058,0.595,0.489
		c2.233,8.695,4.467,17.374,6.787,26.06c1.633,6.146,3.321,12.302,4.833,18.471c0.034,0.148,0.174,0.251,0.353,0.444
		c1.246-4.788,2.493-9.516,3.723-14.224c1.495-5.687,3.006-11.34,4.502-17.017c1.157-4.486,2.335-8.946,3.443-13.432
		c0.156-0.625,0.353-0.812,0.932-0.792C264.651,351.828,266.903,351.802,269.258,351.802z"/>
	<path fill-rule="evenodd" clip-rule="evenodd" fill="#FFFFFF" d="M296.059,332.742c0,3.144-0.021,5.94,0.018,8.778
		c0.018,0.646-0.142,0.865-0.827,0.865c-2.582,0.02-2.582,0.039-2.582-2.548c0-4.277,0.035-8.548,0-12.802
		c-0.02-0.855,0.175-1.029,1.071-1.165c1.847-0.302,2.459,1.053,3.252,2.134c1.757,2.353,3.392,4.753,5.044,7.167
		c0.104,0.167,0.142,0.389,0.191,0.602c0.122-0.1,0.248-0.213,0.37-0.3c0-2.89,0.018-5.763-0.016-8.637
		c-0.019-0.757,0.177-0.939,0.912-0.934c2.498,0.026,2.498-0.025,2.498,2.491c0,4.357-0.036,8.704,0.014,13.064
		c0.018,0.708-0.191,0.808-0.911,0.956c-1.774,0.331-2.513-0.872-3.34-1.992C299.925,337.958,298.097,335.474,296.059,332.742z"/>
	<path fill-rule="evenodd" clip-rule="evenodd" fill="#FFFFFF" d="M215.337,332.854c0,3.006-0.051,5.812,0.016,8.611
		c0.02,0.766-0.227,0.934-0.948,0.92c-2.462-0.013-2.478,0.02-2.478-2.388c0-4.348,0.034-8.708,0-13.059
		c0-0.83,0.177-1.055,1.036-1.055c1.162,0.019,1.952,0.177,2.69,1.328c1.879,2.854,4.006,5.539,6.205,8.506
		c0-3.063,0.053-5.876-0.02-8.725c-0.053-0.933,0.246-1.116,1.126-1.091c2.267,0.062,2.267,0.01,2.267,2.33
		c0,4.402-0.02,8.788,0.037,13.161c0,0.812-0.281,0.863-0.986,1.021c-1.934,0.396-2.529-1.071-3.374-2.159
		c-1.76-2.285-3.409-4.656-5.115-6.971C215.707,333.153,215.565,333.058,215.337,332.854z"/>
	<path fill-rule="evenodd" clip-rule="evenodd" fill="#FFFFFF" d="M240.785,333.418c1.056,0,2.093,0.016,3.128-0.02
		c0.563-0.017,0.687,0.187,0.687,0.698c-0.037,1.814-0.037,3.617,0,5.419c0,0.45-0.142,0.695-0.545,0.943
		c-1.826,1.164-3.708,1.85-5.921,1.966c-2.093,0.087-3.974-0.219-5.767-1.281c-2.02-1.216-3.02-3.186-3.374-5.37
		c-0.493-2.716,0.018-5.346,1.81-7.55c2.426-2.938,7.559-3.446,10.965-1.152c1.057,0.722,1.705,1.681,2.337,2.735
		c0.301,0.534,0.282,0.886-0.421,0.976c-0.28,0.025-0.544,0.097-0.772,0.226c-0.843,0.476-1.335,0.354-1.932-0.521
		c-1.143-1.674-3.356-2.015-5.765-1.182c-1.723,0.596-2.69,2.127-2.742,4.154c-0.051,1.848,0.159,3.518,1.635,4.859
		c1.213,1.085,3.553,1.532,5.08,0.934c1.088-0.412,2.108-0.702,2.161-2.195c0.053-0.714,0.123-1.045-0.722-0.994
		c-0.948,0.045-1.915-0.051-2.88,0.026c-0.776,0.061-1.004-0.219-0.917-0.931c0.057-0.351,0.057-0.714,0-1.081
		c-0.048-0.554,0.159-0.679,0.689-0.679C238.606,333.434,239.695,333.418,240.785,333.418z"/>
	<path fill-rule="evenodd" clip-rule="evenodd" fill="#FFFFFF" d="M322.263,336.072c-1.337,0-2.549-0.061-3.744,0.017
		c-0.827,0.061-1.036-0.248-0.931-0.995c0.036-0.331,0.036-0.649,0-0.972c-0.072-0.47,0.052-0.724,0.635-0.724
		c2.177,0.035,4.341,0.035,6.518,0c0.492,0,0.581,0.222,0.581,0.653c-0.018,1.859,0,3.7,0,5.541c0,0.419-0.14,0.631-0.492,0.847
		c-1.862,1.22-3.868,1.914-6.153,1.985c-2.001,0.045-3.813-0.258-5.533-1.249c-2.129-1.248-3.183-3.314-3.483-5.576
		c-0.349-2.912,0.092-5.751,2.427-7.92c2.776-2.594,7.435-2.609,10.458-0.547c0.824,0.566,1.478,1.249,1.915,2.156
		c0.231,0.412,0.827,0.791,0.231,1.229c-1.267,0.933-2.286,1.004-2.745,0.219c-1.02-1.654-3.337-2.163-4.92-1.844
		c-2.198,0.44-3.429,1.817-3.815,3.849c-0.438,2.423,0.092,4.524,2.127,6.001c1.791,1.319,4.412,0.844,6.311-0.335
		c0.263-0.187,0.315-0.431,0.278-0.727C321.894,337.18,321.926,336.646,322.263,336.072z"/>
	<path fill-rule="evenodd" clip-rule="evenodd" fill="#FFFFFF" d="M208.061,333.9c0.159,2.48-0.349,4.669-2.108,6.355
		c-2.285,2.159-4.993,2.703-8.051,2.002c-4.164-0.985-6.346-5.863-5.624-9.552c0.528-2.696,1.459-4.904,3.92-6.14
		c3.514-1.719,7.169-1.19,9.737,1.281C207.553,329.437,208.343,331.612,208.061,333.9z"/>
	<path fill-rule="evenodd" clip-rule="evenodd" fill="#FFFFFF" d="M288.8,334.286c0.211,2.134-0.438,4.168-1.932,5.751
		c-2.285,2.388-5.1,2.922-8.387,2.14c-4.11-1.001-6.183-5.931-5.464-9.638c0.597-3.025,1.861-5.31,4.815-6.346
		C283.494,324.182,289.204,327.757,288.8,334.286z"/>
	<path fill-rule="evenodd" clip-rule="evenodd" fill="#FFFFFF" d="M271.522,342.231c-0.228,0.077-0.246,0.104-0.299,0.116
		c-3.567,0.174-3.567,0.174-5.623-2.761c-0.983-1.403-1.984-2.804-2.971-4.203c-0.157-0.199-0.353-0.315-0.439-0.412
		c-1.896,1.023-2.458,2.62-2.145,4.641c0.053,0.36,0,0.733,0,1.091c0,1.664,0,1.664-1.722,1.664c-1.652,0-1.652,0-1.652-1.726
		c0-4.563,0.037-9.097-0.032-13.647c-0.02-0.937,0.28-1.116,1.141-1.091c2.266,0.062,2.266,0.01,2.266,2.33c0,1.358,0,2.723,0,3.881
		c1.987-1.905,4.045-3.9,6.102-5.896c0.191-0.189,0.421-0.306,0.719-0.306c1.249,0.035,2.479,0.017,3.938,0.017
		c-2.021,2.021-3.866,3.929-5.765,5.73c-0.683,0.653-0.599,1.065-0.052,1.738C267.149,336.281,269.293,339.217,271.522,342.231z"/>
	<path fill-rule="evenodd" clip-rule="evenodd" fill="#FFFFFF" d="M175.444,334.02c0-2.407,0.016-4.827-0.021-7.254
		c-0.016-0.656,0.177-0.853,0.862-0.862c2.55-0.019,2.513-0.032,2.55,2.433c0.035,1.269-0.563,2.974,0.245,3.701
		c0.685,0.618,2.372,0.177,3.603,0.177c2.425,0,2.425,0,2.425-2.407c0-0.502,0-0.975,0-1.471c0-2.6,0.301-2.809,2.901-2.423
		c0.475,0.081,0.491,0.268,0.491,0.608c0,5.023,0,9.988,0,14.999c0,0.062,0.037,0.203-0.016,0.229
		c-0.827,0.862-1.863,0.167-2.742,0.36c-0.634,0.139-0.634-0.264-0.634-0.715c0-1.808-0.034-3.616,0.018-5.419
		c0.018-0.688-0.175-0.897-0.861-0.872c-1.582,0.036-3.144,0.036-4.709,0c-0.581-0.01-0.756,0.146-0.74,0.737
		c0.037,1.821-0.016,3.617,0.037,5.432c0.019,0.688-0.175,0.853-0.861,0.862c-2.568,0.026-2.547,0.052-2.547-2.426
		C175.444,337.811,175.444,335.925,175.444,334.02z"/>
	<path fill-rule="evenodd" clip-rule="evenodd" fill="#FFFFFF" d="M368.59,263.927c0.404,2.249-1.16,4.124-2.283,6.071
		c-0.897,1.502-1.583,3.137-2.867,4.405c-1.474,1.416-2.937,1.29-4.022-0.415c-0.671-1.065-1.528-2.031-1.812-3.338
		c-0.089-0.527-0.139-0.997-0.052-1.506c0.245-1.158,0.615-2.038,1.967-2.547c2.075-0.808,3.48-2.621,5.009-4.182
		c0.527-0.536,1.126-0.961,1.795-1.317c1.125-0.591,2.124-0.079,2.266,1.218C368.624,262.747,368.59,263.208,368.59,263.927z"/>
	<path fill-rule="evenodd" clip-rule="evenodd" fill="#FFFFFF" d="M372.701,250.736c0,1.759-1.158,2.69-3.199,2.137
		c-4.04-1.108-7.747-2.893-10.349-6.407c-0.949-1.249-0.651-3.542,0.474-4.542c1.002-0.871,3.409-0.809,4.5,0.146
		c2.653,2.296,5.079,4.782,7.873,6.891C372.667,249.462,372.806,250.095,372.701,250.736z"/>
	<path fill-rule="evenodd" clip-rule="evenodd" fill="#FFFFFF" d="M366.234,227.546c0.844-0.175,1.669,0.132,2.214,0.739
		c1.654,1.881,3.587,3.573,4.695,5.915c0.261,0.544,0.507,1.134,0.42,1.729c-0.177,1.434-1.67,2.18-3.093,1.6
		c-2.989-1.221-5.203-3.321-6.89-6.026c-0.37-0.573-0.79-1.39-0.281-2.022C364.04,228.576,364.637,227.29,366.234,227.546z"/>
	<path fill-rule="evenodd" clip-rule="evenodd" fill="#552276" d="M111.1,273.47c-1.544-0.097-3.374,0.064-5.22-0.187
		c-1.706-0.219-3.569-2.774-2.989-4.653c0.423-1.366,1.603-1.267,2.568-1.409c2.372-0.377,4.78-0.263,7.171-0.298
		c1.404,0,2.793-0.177,4.18-0.219c1.654-0.045,2.215,0.447,2.024,2.1c-0.212,1.802-0.439,3.714-2.566,4.492
		c-0.985,0.357-1.969,0.094-2.953,0.174C112.682,273.515,112.032,273.47,111.1,273.47z"/>
	<path fill-rule="evenodd" clip-rule="evenodd" fill="#552276" d="M112.682,258.242c1.442,0,2.901,0.077,4.325-0.02
		c1.353-0.088,2.019,0.668,2.109,1.776c0.14,1.557-0.563,2.892-1.778,3.051c-1.67,0.245-3.337,0.454-5.044,0.561
		c-1.685,0.104-3.284,0.228-4.972-0.019c-0.774-0.122-1.564-0.043-2.338-0.264c-1.369-0.37-2.372-1.485-2.303-2.714
		c0.034-0.932,0.967-1.714,2.374-1.881c1.247-0.142,2.479-0.546,3.744-0.501C110.08,258.284,111.366,258.242,112.682,258.242z"/>
	<path fill-rule="evenodd" clip-rule="evenodd" fill="#552276" d="M401.701,250.553c-2.373-0.185-4.552,0.104-6.748,0.174
		c-2.231,0.071-4.447,0.02-6.785,0.02c0.512-1.796,1.196-3.472,1.44-5.265c0.107-0.518,0.669-0.439,0.862-0.439
		c2.336-0.069,4.66-0.14,6.994-0.016c1.247,0.026,1.917,1.143,2.514,2.055C400.646,248.117,401.102,249.285,401.701,250.553z"/>
	<path fill-rule="evenodd" clip-rule="evenodd" fill="#552276" d="M390.383,255.119c1.686-0.454,3.357-0.104,5.06-0.386
		c0.092-0.024,0.196-0.104,0.318-0.123c2.248-0.36,2.866,0.441,2.303,2.963c-0.055,0.229-0.177,0.457-0.229,0.669
		c-0.369,2.608-0.369,2.581-3.04,2.66c-1.229,0.053-2.495-0.263-3.708,0.222c-0.282,0.121-0.526-0.018-0.489-0.425
		C390.733,258.801,390.1,256.905,390.383,255.119z"/>
	<path fill-rule="evenodd" clip-rule="evenodd" fill="#552276" d="M394.091,236.001c1.07-0.151,2.337,0.237,3.603-0.228
		c0.439-0.144,0.827-0.124,0.934,0.656c0.14,1.073,0.085,2.154,0.207,3.218c0.144,1.239-0.473,1.485-1.526,1.438
		c-1.09-0.04-2.177-0.032-3.252,0c-0.86,0.011-1.739-0.077-2.618,0.188c-0.704,0.235-1.563,0.103-1.317-1.02
		c0.298-1.231,0.229-2.454,0.212-3.689c0-0.512,0.243-0.581,0.648-0.563C391.966,236.016,392.913,236.001,394.091,236.001z"/>
	<path fill-rule="evenodd" clip-rule="evenodd" fill="#552276" d="M204.703,334.122c0,2.697-1.265,4.544-3.27,5.11
		c-2.458,0.688-4.724-0.763-5.5-2.741c-0.808-2.144-0.386-5.825,1.95-7.08c1.617-0.862,3.076-0.756,4.587,0
		c1.388,0.688,2.019,1.985,2.214,3.488C204.723,333.312,204.703,333.697,204.703,334.122z"/>
	<path fill-rule="evenodd" clip-rule="evenodd" fill="#552276" d="M285.426,334.226c0,2.863-1.124,4.324-3.832,5.097
		c-1.53,0.447-3.865-0.482-4.779-2.375c-1.004-2.072-0.809-5.528,1.196-7.141c1.248-1.01,2.599-1.196,4.006-0.853
		c1.563,0.38,2.725,1.336,3.197,3.021C285.407,332.742,285.407,333.469,285.426,334.226z"/>
	<path fill-rule="evenodd" clip-rule="evenodd" fill="#552276" d="M249.908,54.452c0.158,0,0.314,0,0.473,0
		c2.127,2.73,4.288,5.437,6.431,8.129c4.589,5.799,9.421,11.361,14.412,16.766c5.152,5.553,10.423,10.983,15.694,16.415
		c4.043,4.183,8.12,8.304,12.058,12.521c4.482,4.832,8.788,9.762,12.39,15.298c3.251,4.967,5.66,10.292,6.891,16.127
		c1.44,6.817,2.497,13.697,2.338,20.712c-0.122,4.944-0.811,9.786-1.705,14.623c-2.427,12.907-6.415,25.369-10.686,37.758
		c-3.427,9.849-7.12,19.613-10.86,29.35c-3.868,10.079-7.789,20.149-11.056,30.44c-4.481,14.095-8.753,28.245-11.687,42.751
		c-0.246,1.307-0.246,1.307,1.105,1.307c1.302,0,2.601-0.032,3.866,0.013c0.932,0.032,1.391-0.302,1.584-1.229
		c0.878-4.01,1.789-8.026,2.882-11.98c2.442-8.653,5.41-17.123,8.505-25.573c3.375-9.152,7.329-18.064,11.794-26.728
		c5.993-11.61,12.97-22.576,21.563-32.428c6.942-7.987,14.851-14.885,24.023-20.218c8.792-5.105,18.229-8.278,28.28-9.72
		c2.97-0.449,5.94-0.705,8.91-0.667c9.543,0.113,18.824,1.767,27.628,5.58c6.961,2.998,13.392,6.933,19.051,11.967
		c12.584,11.205,20.315,25.117,23.092,41.741c0.406,2.285,0.548,4.57,0.548,6.874c-0.036,4.954,0.227,9.901-0.529,14.814
		c-0.948,6.088-2.723,11.926-5.22,17.547c-3.075,7.013-7.276,13.269-12.407,18.912c-5.061,5.555-10.914,10.114-17.469,13.825
		c-7.979,4.53-16.537,7.317-25.641,8.47c-3.833,0.498-7.682,0.676-11.564,0.579c-0.354-0.032-0.722-0.097-1.092-0.122
		c-0.983-0.091-1.425-0.625-1.58-1.609c-0.457-2.619-0.879-5.255-1.652-7.804c-3.428-11.099-10.211-19.324-20.914-24.112
		c-3.655-1.635-7.469-2.427-11.477-2.636c-10.211-0.569-18.859,2.971-26.187,9.947c-3.831,3.662-6.681,8.048-8.683,12.942
		c-0.055,0.135-0.105,0.231-0.14,0.354c-0.405,1.133-0.336,1.262,0.842,1.262c2.143,0.013,4.254,0.039,6.415,0
		c3.216-0.07,6.239,0.705,9.034,2.278c5.852,3.321,9.226,8.367,9.49,15.15c0.264,7.15-4.379,13.856-11.214,16.74
		c-2.443,1.02-5.009,1.486-7.646,1.519c-1.53,0.045-3.075,0-4.584,0.02c-1.319,0-1.424,0.174-0.932,1.422
		c1.158,2.849,2.934,5.291,5.235,7.292c8.56,7.485,21.865,7.875,30.845,0.934c1.9-1.448,3.494-3.198,4.815-5.213
		c0.666-1.018,1.003-1.018,1.651-0.013c2.515,3.835,3.973,8.048,4.358,12.652c0.775,9.394-2.669,17.352-8.489,24.444
		c-4.182,5.071-9.295,8.895-15.498,11.134c-6.205,2.24-12.513,2.568-18.913,1.03c-7.786-1.893-14.445-5.741-20.315-11.125
		c-6.679-6.117-11.477-13.479-14.872-21.776c-2.563-6.265-4.072-12.813-4.515-19.588c-0.033-0.853-0.313-1.238-1.192-1.213
		c-0.811,0.064-1.635,0.064-2.428,0c-0.88-0.025-1.176,0.245-1.107,1.213c0.228,3.53,0.723,7.038,1.354,10.514
		c1.863,10.8,4.906,21.265,8.824,31.491c2.406,6.301,5.186,12.415,8.294,18.375c3.727,7.111,7.839,13.998,12.497,20.543
		c1.441,2.027,1.352,2.253-1.056,2.884c-7.521,1.976-15.113,3.7-22.811,4.788c-6.663,0.934-13.324,1.654-20.072,1.776
		c-6.609,0.129-13.198,0.129-19.807,0.062c-9.401-0.062-18.717-1.194-27.961-2.829c-5.643-0.984-11.178-2.4-16.714-3.849
		c-2.302-0.599-2.354-0.73-1.038-2.636c5.712-8.132,10.616-16.749,14.836-25.721c6.095-12.949,10.771-26.388,13.795-40.393
		c1.052-4.847,1.807-9.75,2.334-14.681c0.124-1.271-0.067-1.493-1.333-1.519c-0.596-0.02-1.196-0.01-1.812-0.01
		c-1.702,0.01-1.828,0.062-1.915,1.715c-0.211,3.354-0.738,6.662-1.544,9.898c-2.462,9.845-6.769,18.762-13.445,26.491
		c-4.66,5.377-10.125,9.776-16.61,12.801c-5.377,2.514-11.089,3.99-17.066,3.707c-7.855-0.315-14.726-3.198-20.703-8.271
		c-4.729-3.996-8.421-8.766-10.773-14.506c-3.725-9.165-3.374-18.137,1.565-26.835c0.087-0.145,0.156-0.273,0.245-0.405
		c0.74-1.088,1.125-1.127,1.863-0.042c1.178,1.647,2.409,3.195,3.974,4.489c3.408,2.848,7.311,4.56,11.668,5.203
		c7.715,1.185,14.552-0.688,20.351-5.953c2.091-1.896,3.692-4.151,4.798-6.765c0.581-1.345,0.475-1.519-0.965-1.528
		c-2.848-0.01-5.713,0.097-8.542-0.486c-8.609-1.782-14.904-9.551-14.464-18.291c0.352-6.564,3.762-11.365,9.403-14.597
		c2.811-1.608,5.854-2.394,9.139-2.323c2.003,0.039,4.043,0.013,6.03,0c1.314,0,1.419-0.154,0.912-1.384
		c-2.196-5.477-5.448-10.274-9.844-14.191c-4.832-4.334-10.419-7.295-16.87-8.428c-10.63-1.882-20.141,0.647-28.438,7.515
		c-7.081,5.83-11.263,13.441-13.075,22.384c-0.246,1.217-0.491,2.439-0.685,3.694c-0.301,1.834-0.51,2.053-2.425,2.144
		c-1.971,0.105-3.955,0.122-5.923,0c-4.957-0.271-9.86-0.931-14.656-2.179c-10.897-2.816-20.527-7.952-29-15.359
		c-6.909-6.05-12.407-13.2-16.521-21.374c-3.39-6.713-5.64-13.776-6.626-21.239c-0.211-1.467-0.106-2.95-0.315-4.436
		c0-3.701,0-7.416,0-11.118c0.246-2.179,0.227-4.393,0.616-6.552c1.616-8.965,4.887-17.27,9.685-24.977
		c2.653-4.27,5.727-8.198,9.225-11.765c5.078-5.131,10.772-9.462,17.134-12.866c7.189-3.821,14.764-6.441,22.833-7.575
		c2.618-0.378,5.271-0.543,7.922-0.674c7.366-0.406,14.538,0.674,21.601,2.581c4.238,1.15,8.347,2.688,12.339,4.554
		c7.644,3.584,14.587,8.231,20.949,13.744c4.217,3.662,8.153,7.668,11.81,11.881c7.364,8.478,13.498,17.784,18.771,27.65
		c4.391,8.2,8.17,16.697,11.511,25.406c4.359,11.331,7.997,22.877,10.595,34.758c0.458,2.114,0.845,4.268,1.144,6.423
		c0.104,1.018,0.581,1.474,1.652,1.403c1.318-0.07,2.671-0.007,3.99-0.02c1.299,0,1.352-0.058,1.107-1.297
		c-0.949-5.036-2.127-9.991-3.411-14.94c-2.283-8.837-5.025-17.493-7.908-26.131c-3.144-9.439-6.644-18.771-10.156-28.061
		c-4.011-10.555-7.98-21.089-11.707-31.749c-3.195-9.12-6.114-18.328-8.522-27.715c-1.828-7.173-3.339-14.413-3.991-21.828
		c-0.614-7.039-0.106-13.972,1.16-20.915c0.914-4.832,2.074-9.569,4.201-14.079c2.072-4.402,4.779-8.391,7.768-12.18
		c3.04-3.867,6.362-7.471,9.77-11.035c4.833-5.054,9.736-10.061,14.589-15.1c5.009-5.175,10.018-10.394,14.815-15.746
		c5.923-6.634,11.564-13.522,16.925-20.64C249.361,54.935,249.625,54.707,249.908,54.452z"/>
	<path fill-rule="evenodd" clip-rule="evenodd" fill="#FFFFFF" d="M249.837,199.355c-0.599,2.189-0.634,4.438-0.914,6.655
		c-0.351,2.907-0.491,5.807-0.933,8.698c-0.264,1.794-0.315,3.628-0.507,5.44c-0.317,2.848-0.563,5.729-0.917,8.593
		c-0.227,1.862-0.365,3.788-0.542,5.678c-0.281,2.853-0.6,5.718-0.914,8.584c-0.195,1.87-0.353,3.778-0.547,5.675
		c-0.262,2.868-0.7,5.722-0.893,8.587c-0.158,1.888-0.372,3.786-0.563,5.677c-0.281,2.865-0.687,5.729-0.916,8.584
		c-0.122,1.911-0.315,3.777-0.508,5.689c-0.353,2.845-0.581,5.728-0.916,8.572c-0.212,1.815-0.349,3.64-0.544,5.451
		c-0.301,2.941-0.492,5.905-0.933,8.82c-0.28,1.806-0.317,3.621-0.524,5.442c-0.301,2.935-0.475,5.895-0.935,8.836
		c-0.122,0.767,0.303,1.863-0.384,2.24c-0.667,0.389-1.706,0.16-2.586,0.16c-1.247,0-2.494-0.045-3.739,0.007
		c-0.6,0.013-0.882-0.097-0.827-0.778c0.263-1.95,0.475-3.913,0.686-5.863c0.193-1.731,0.369-3.469,0.544-5.194
		c0.334-2.741,0.544-5.499,0.914-8.212c0.229-1.689,0.351-3.386,0.545-5.081c0.297-2.745,0.491-5.487,0.93-8.235
		c0.282-1.73,0.336-3.521,0.512-5.307c0.315-2.671,0.595-5.325,0.913-7.986c0.227-1.761,0.368-3.551,0.543-5.319
		c0.301-2.732,0.703-5.456,0.948-8.206c0.124-1.696,0.319-3.391,0.515-5.08c0.317-2.741,0.542-5.5,0.893-8.225
		c0.228-1.677,0.388-3.373,0.529-5.07c0.262-2.75,0.543-5.49,0.965-8.217c0.262-1.765,0.299-3.559,0.507-5.324
		c0.302-2.732,0.687-5.475,0.937-8.225c0.121-1.686,0.296-3.374,0.508-5.072c0.333-2.742,0.545-5.474,0.914-8.215
		c0.21-1.686,0.351-3.392,0.527-5.08c0.314-2.732,0.56-5.472,0.93-8.225c0.211-1.668,0.369-3.382,0.508-5.07
		c0.282-2.742,0.615-5.493,0.934-8.224c0.208-1.765,0.351-3.549,0.547-5.316c0.296-2.744,0.702-5.466,0.911-8.233
		c0.14-1.682,0.353-3.377,0.529-5.063c0.315-2.742,0.544-5.492,0.911-8.224c0.23-1.607,0.386-3.208,0.513-4.835
		c0.209-2.388,0.472-4.769,0.93-7.144c0.246,2.698,0.491,5.406,0.789,8.103c0.281,2.497,0.722,4.991,0.935,7.495
		c0.14,1.696,0.349,3.385,0.507,5.071c0.265,2.749,0.529,5.492,0.947,8.233c0.266,1.714,0.336,3.455,0.512,5.184
		c0.301,2.707,0.597,5.405,0.914,8.103c0.194,1.773,0.333,3.561,0.564,5.324c0.295,2.742,0.665,5.467,0.895,8.217
		c0.126,1.697,0.333,3.383,0.526,5.071c0.317,2.73,0.703,5.472,0.915,8.224c0.141,1.702,0.334,3.374,0.546,5.07
		c0.313,2.743,0.562,5.492,0.912,8.243c0.213,1.661,0.354,3.358,0.544,5.072c0.3,2.74,0.529,5.472,0.899,8.215
		c0.227,1.635,0.387,3.295,0.544,4.937c0.244,2.795,0.579,5.572,0.93,8.341c0.195,1.651,0.354,3.312,0.512,4.975
		c0.245,2.774,0.526,5.569,0.931,8.328c0.262,1.725,0.336,3.456,0.525,5.204c0.301,2.698,0.579,5.392,0.898,8.101
		c0.211,1.725,0.353,3.463,0.544,5.185c0.297,2.719,0.6,5.416,0.897,8.093c0.23,1.726,0.351,3.476,0.545,5.214
		c0.317,2.786,0.72,5.554,0.948,8.337c0.14,1.661,0.317,3.306,0.512,4.946c0.331,2.787,0.542,5.573,0.912,8.36
		c0.14,0.972,0.281,1.95,0.317,2.961c0.019,0.518-0.159,0.676-0.688,0.676c-1.968-0.036-3.953-0.036-5.919-0.01
		c-0.936,0.016-0.827-0.718-0.882-1.204c-0.282-2.803-0.438-5.615-0.772-8.401c-0.475-3.927-0.792-7.862-1.231-11.798
		c-0.229-2.304-0.455-4.634-0.703-6.938c-0.333-3.418-0.808-6.829-1.176-10.221c-0.229-2.021-0.281-4.028-0.512-6.05
		c-0.262-2.69-0.632-5.38-0.949-8.093c-0.193-1.821-0.317-3.622-0.491-5.441c-0.297-2.872-0.719-5.694-0.913-8.586
		c-0.123-1.828-0.353-3.638-0.544-5.438c-0.283-2.856-0.547-5.729-0.898-8.585c-0.229-1.828-0.334-3.691-0.544-5.546
		c-0.301-2.906-0.632-5.807-0.947-8.717c-0.196-1.765-0.318-3.546-0.51-5.314c-0.268-2.911-0.599-5.801-0.898-8.702
		c-0.212-1.739-0.353-3.467-0.544-5.202C250.012,201.631,249.941,200.499,249.837,199.355z"/>
	<path fill-rule="evenodd" clip-rule="evenodd" fill="#FFFFFF" d="M107.289,243.697c-2.182,1.637-4.097,3.244-6.011,4.888
		c-2.97,2.566-5.677,5.516-9.21,7.317c-3.41,1.724-7.031,2.146-10.754,1.115c-1.392-0.366-2.235-1.379-2.848-2.599
		c-0.421-0.773,0.508-2.103,1.773-2.443c1.406-0.396,2.829-0.774,4.29-0.968c1.986-0.262,3.762-1.018,5.518-1.829
		c2.304-1.044,4.605-2.088,6.766-3.39c2.83-1.706,5.521-3.681,8.264-5.527c0.121-0.097,0.262-0.148,0.718-0.386
		c-1.141,0-2.003-0.063-2.829,0.016c-2.125,0.187-4.235,0.457-6.343,0.705c-2.005,0.227-4.009,0.412-5.997,0.748
		c-1.686,0.28-3.374,0.489-5.062,0.455c-1.474-0.009-2.421-1.073-2.212-2.529c0.264-1.952,2.671-3.438,4.692-3.137
		c1.688,0.251,3.48,0.262,5.186,0.042c1.668-0.201,3.321-0.262,4.972-0.368c2.655-0.177,5.274-0.589,7.911-0.766
		c0.28-0.018,0.369-0.111,0.438-0.404c0.423-1.908-0.648-5.017-2.374-5.87c-1.247-0.631-2.726-0.845-4.149-0.999
		c-0.822-0.09-1.595-0.319-2.336-0.679c-0.806-0.376-1.068-1.01-1.281-1.729c-0.212-0.775,0.386-1.434,1.229-1.443
		c2.619-0.069,5.202,0.457,7.804,0.221c4.445-0.396,8.896-0.817,13.198-2.145c0.88-0.272,1.846-0.747,2.444,0.545
		c0.439,0.993,0.158,2.241-0.774,2.935c-1.915,1.467-3.886,2.883-5.994,4.077c-0.315,0.177-0.545,0.334-0.528,0.79
		c0.053,1.284,0.016,2.56,0.016,3.86c1.355-0.151,2.62-0.282,3.923-0.378c2.935-0.236,5.87-0.623,8.769-1.15
		c1.089-0.169,2.179-0.405,3.305-0.317c1.314,0.123,1.739,0.747,1.438,2c-0.262,1.03-0.825,1.725-1.704,2.262
		c-0.983,0.581-1.863,1.342-2.761,2.003c-0.438,0.323-0.964,0.457-1.511,0.536c-2.301,0.273-4.554,0.219-6.833,0.219
		c-0.793,0-1.583-0.081-2.391,0.343c0.826,1.221,2.14,1.917,3.27,2.779c2.882,2.257,6.449,3.225,9.628,4.867
		c3.395,1.767,7.05,2.627,10.669,3.61c0.914,0.255,1.088,0.812,0.477,1.414c-1.582,1.495-3.13,3.043-5.239,3.808
		c-2.091,0.764-3.971,0.266-5.659-0.871c-1.828-1.23-3.48-2.679-5.255-3.99c-3.128-2.318-6.257-4.623-9.192-7.213
		c-0.421-0.405-1.245-1.117-1.229,0.402c0,0.23-0.211,0.475-0.193,0.774c0.158,2.647-0.244,5.281-0.264,7.917
		c0,0.729,0.159,0.968,0.912,0.931c3.043-0.104,6.029,0.1,9,0.681c2.231,0.453,3.321,1.799,3.638,4.215
		c0.28,2.322-0.353,4.57-0.737,6.812c-0.439,2.611-0.896,5.23-1.917,7.689c-0.595,1.493-1.319,2.94-2.373,4.138
		c-0.845,0.924-1.933,1.036-3.041,0.817c-1.809-0.38-3.638-0.589-5.462-0.393c-2.232,0.199-4.414,0.534-6.646,0.419
		c-2.196-0.106-4.412-0.193-6.4-1.301c-1.718-0.965-2.529-2.681-2.878-4.479c-0.422-2.304-0.422-4.666-0.581-6.997
		c-0.104-1.933-0.069-3.839-0.194-5.737c-0.069-1.027,0.21-1.978,0.299-2.963c0.108-1.186,1.125-1.906,2.533-1.931
		c2.547-0.072,5.026-0.608,7.558-0.721c0.719-0.039,0.528-0.512,0.528-0.845C107.289,250.323,107.289,247.099,107.289,243.697z"/>
	<path fill-rule="evenodd" clip-rule="evenodd" fill="#FFFFFF" d="M403.142,245.341c2.177,3.857,5.659,5.588,9.316,7.1
		c3.921,1.634,7.963,2.829,11.985,4.121c0.701,0.219,1.002,0.492,0.544,1.361c-0.563,1.029-1.438,1.635-2.232,2.391
		c-1.407,1.292-2.706,2.697-3.986,4.146c-0.985,1.126-1.848,1.101-2.901,0.063c-2.495-2.398-4.922-4.831-7.488-7.16
		c-1.195-1.1-2.391-2.197-3.514-3.385c-0.493-0.473-0.565-0.404-0.792,0.266c-0.808,2.299-1.458,4.656-2.09,7.02
		c-0.159,0.608-0.459,1.152-0.616,1.739c-0.474,1.804-2.108,1.634-3.443,1.724c-1.935,0.14-3.868,0.271-5.783,0.484
		c-0.475,0.069-0.703,0.323-0.74,0.597c-0.122,1.115-0.281,2.243,0.055,3.331c0.439,1.287,1.687,1.261,2.742,1.412
		c3.514,0.486,7.063,0.28,10.579,0.223c1.67-0.052,3.305-0.151,4.938,0.013c2.776,0.251,3.092,1.635,2.707,3.553
		c-0.457,2.284-1.106,2.436-3.232,2.478c-4.324,0.142-8.649-0.341-12.955-0.904c-2.494-0.318-4.937-0.679-7.327-1.458
		c-1.511-0.482-2.23-1.583-2.618-2.902c-0.231-0.85-0.317-1.773-0.317-2.703c0.036-3.245,0.141-6.495-0.231-9.71
		c-0.122-0.845-0.225-1.716-0.294-2.885c-0.739,1.039-1.319,1.847-1.865,2.664c-1.563,2.355-3.043,4.745-5.604,6.273
		c-1.479,0.914-3.06,1.162-4.729,1.003c-1.213-0.133-1.742-1.196-1.934-2.19c-0.246-1.098-0.193-2.266,0.932-3.002
		c2.373-1.53,4.569-3.305,6.746-5.107c0.813-0.695,1.546-1.608,2.06-2.558c1.162-2.116,2.267-4.237,3.058-6.52
		c0.314-0.914,0.262-1.204-0.757-1.178c-1.704,0.055-3.39,0.169-5.078,0.5c-0.841,0.175-1.776-0.5-2.075-1.45
		c-0.298-0.924-0.106-1.81,0.388-2.583c0.386-0.632,1.073-0.317,1.617-0.282c2.249,0.116,4.482-0.421,6.713-0.264
		c0.476,0.035,0.616-0.158,0.616-0.625c-0.036-1.371-0.036-2.732,0-4.093c0-0.484-0.178-0.642-0.635-0.606
		c-1.298,0.14-2.637-0.237-3.919,0.219c-0.158,0.043-0.387-0.061-0.544-0.122c-1.317-0.502-1.284-1.598-1.178-2.681
		c0.07-0.88,0.632-1.152,1.511-1.335c0.88-0.15,1.727-0.222,2.584-0.15c0.842,0.036,1.019-0.281,0.967-1.019
		c-0.175-2.1-0.37-4.149-0.843-6.204c-0.317-1.45,0.034-1.987,1.511-1.994c1.97-0.035,3.638,0.814,5.307,1.667
		c0.564,0.29,0.527,0.819,0.527,1.31c0,1.731,0.018,3.464-0.018,5.202c0,0.518,0.089,0.819,0.72,0.756
		c2.286-0.177,4.59-0.333,6.891-0.473c0.635-0.045,0.353-0.51,0.388-0.826c0.19-1.837-0.265-3.649-0.246-5.491
		c0.052-2.06,0.861-2.779,2.882-2.383c0.387,0.069,0.774,0.175,1.125,0.281c1.002,0.324,1.723,0.554,1.408,2.063
		c-0.372,1.795-0.055,3.702-0.091,5.544c-0.015,0.697,0.405,0.59,0.772,0.565c1.865-0.212,3.711-0.345,5.538-0.644
		c0.755-0.123,0.932,0.079,0.948,0.74c0.053,1.493-1.283,3.524-3.215,3.542c-3.87,0.034-3.358-0.106-3.533,3.558
		c-0.105,1.985-0.019,1.926,1.986,2.013c3.04,0.097,6.081-0.404,9.14-0.291c1.156,0.064,1.404,0.352,1.069,1.477
		c-0.49,1.625-1.124,3.148-2.917,3.829c-0.457,0.179-0.878,0.267-1.369,0.275C409.294,245.728,406.304,245.613,403.142,245.341z"/>
	<path fill-rule="evenodd" clip-rule="evenodd" fill="#FFFFFF" d="M269.258,351.802c-6.539,23.523-13.008,46.88-19.543,70.468
		c-6.417-23.588-12.763-46.989-19.176-70.468c2.287,0,4.499,0.026,6.697,0c0.369,0,0.51,0.058,0.595,0.489
		c2.233,8.695,4.467,17.374,6.787,26.06c1.633,6.146,3.321,12.302,4.833,18.471c0.034,0.148,0.174,0.251,0.353,0.444
		c1.246-4.788,2.493-9.516,3.723-14.224c1.495-5.687,3.006-11.34,4.502-17.017c1.157-4.486,2.335-8.946,3.443-13.432
		c0.156-0.625,0.353-0.812,0.932-0.792C264.651,351.828,266.903,351.802,269.258,351.802z"/>
	<path fill-rule="evenodd" clip-rule="evenodd" fill="#FFFFFF" d="M296.059,332.742c0,3.144-0.021,5.94,0.018,8.778
		c0.018,0.646-0.142,0.865-0.827,0.865c-2.582,0.02-2.582,0.039-2.582-2.548c0-4.277,0.035-8.548,0-12.802
		c-0.02-0.855,0.175-1.029,1.071-1.165c1.847-0.302,2.459,1.053,3.252,2.134c1.757,2.353,3.392,4.753,5.044,7.167
		c0.104,0.167,0.142,0.389,0.191,0.602c0.122-0.1,0.248-0.213,0.37-0.3c0-2.89,0.018-5.763-0.016-8.637
		c-0.019-0.757,0.177-0.939,0.912-0.934c2.498,0.026,2.498-0.025,2.498,2.491c0,4.357-0.036,8.704,0.014,13.064
		c0.018,0.708-0.191,0.808-0.911,0.956c-1.774,0.331-2.513-0.872-3.34-1.992C299.925,337.958,298.097,335.474,296.059,332.742z"/>
	<path fill-rule="evenodd" clip-rule="evenodd" fill="#FFFFFF" d="M215.337,332.854c0,3.006-0.051,5.812,0.016,8.611
		c0.02,0.766-0.227,0.934-0.948,0.92c-2.462-0.013-2.478,0.02-2.478-2.388c0-4.348,0.034-8.708,0-13.059
		c0-0.83,0.177-1.055,1.036-1.055c1.162,0.019,1.952,0.177,2.69,1.328c1.879,2.854,4.006,5.539,6.205,8.506
		c0-3.063,0.053-5.876-0.02-8.725c-0.053-0.933,0.246-1.116,1.126-1.091c2.267,0.062,2.267,0.01,2.267,2.33
		c0,4.402-0.02,8.788,0.037,13.161c0,0.812-0.281,0.863-0.986,1.021c-1.934,0.396-2.529-1.071-3.374-2.159
		c-1.76-2.285-3.409-4.656-5.115-6.971C215.707,333.153,215.565,333.058,215.337,332.854z"/>
	<path fill-rule="evenodd" clip-rule="evenodd" fill="#FFFFFF" d="M240.785,333.418c1.056,0,2.093,0.016,3.128-0.02
		c0.563-0.017,0.687,0.187,0.687,0.698c-0.037,1.814-0.037,3.617,0,5.419c0,0.45-0.142,0.695-0.545,0.943
		c-1.826,1.164-3.708,1.85-5.921,1.966c-2.093,0.087-3.974-0.219-5.767-1.281c-2.02-1.216-3.02-3.186-3.374-5.37
		c-0.493-2.716,0.018-5.346,1.81-7.55c2.426-2.938,7.559-3.446,10.965-1.152c1.057,0.722,1.705,1.681,2.337,2.735
		c0.301,0.534,0.282,0.886-0.421,0.976c-0.28,0.025-0.544,0.097-0.772,0.226c-0.843,0.476-1.335,0.354-1.932-0.521
		c-1.143-1.674-3.356-2.015-5.765-1.182c-1.723,0.596-2.69,2.127-2.742,4.154c-0.051,1.848,0.159,3.518,1.635,4.859
		c1.213,1.085,3.553,1.532,5.08,0.934c1.088-0.412,2.108-0.702,2.161-2.195c0.053-0.714,0.123-1.045-0.722-0.994
		c-0.948,0.045-1.915-0.051-2.88,0.026c-0.776,0.061-1.004-0.219-0.917-0.931c0.057-0.351,0.057-0.714,0-1.081
		c-0.048-0.554,0.159-0.679,0.689-0.679C238.606,333.434,239.695,333.418,240.785,333.418z"/>
	<path fill-rule="evenodd" clip-rule="evenodd" fill="#FFFFFF" d="M322.263,336.072c-1.337,0-2.549-0.061-3.744,0.017
		c-0.827,0.061-1.036-0.248-0.931-0.995c0.036-0.331,0.036-0.649,0-0.972c-0.072-0.47,0.052-0.724,0.635-0.724
		c2.177,0.035,4.341,0.035,6.518,0c0.492,0,0.581,0.222,0.581,0.653c-0.018,1.859,0,3.7,0,5.541c0,0.419-0.14,0.631-0.492,0.847
		c-1.862,1.22-3.868,1.914-6.153,1.985c-2.001,0.045-3.813-0.258-5.533-1.249c-2.129-1.248-3.183-3.314-3.483-5.576
		c-0.349-2.912,0.092-5.751,2.427-7.92c2.776-2.594,7.435-2.609,10.458-0.547c0.824,0.566,1.478,1.249,1.915,2.156
		c0.231,0.412,0.827,0.791,0.231,1.229c-1.267,0.933-2.286,1.004-2.745,0.219c-1.02-1.654-3.337-2.163-4.92-1.844
		c-2.198,0.44-3.429,1.817-3.815,3.849c-0.438,2.423,0.092,4.524,2.127,6.001c1.791,1.319,4.412,0.844,6.311-0.335
		c0.263-0.187,0.315-0.431,0.278-0.727C321.894,337.18,321.926,336.646,322.263,336.072z"/>
	<path fill-rule="evenodd" clip-rule="evenodd" fill="#FFFFFF" d="M208.061,333.9c0.159,2.48-0.349,4.669-2.108,6.355
		c-2.285,2.159-4.993,2.703-8.051,2.002c-4.164-0.985-6.346-5.863-5.624-9.552c0.528-2.696,1.459-4.904,3.92-6.14
		c3.514-1.719,7.169-1.19,9.737,1.281C207.553,329.437,208.343,331.612,208.061,333.9z"/>
	<path fill-rule="evenodd" clip-rule="evenodd" fill="#FFFFFF" d="M288.8,334.286c0.211,2.134-0.438,4.168-1.932,5.751
		c-2.285,2.388-5.1,2.922-8.387,2.14c-4.11-1.001-6.183-5.931-5.464-9.638c0.597-3.025,1.861-5.31,4.815-6.346
		C283.494,324.182,289.204,327.757,288.8,334.286z"/>
	<path fill-rule="evenodd" clip-rule="evenodd" fill="#FFFFFF" d="M271.522,342.231c-0.228,0.077-0.246,0.104-0.299,0.116
		c-3.567,0.174-3.567,0.174-5.623-2.761c-0.983-1.403-1.984-2.804-2.971-4.203c-0.157-0.199-0.353-0.315-0.439-0.412
		c-1.896,1.023-2.458,2.62-2.145,4.641c0.053,0.36,0,0.733,0,1.091c0,1.664,0,1.664-1.722,1.664c-1.652,0-1.652,0-1.652-1.726
		c0-4.563,0.037-9.097-0.032-13.647c-0.02-0.937,0.28-1.116,1.141-1.091c2.266,0.062,2.266,0.01,2.266,2.33c0,1.358,0,2.723,0,3.881
		c1.987-1.905,4.045-3.9,6.102-5.896c0.191-0.189,0.421-0.306,0.719-0.306c1.249,0.035,2.479,0.017,3.938,0.017
		c-2.021,2.021-3.866,3.929-5.765,5.73c-0.683,0.653-0.599,1.065-0.052,1.738C267.149,336.281,269.293,339.217,271.522,342.231z"/>
	<path fill-rule="evenodd" clip-rule="evenodd" fill="#FFFFFF" d="M175.444,334.02c0-2.407,0.016-4.827-0.021-7.254
		c-0.016-0.656,0.177-0.853,0.862-0.862c2.55-0.019,2.513-0.032,2.55,2.433c0.035,1.269-0.563,2.974,0.245,3.701
		c0.685,0.618,2.372,0.177,3.603,0.177c2.425,0,2.425,0,2.425-2.407c0-0.502,0-0.975,0-1.471c0-2.6,0.301-2.809,2.901-2.423
		c0.475,0.081,0.491,0.268,0.491,0.608c0,5.023,0,9.988,0,14.999c0,0.062,0.037,0.203-0.016,0.229
		c-0.827,0.862-1.863,0.167-2.742,0.36c-0.634,0.139-0.634-0.264-0.634-0.715c0-1.808-0.034-3.616,0.018-5.419
		c0.018-0.688-0.175-0.897-0.861-0.872c-1.582,0.036-3.144,0.036-4.709,0c-0.581-0.01-0.756,0.146-0.74,0.737
		c0.037,1.821-0.016,3.617,0.037,5.432c0.019,0.688-0.175,0.853-0.861,0.862c-2.568,0.026-2.547,0.052-2.547-2.426
		C175.444,337.811,175.444,335.925,175.444,334.02z"/>
	<path fill-rule="evenodd" clip-rule="evenodd" fill="#FFFFFF" d="M368.59,263.927c0.404,2.249-1.16,4.124-2.283,6.071
		c-0.897,1.502-1.583,3.137-2.867,4.405c-1.474,1.416-2.937,1.29-4.022-0.415c-0.671-1.065-1.528-2.031-1.812-3.338
		c-0.089-0.527-0.139-0.997-0.052-1.506c0.245-1.158,0.615-2.038,1.967-2.547c2.075-0.808,3.48-2.621,5.009-4.182
		c0.527-0.536,1.126-0.961,1.795-1.317c1.125-0.591,2.124-0.079,2.266,1.218C368.624,262.747,368.59,263.208,368.59,263.927z"/>
	<path fill-rule="evenodd" clip-rule="evenodd" fill="#FFFFFF" d="M372.701,250.736c0,1.759-1.158,2.69-3.199,2.137
		c-4.04-1.108-7.747-2.893-10.349-6.407c-0.949-1.249-0.651-3.542,0.474-4.542c1.002-0.871,3.409-0.809,4.5,0.146
		c2.653,2.296,5.079,4.782,7.873,6.891C372.667,249.462,372.806,250.095,372.701,250.736z"/>
	<path fill-rule="evenodd" clip-rule="evenodd" fill="#FFFFFF" d="M366.234,227.546c0.844-0.175,1.669,0.132,2.214,0.739
		c1.654,1.881,3.587,3.573,4.695,5.915c0.261,0.544,0.507,1.134,0.42,1.729c-0.177,1.434-1.67,2.18-3.093,1.6
		c-2.989-1.221-5.203-3.321-6.89-6.026c-0.37-0.573-0.79-1.39-0.281-2.022C364.04,228.576,364.637,227.29,366.234,227.546z"/>
	<path fill-rule="evenodd" clip-rule="evenodd" fill="#552276" d="M111.1,273.47c-1.544-0.097-3.374,0.064-5.22-0.187
		c-1.706-0.219-3.569-2.774-2.989-4.653c0.423-1.366,1.603-1.267,2.568-1.409c2.372-0.377,4.78-0.263,7.171-0.298
		c1.404,0,2.793-0.177,4.18-0.219c1.654-0.045,2.215,0.447,2.024,2.1c-0.212,1.802-0.439,3.714-2.566,4.492
		c-0.985,0.357-1.969,0.094-2.953,0.174C112.682,273.515,112.032,273.47,111.1,273.47z"/>
	<path fill-rule="evenodd" clip-rule="evenodd" fill="#552276" d="M112.682,258.242c1.442,0,2.901,0.077,4.325-0.02
		c1.353-0.088,2.019,0.668,2.109,1.776c0.14,1.557-0.563,2.892-1.778,3.051c-1.67,0.245-3.337,0.454-5.044,0.561
		c-1.685,0.104-3.284,0.228-4.972-0.019c-0.774-0.122-1.564-0.043-2.338-0.264c-1.369-0.37-2.372-1.485-2.303-2.714
		c0.034-0.932,0.967-1.714,2.374-1.881c1.247-0.142,2.479-0.546,3.744-0.501C110.08,258.284,111.366,258.242,112.682,258.242z"/>
	<path fill-rule="evenodd" clip-rule="evenodd" fill="#552276" d="M401.701,250.553c-2.373-0.185-4.552,0.104-6.748,0.174
		c-2.231,0.071-4.447,0.02-6.785,0.02c0.512-1.796,1.196-3.472,1.44-5.265c0.107-0.518,0.669-0.439,0.862-0.439
		c2.336-0.069,4.66-0.14,6.994-0.016c1.247,0.026,1.917,1.143,2.514,2.055C400.646,248.117,401.102,249.285,401.701,250.553z"/>
	<path fill-rule="evenodd" clip-rule="evenodd" fill="#552276" d="M390.383,255.119c1.686-0.454,3.357-0.104,5.06-0.386
		c0.092-0.024,0.196-0.104,0.318-0.123c2.248-0.36,2.866,0.441,2.303,2.963c-0.055,0.229-0.177,0.457-0.229,0.669
		c-0.369,2.608-0.369,2.581-3.04,2.66c-1.229,0.053-2.495-0.263-3.708,0.222c-0.282,0.121-0.526-0.018-0.489-0.425
		C390.733,258.801,390.1,256.905,390.383,255.119z"/>
	<path fill-rule="evenodd" clip-rule="evenodd" fill="#552276" d="M394.091,236.001c1.07-0.151,2.337,0.237,3.603-0.228
		c0.439-0.144,0.827-0.124,0.934,0.656c0.14,1.073,0.085,2.154,0.207,3.218c0.144,1.239-0.473,1.485-1.526,1.438
		c-1.09-0.04-2.177-0.032-3.252,0c-0.86,0.011-1.739-0.077-2.618,0.188c-0.704,0.235-1.563,0.103-1.317-1.02
		c0.298-1.231,0.229-2.454,0.212-3.689c0-0.512,0.243-0.581,0.648-0.563C391.966,236.016,392.913,236.001,394.091,236.001z"/>
	<path fill-rule="evenodd" clip-rule="evenodd" fill="#552276" d="M204.703,334.122c0,2.697-1.265,4.544-3.27,5.11
		c-2.458,0.688-4.724-0.763-5.5-2.741c-0.808-2.144-0.386-5.825,1.95-7.08c1.617-0.862,3.076-0.756,4.587,0
		c1.388,0.688,2.019,1.985,2.214,3.488C204.723,333.312,204.703,333.697,204.703,334.122z"/>
	<path fill-rule="evenodd" clip-rule="evenodd" fill="#552276" d="M285.426,334.226c0,2.863-1.124,4.324-3.832,5.097
		c-1.53,0.447-3.865-0.482-4.779-2.375c-1.004-2.072-0.809-5.528,1.196-7.141c1.248-1.01,2.599-1.196,4.006-0.853
		c1.563,0.38,2.725,1.336,3.197,3.021C285.407,332.742,285.407,333.469,285.426,334.226z"/>
</g>
</svg>
