<?xml version="1.0" encoding="utf-8"?>
<!-- Generator: Adobe Illustrator 16.0.0, SVG Export Plug-In . SVG Version: 6.00 Build 0)  -->
<!DOCTYPE svg PUBLIC "-//W3C//DTD SVG 1.1//EN" "http://www.w3.org/Graphics/SVG/1.1/DTD/svg11.dtd">
<svg version="1.1" id="圖層_3" xmlns="http://www.w3.org/2000/svg" xmlns:xlink="http://www.w3.org/1999/xlink" x="0px" y="0px"
	 width="500px" height="500px" viewBox="0 0 500 500" enable-background="new 0 0 500 500" xml:space="preserve">
<rect x="1.165" fill="#F8B62D" width="499.893" height="500"/>
<rect x="31.383" y="31.063" fill="#FFFFFF" width="438.241" height="441"/>
<path fill="#43425D" d="M146.241,444.42c-8.213,0-14.86-2.549-19.955-7.643c-5.094-5.098-7.643-11.751-7.643-19.956V297.521
	c-0.849,0.572-2.268,1.347-4.244,2.334c-1.985,0.996-3.543,1.773-4.671,2.336c-8.776,3.681-16.417,4.818-22.926,3.397
	c-6.515-1.414-12.597-5.656-18.255-12.737c-8.492-10.751-11.039-19.808-7.643-27.171c3.111-6.793,11.603-12.737,25.474-17.832
	c28.021-12.451,52.359-26.887,73.024-43.306H86.378c-18.117,0-27.171-9.193-27.171-27.595c0-18.111,9.054-27.173,27.171-27.173
	h51.371h78.968v-21.227c-24.346,1.983-51.657,3.396-81.939,4.246c-16.419,0.285-26.747-7.072-30.993-22.077
	c-5.944-19.808,3.111-30.145,27.171-30.993c82.079-4.246,149.723-11.889,202.939-22.927c7.07-1.697,13.161-1.413,18.255,0.85
	c4.524,1.983,9.34,6.089,14.437,12.311c18.394,21.229,14.287,34.814-12.313,40.759c-22.647,4.53-47.271,8.352-73.872,11.462v27.596
	h129.913c18.111,0,27.173,9.062,27.173,27.173c0,18.402-9.062,27.595-27.173,27.595h-72.174
	c22.355,16.419,47.403,30.429,75.147,42.031c13.585,4.816,21.931,10.615,25.048,17.407c3.111,7.079,0.424,15.995-8.067,26.746
	c-5.664,7.08-11.887,11.326-18.68,12.74c-6.229,1.131-13.871-0.142-22.926-3.825c-1.134-0.849-2.269-1.41-3.396-1.696v118.876
	c0,8.205-2.548,14.858-7.642,19.956c-5.096,5.094-11.749,7.643-19.954,7.643H146.241z M143.269,283.936h107.836h108.263
	c-28.87-16.983-55.193-37.362-78.967-61.137v20.804c0,21.227-10.614,31.841-31.843,31.841c-21.227,0-31.841-10.614-31.841-31.841
	v-21.229C195.769,245.872,171.289,266.39,143.269,283.936z M179.78,343.796h70.477h70.901v-14.007H179.78V343.796z M185.3,398.566
	h135.858v-14.011h-70.901H179.78v8.492C179.78,396.728,181.619,398.566,185.3,398.566z"/>
</svg>
