<?xml version="1.0" encoding="utf-8"?>
<!-- Generator: Adobe Illustrator 16.0.0, SVG Export Plug-In . SVG Version: 6.00 Build 0)  -->
<!DOCTYPE svg PUBLIC "-//W3C//DTD SVG 1.1//EN" "http://www.w3.org/Graphics/SVG/1.1/DTD/svg11.dtd">
<svg version="1.1" id="圖層_2" xmlns="http://www.w3.org/2000/svg" xmlns:xlink="http://www.w3.org/1999/xlink" x="0px" y="0px"
	 width="500px" height="500px" viewBox="0 0 500 500" enable-background="new 0 0 500 500" xml:space="preserve">
<rect y="1" fill="#D6E038" width="500" height="499.113"/>
<rect x="27.434" y="28.857" fill="#FFFFFF" width="445.701" height="445.113"/>
<path fill="#43425D" d="M86.37,234.51c-1.717-1.14-3.151-1.998-4.292-2.575c-1.436-0.859-3.582-2.146-6.438-3.863
	c-1.717-0.857-2.864-1.428-3.434-1.717c-19.739-9.44-23.032-23.314-9.87-41.625c9.153-13.156,20.74-17.019,34.761-11.586
	c9.152,4.009,19.163,8.871,30.04,14.59c8.294,5.149,12.875,10.802,13.732,16.952c0.859,6.155-1.576,13.376-7.295,21.67
	C120.983,244.957,105.251,247.672,86.37,234.51z M291.5,454.231c-30.041,0-50.425-5.01-61.154-15.022
	c-10.729-10.019-16.093-28.894-16.093-56.644v-64.373c-5.149,5.728-10.587,11.159-16.307,16.308
	c-4.581,3.721-9.301,5.364-14.163,4.936c-4.868-0.429-8.871-2.931-12.016-7.512c-0.577-0.857-1.502-2.072-2.789-3.645
	c-1.288-1.572-2.36-2.645-3.219-3.223c-14.879,35.769-28.899,67.664-42.056,95.7c-10.298,21.169-25.177,25.171-44.629,12.017
	c-9.16-6.299-14.881-12.303-17.167-18.023c-2.293-6.289-1.005-13.875,3.863-22.744c16.307-29.752,30.609-58.366,42.914-85.831
	c3.715-8.862,8.864-14.229,15.449-16.091c6.577-1.858,13.584,0.075,21.027,5.793l0.858,0.857
	c26.03-18.593,47.636-43.194,64.8-73.811h-30.468c-18.6,0-27.895-9.294-27.895-27.895c0-18.594,9.295-27.894,27.895-27.894h37.765
	V144.82h-26.178c-7.155,0-12.875-2.146-17.167-6.438s-6.437-10.011-6.437-17.166V95.898l-15.878,22.744
	c-4.579,6.296-9.869,10.017-15.878,11.158c-6.007,1.146-11.586-0.281-16.735-4.292c-9.73-6.29-17.595-11.01-23.604-14.161
	c-10.018-4.862-16.026-11.01-18.024-18.453c-2.004-7.437,0.141-15.449,6.438-24.032c9.723-13.156,21.886-16.737,36.476-10.729
	c23.745,10.587,41.338,20.599,52.785,30.041l-0.858,1.286h45.06V78.732c0-19.741,10.011-29.61,30.039-29.61
	c19.741,0,29.61,9.87,29.61,29.61V89.46h45.49v-9.87c0-20.311,10.152-30.469,30.468-30.469c20.311,0,30.47,10.159,30.47,30.469v9.87
	h22.744c18.307,0,27.465,9.16,27.465,27.465c0,18.6-9.158,27.895-27.465,27.895h-22.744v22.315h35.189
	c18.595,0,27.894,9.3,27.894,27.894c0,18.601-9.299,27.895-27.894,27.895h-29.181c9.722,16.307,21.456,30.898,35.188,43.771
	c10.87,8.302,17.019,16.31,18.455,24.032c1.428,8.301-2.146,17.313-10.729,27.036c-7.442,8.3-14.737,12.303-21.887,12.017
	c-6.865,0-14.59-4.003-23.173-12.017c-1.146-1.719-3.078-4.143-5.794-7.294c-2.723-3.145-4.793-5.432-6.223-6.867v30.037
	c0,8.304-2.508,14.957-7.51,19.957c-5.009,5.009-11.661,7.511-19.955,7.511h-25.318h-52.785v20.6c0,8.583,1.569,13.943,4.721,16.091
	c3.145,2.147,10.729,3.22,22.744,3.22h63.514c4.291,0,7.865-0.429,10.729-1.286c9.722-26.607,24.742-35.762,45.06-27.465
	c7.147,2.859,11.867,9.012,14.161,18.453c1.717,7.439,1.569,16.165-0.429,26.178c-4.868,14.012-12.305,23.741-22.315,29.18
	c-9.729,5.432-23.75,8.154-42.056,8.154H291.5z M259.313,251.246h41.198h41.625c-4.578-8.294-9.012-17.735-13.303-28.322h-56.646
	C267.038,235.516,262.747,244.957,259.313,251.246z M270.471,315.187h25.318h15.021c6.866,0,10.301-3.431,10.301-10.298v-7.726
	h-50.64V315.187z M277.766,167.135h45.49V144.82h-22.744h-22.746V167.135z"/>
</svg>
