<?xml version="1.0" encoding="utf-8"?>
<!-- Generator: Adobe Illustrator 16.0.0, SVG Export Plug-In . SVG Version: 6.00 Build 0)  -->
<!DOCTYPE svg PUBLIC "-//W3C//DTD SVG 1.1//EN" "http://www.w3.org/Graphics/SVG/1.1/DTD/svg11.dtd">
<svg version="1.1" id="圖層_3" xmlns="http://www.w3.org/2000/svg" xmlns:xlink="http://www.w3.org/1999/xlink" x="0px" y="0px"
	 width="500px" height="500px" viewBox="0 0 500 500" enable-background="new 0 0 500 500" xml:space="preserve">
<rect fill="#00913A" width="500" height="500"/>
<rect x="28.272" y="31.036" fill="#FFFFFF" width="440.816" height="440.997"/>
<path fill="#43425D" d="M77.506,442.018c-15.586,0-23.378-7.796-23.378-23.375s7.792-23.375,23.378-23.375h138.555v-13.176h-109.23
	c-14.17,0-21.249-7.227-21.249-21.676c0-14.165,7.079-21.252,21.249-21.252h109.23V326.84h-90.955
	c-8.221,0-14.875-2.552-19.975-7.651c-5.1-5.1-7.651-11.754-7.651-19.977v-74.803c0-8.214,2.551-14.875,7.651-19.976
	c5.1-5.1,11.754-7.649,19.975-7.649h246.086c8.215,0,14.878,2.55,19.975,7.649c5.103,5.101,7.651,11.762,7.651,19.976v74.803
	c0,8.223-2.549,14.877-7.651,19.977c-5.097,5.1-11.76,7.651-19.975,7.651h-95.205v12.324h112.206
	c14.164,0,21.249,7.087,21.249,21.252c0,14.449-7.085,21.676-21.249,21.676H275.987v13.176h141.106
	c15.578,0,23.378,7.796,23.378,23.375s-7.8,23.375-23.378,23.375H247.087H77.506z M80.479,185.308c-15.869,0-23.8-8.076-23.8-24.226
	c0-15.865,7.931-23.801,23.8-23.801h62.478c-1.699-7.365-4.109-14.165-7.223-20.4c-0.287-0.565,0-1.129,0.849-1.701h1.277h-31.454
	c-15.869,0-23.8-7.929-23.8-23.801c0-15.865,7.931-23.801,23.8-23.801H213.51v-0.85c0-6.229,3.681-11.329,11.052-15.301
	c6.516-3.399,13.601-5.1,21.252-5.1c7.928,0,15.013,1.7,21.248,5.1c7.368,3.972,11.052,9.072,11.052,15.301v0.85h112.204
	c15.865,0,23.803,7.936,23.803,23.801c0,15.872-7.938,23.801-23.803,23.801h-27.201c-3.12,6.236-6.66,13.601-10.624,22.101h60.778
	c15.862,0,23.8,7.936,23.8,23.801c0,16.15-7.938,24.226-23.8,24.226H246.663H80.479z M154.433,245.236h61.628V232.06h-31.026
	h-20.399c-6.802,0-10.203,3.399-10.203,10.2V245.236z M159.533,291.563h56.528v-13.176h-31.026h-30.602v8.075
	C154.433,289.862,156.135,291.563,159.533,291.563z M207.985,137.281h79.903c0.279-0.85,0.853-2.265,1.702-4.25
	c2.828-7.929,4.672-13.878,5.524-17.851h-47.603h-47.6C203.59,122.83,206.286,130.201,207.985,137.281z M275.987,245.236h31.454
	h31.447v-8.076c0-3.399-1.698-5.1-5.097-5.1h-57.805V245.236z M275.987,291.563h31.454h21.248c6.802,0,10.199-3.4,10.199-10.201
	v-2.975h-62.901V291.563z"/>
</svg>
