<?xml version="1.0" encoding="utf-8"?>
<!-- Generator: Adobe Illustrator 16.0.0, SVG Export Plug-In . SVG Version: 6.00 Build 0)  -->
<!DOCTYPE svg PUBLIC "-//W3C//DTD SVG 1.1//EN" "http://www.w3.org/Graphics/SVG/1.1/DTD/svg11.dtd">
<svg version="1.1" id="圖層_2" xmlns="http://www.w3.org/2000/svg" xmlns:xlink="http://www.w3.org/1999/xlink" x="0px" y="0px"
	 width="500px" height="500px" viewBox="0 0 500 500" enable-background="new 0 0 500 500" xml:space="preserve">
<rect fill="#A9252D" width="500" height="500"/>
<rect x="28.583" y="26.354" fill="#FFFFFF" width="440.999" height="444.611"/>
<path fill="#43425D" d="M253.027,449.985c-20.337,0-30.499-10.166-30.499-30.496v-12.028H94.091
	c-18.327,0-27.491-9.304-27.491-27.924c0-18.32,9.164-27.49,27.491-27.49h128.438v-15.892h-87.198
	c-8.312,0-15.037-2.579-20.19-7.733c-5.154-5.154-7.729-11.879-7.729-20.19v-98.795c0-8.302,2.575-15.035,7.729-20.189
	c5.154-5.154,11.879-7.731,20.19-7.731h87.198V168.2h-60.136c-14.893,0-22.336-7.444-22.336-22.337
	c0-14.887,7.443-22.337,22.336-22.337h60.136V110.21h-86.339c-6.875,0-10.308,3.436-10.308,10.308v7.304
	c0,19.758-9.879,29.639-29.641,29.639c-20.047,0-30.069-9.881-30.069-29.639V85.726c0-8.303,2.579-15.035,7.733-20.189
	c5.154-5.156,11.879-7.733,20.187-7.733h158.936h158.937c8.302,0,15.033,2.577,20.187,7.733c5.154,5.154,7.733,11.886,7.733,20.189
	v40.378c0,20.908-10.458,31.357-31.357,31.357c-20.909,0-31.357-10.45-31.357-31.357V110.21h-93.643v13.316h56.27
	c14.887,0,22.337,7.45,22.337,22.337c0,14.893-7.45,22.337-22.337,22.337h-56.27v13.316h93.213c8.303,0,15.033,2.577,20.188,7.731
	c5.154,5.154,7.733,11.887,7.733,20.189v98.795c0,8.312-2.579,15.036-7.733,20.19s-11.885,7.733-20.188,7.733h-93.213v15.892
	h131.441c18.324,0,27.491,9.17,27.491,27.49c0,18.62-9.167,27.924-27.491,27.924H283.526v12.028
	C283.526,439.819,273.357,449.985,253.027,449.985z M165.827,239.075h56.702v-15.464h-28.35h-18.041
	c-6.871,0-10.312,3.436-10.312,10.31V239.075z M172.271,294.061h50.257v-15.896h-28.35h-28.353v9.45
	C165.827,291.91,167.976,294.061,172.271,294.061z M283.526,239.075h30.069h30.066v-9.021c0-4.296-2.146-6.444-6.441-6.444h-53.694
	V239.075z M283.526,294.061h30.069h19.758c6.871,0,10.309-3.44,10.309-10.312v-5.584h-60.136V294.061z"/>
</svg>
