<?xml version="1.0" encoding="utf-8"?>
<!-- Generator: Adobe Illustrator 16.0.0, SVG Export Plug-In . SVG Version: 6.00 Build 0)  -->
<!DOCTYPE svg PUBLIC "-//W3C//DTD SVG 1.1//EN" "http://www.w3.org/Graphics/SVG/1.1/DTD/svg11.dtd">
<svg version="1.1" id="圖層_3" xmlns="http://www.w3.org/2000/svg" xmlns:xlink="http://www.w3.org/1999/xlink" x="0px" y="0px"
	 width="500px" height="500px" viewBox="0 0 500 500" enable-background="new 0 0 500 500" xml:space="preserve">
<rect fill="#F8B62D" width="501.479" height="500"/>
<rect x="32.071" y="29.856" fill="#FFFFFF" width="442.301" height="440.998"/>
<path fill="#69318E" d="M456.397,254.064c0,111.5-90.413,201.899-201.918,201.899c-111.525,0-201.951-90.399-201.951-201.899
	c0-111.544,90.425-201.955,201.951-201.955C365.984,52.109,456.397,142.521,456.397,254.064"/>
<path fill="#69318E" d="M460.757,252.337c0,112.592-91.277,203.872-203.892,203.872c-112.615,0-203.917-91.28-203.917-203.872
	c0-112.631,91.303-203.926,203.917-203.926C369.479,48.411,460.757,139.706,460.757,252.337"/>
<path fill="#69318E" d="M256.978,408.227c17.859-0.081,43.434-6.654,43.82-6.777c-32.441-48.708-26.429-87.163-23.401-100.034
	c2.593-11.311,6.039-25.409,26.02-76.271c17.585-44.884,8.377-68.427-2.618-79.686c-14.799-15.165-43.655-49.037-43.655-49.037
	s-28.831,33.872-43.627,49.037c-10.998,11.259-20.206,34.831-2.595,79.686c19.958,50.862,23.372,64.96,26.045,76.271
	c2.95,12.871,8.989,51.326-23.424,100.034C213.79,401.517,239.31,408.146,256.978,408.227"/>
<path fill="#FFFFFF" d="M216.656,148.539L216.656,148.539c-5.072,5.146-11.191,14.972-11.191,32.116
	c0,11.017,2.534,25.092,9.508,42.875c20.422,52.008,23.617,65.781,26.238,76.901c1.322,5.93,2.56,13.906,2.56,23.463
	c0,19.274-5.068,45.184-23.34,74.701c8.376,1.899,24.472,5.152,36.546,5.236c12.291-0.084,28.415-3.337,36.931-5.236
	c-18.301-29.53-23.398-55.427-23.398-74.701c0-9.557,1.238-17.533,2.615-23.463c2.592-11.12,5.79-24.894,26.213-76.901
	c6.971-17.783,9.533-31.858,9.533-42.875c0-17.145-6.146-26.97-11.217-32.116c-11.878-12.216-32.464-36.029-40.482-45.377
	C249.121,112.51,228.563,136.322,216.656,148.539"/>
<polygon fill="#69318E" points="257.197,163.821 239.751,328.012 257.472,390.52 275.194,328.628 "/>
<path fill="#FFFFFF" d="M244.41,327.58c0.354,1.299,8.183,28.84,13.062,46.073c4.936-17.114,12.677-44.158,13.038-45.461
	c-0.139-1.315-8.187-74.753-13.258-121.254C252.319,253.33,244.571,326.3,244.41,327.58"/>
<path fill="#69318E" d="M94.646,269.135c4.134,22.208,23.427,47.68,58.868,47.666c0,0-2.093-24.816,23.756-29.811
	c17.198-3.288,33.516,13.097,32.248,33.506c2.947,23.785-19.016,36.476-35.527,18.056c0.387,0-10.611,18.633,5.816,32.609
	c16.618,14.083,40.567,5.523,50.243-16.208c4.769-10.672,4.656-15.653,4.549-29.298c-0.055-5.504-11.549-129.092-96.023-119.033
	C114.214,209.536,88.278,234.762,94.646,269.135"/>
<path fill="#FFFFFF" d="M139.127,210.962L139.127,210.962c-12.101,1.462-23.979,8.723-31.833,19.443
	c-4.492,6.168-9.26,15.621-9.26,28.202c0,3.073,0.277,6.304,0.909,9.722c3.885,20.944,20.864,42.005,50.217,43.9
	c0.935-10.543,7.219-25.69,27.309-29.56c8.821-1.677,17.972,0.983,25.165,7.325c7.828,6.938,12.319,17.375,12.319,28.315
	c0,0.731-0.025,1.47-0.055,2.186c0.136,1.467,0.219,2.838,0.219,4.204c0,11.453-5.262,21.035-14.222,25.113
	c-7.632,3.531-16.37,2.061-23.92-3.556c-0.551,2.134-0.883,4.182-0.883,6.158c0,5.933,2.508,11.123,7.551,15.392
	c6.036,5.088,13.48,6.948,21.002,5.236c9.482-2.173,17.83-9.614,22.434-19.88c4.301-9.705,4.272-13.755,4.188-27.122v-0.329
	c-0.081-8.373-8.044-70.584-40.815-99.592C175.506,213.754,158.556,208.668,139.127,210.962"/>
<path fill="#69318E" d="M419.113,269.135c-4.134,22.208-23.453,47.666-58.842,47.653c0,0,2.125-24.832-23.785-29.798
	c-17.224-3.288-33.541,13.084-32.245,33.532c-2.946,23.759,19.046,36.449,35.499,18.029c-0.358,0,10.665,18.633-5.843,32.609
	c-16.592,14.083-40.515,5.523-50.162-16.195c-4.794-10.685-4.71-15.666-4.601-29.282c0.025-5.517,11.604-129.121,96.02-119.055
	C399.545,209.536,425.452,234.762,419.113,269.135"/>
<path fill="#FFFFFF" d="M374.632,210.962L374.632,210.962c12.101,1.441,24.008,8.71,31.858,19.443
	c4.491,6.155,9.26,15.621,9.26,28.189c0,3.073-0.3,6.316-0.935,9.734c-3.886,20.931-20.864,42.005-50.217,43.9
	c-0.936-10.543-7.245-25.69-27.283-29.56c-8.848-1.677-17.998,0.971-25.165,7.345c-7.825,6.938-12.374,17.355-12.374,28.282
	c0,0.745,0,1.471,0.087,2.199c-0.139,1.432-0.277,2.824-0.277,4.204c0,11.427,5.294,21.035,14.247,25.113
	c7.69,3.531,16.398,2.061,23.953-3.556c0.519,2.134,0.877,4.152,0.877,6.158c0,5.933-2.534,11.123-7.577,15.392
	c-6.007,5.088-13.451,6.92-21.002,5.236c-9.454-2.173-17.83-9.614-22.351-19.88c-4.382-9.705-4.327-13.755-4.243-27.135v-0.316
	c0.081-8.373,8.077-70.597,40.789-99.605C338.25,213.754,355.203,208.668,374.632,210.962"/>
<path fill="#69318E" d="M161.561,251.856c-6.945-2.57-9.702-5.41-9.702-5.41s5.239-0.597,6.919-0.79
	c1.651-0.249,3.389-3.045,4.107-4.39c0.716-1.345-0.832-1.137-2.15-1.055c-1.351,0.137-9.289,1.158-10.227,1.158
	c-0.964,0-0.964-0.103-0.964-0.627c0-0.531-0.716-2.164,1.986-3.548c2.673-1.336,4.104-3.618,3.611-4.563
	c-0.525-0.928-3.56,0.097-5.98,0.511c-2.483,0.434-7.69,1.067-9.208,0.729c-1.541-0.295-3.002-0.598-3.524,0.2
	c-0.5,0.869-0.197,1.676,0.632,2.302c0.825,0.635,3.83,0.821,5.375,1.564c1.516,0.726,1.764,4.177,1.764,4.177
	s-11.904,0.935-14,1.025c-2.066,0.084-3.943,0.717-3.998,2.517c-0.109,1.734,1.158,2.051,2.37,1.947
	c1.241-0.103,9.314-0.619,10.75-0.729c1.46-0.097,1.351,0.206,0.825,0.951c-0.525,0.716-3.085,2.286-6.255,4.03
	c-3.06,1.77-5.43,2.212-6.971,2.608c-1.544,0.419-2.702,0.193-3.943,1.045c-1.267,0.825-0.413,2.589,2.18,3.753
	c2.589,1.125,6.033,0.399,8.68-1.261c2.699-1.667,8.986-6.648,9.702-7.284c0.745-0.606,0.661-0.094,0.745,0.309v5.83
	c-1.351-0.091-5.294,0.851-6.013,0.932c-0.712,0.126-1.841-0.081-2.147,2.715c-0.329,2.812,0,7.174,0.413,9.979
	c0.416,2.814,1.351,3.649,2.979,4.578c1.683,0.945,10.637,0.945,14,0.732c3.279-0.207,4.301-3.743,5.265-8.322
	c0.935-4.562,1.128-7.276-0.303-9.047c-1.464-1.76-9.428-1.657-9.428-1.657c-0.219-1.16,0.219-4.353,0.219-5.739
	c0-1.341,0.69-1.431,1.519-0.818c0.796,0.622,8.405,6.455,11.082,7.89c2.702,1.474,4.323,0.642,4.878,0
	c0.493-0.622,1.29-1.028,2.534-2.189C170.544,254.787,168.506,254.465,161.561,251.856 M153.791,269.025
	c0.106,1.657-1.322,2.611-2.812,3.024c-1.435,0.399-4.301,0.535-7.222,0.103c-2.867-0.426-2.699-1.767-2.728-2.715
	c-0.139-0.928-0.164-1.566,1.1-1.566c0.306,0,7.551-0.4,9.73-0.503C153.984,267.249,153.707,267.368,153.791,269.025 M153.156,260.8
	c0.635,0.51,0.055,2.516-0.8,3.031c-0.825,0.513-5.868,0.422-7.248,0.297c-1.351-0.091-3.83,0.719-4.217-1.538
	c-0.413-2.299,3.499-2.025,6.288-2.086C151.228,260.388,152.33,260.146,153.156,260.8"/>
<path fill="#69318E" d="M348.119,234.631c-1.764,0.979-1.435,1.646,0,3.666c1.436,2.052,4.491,4.927,6.339,3.389
	c1.818-1.543-0.08-3.567-1.044-4.63C352.417,235.98,350.985,232.983,348.119,234.631"/>
<path fill="#69318E" d="M350.985,248.171c-1.737-1.599-2.176-2.231-2.976-2.992c-0.773-0.764-2.618-1.248-3.859,0.38
	c-1.544,2.063-0.164,4.262,2.782,5.896c3.005,1.661,6.313,3.009,7.332,1.087C355.342,250.602,351.976,249.051,350.985,248.171"/>
<path fill="#69318E" d="M350.599,259.784c1.158,0.678,0.716,3.482-0.438,5.424c-1.212,1.928-3.585,6.5-5.403,5.217
	c-1.822-1.255-1.822-2.982-1.654-4.237c0.303-1.935,0.497-2.144,1.435-2.921c0.993-0.768,3.473-2.089,4.05-2.805
	C349.471,259.401,350.599,259.784,350.599,259.784"/>
<path fill="#69318E" d="M391.855,255.935c-2.23-0.722-12.455-4.072-13.006-6.951c0,0,4.381,0.187,5.706-0.097
	c1.213-0.277,3.031-2.447,3.306-3.708c0.248-1.274,0.525-1.542-1.022-1.542c-1.512,0-6.2-0.195-6.555-0.195
	c-0.358,0-1.764-0.055-1.603-2.273c0.058-1.427,1.132-1.427,1.877-1.53c0.744-0.082,3.06-0.082,3.14-2.081
	c0.084-1.998-1.544-1.522-2.176-1.522h-2.231c0,0-0.909,0-0.909-1.178c0-1.199-0.084-3.348-0.084-3.348s0.277-1.104-2.176-1.104
	c-2.425,0-1.958,1.344-1.958,2.33c0,1.021,0.081,2.908,0.081,2.908s0.113,0.937-0.773,1.117c-1.209,0.213-4.379,0.419-4.379,0.419
	l-0.664-0.331c0,0,0.277-3.19,0-4.051c-0.3-0.868-1.351-1.564-2.698-1.943c-1.352-0.373-2.896-0.779-3.115,0.867
	c-0.167,1.661,0.522,5.609,0.522,5.609l-2.698,0.317c-0.413,0.082-1.077,0.667-1.077,1.42c0,0.798-0.081,1.665,0.387,1.858
	c0.522,0.187,1.348,0.097,2.15,0.097c0.716,0,1.793-0.193,1.793,0.366v2.808c0,0-3.943,0.593-4.823,0.69
	c-0.825,0.09-1.6,0.671-1.6,2.315c0,1.648,1.432,1.258,2.012,1.258h2.618c0,0,0.636-0.355,0.274,0.99
	c-0.413,1.351-0.964,4.12-4.437,7.028c-3.473,2.922-4.823,3.499-4.937,4.188c-0.08,0.668,0.113,1.722,1.106,2.599
	c0.935,0.884,2.176,1.354,4.298,0c2.096-1.38,4.52-4.036,5.487-6.574c0,0,0.193-0.387,0.3,0.584
	c0.113,0.979,0.387,7.635,0.664,9.669c0.3,2.041,0.468,2.608,1.764,3.183c1.238,0.6,8.157,2.321,12.678,2.321
	s5.207-0.178,5.758-2.502c0.577-2.321-1.324-2.618-2.479-2.618c-1.161,0-9.644-0.277-11.466-0.681
	c-1.818-0.377-2.289-0.377-2.289-1.145v-1.866c0,0,4.162-0.626,5.623-0.88c1.464-0.297,1.351-0.465,2.153-2.296
	c0.826-1.786,1.899-5.249,1.899-6.52c0,0,7.471,7.161,8.38,8.093c0.909,0.902,2.009,1.354,2.698,0.806
	c0.745-0.548,3.834-3.73,4.053-4.742C393.678,257.121,394.145,256.664,391.855,255.935 M368.486,240.734l4.711-0.088
	c0.609,0,1.048,0.088,1.048,0.902c0,0.819,0.113,2.535-0.354,2.612c-0.419,0.103-3.998,0.551-4.662,0.193
	c-0.742-0.361-1.377-0.993-1.458-2.081C367.658,241.17,367.909,240.909,368.486,240.734 M372.784,258.676
	c-0.303,0.435-2.26,0.36-3.14,0.36c-0.884,0-1.158,0.074-1.322-0.477l-0.307-2.789l0.745-0.448h3.721l0.884,0.902L372.784,258.676z
	 M374.164,251.676c-1.324,0.146-7.47-0.074-7.47-0.074l1.157-3.63c0.471-0.625,1.516-0.806,2.866-0.703
	c1.764,0.104,2.893,0.426,3.446,1.142c0.552,0.761,1.709,1.999,1.625,2.36C375.596,251.408,375.074,251.602,374.164,251.676"/>
<path fill="#69318E" d="M327.036,320.315c0,7.629-6.177,13.832-13.754,13.832h-112.17c-7.58,0-13.754-6.203-13.754-13.832
	c0-7.625,6.174-13.825,13.754-13.825h112.17C320.859,306.49,327.036,312.69,327.036,320.315"/>
<path fill="#FFFFFF" d="M201.112,310.869c-5.181,0-9.373,4.229-9.373,9.446c0,5.188,4.191,9.435,9.373,9.435h112.17
	c5.181,0,9.398-4.247,9.398-9.435c0-5.217-4.218-9.446-9.398-9.446H201.112z"/>
<polygon fill="#69318E" points="210.565,326.925 208.638,326.925 208.638,321.006 202.599,321.006 202.599,326.925 200.642,326.925 
	200.642,314.105 202.599,314.105 202.599,319.332 208.638,319.332 208.638,314.105 210.565,314.105 "/>
<path fill="#69318E" d="M224.126,322.411l-0.471,1.103l-1.212,1.315c-0.661,0.406-1.325,0.613-2.07,0.613
	c-1.157,0-2.063-0.371-2.779-1.148c-0.829-0.87-1.27-2.15-1.27-3.811c0-1.709,0.441-3.04,1.296-3.862
	c0.716-0.716,1.596-1.109,2.753-1.109c1.216,0,2.18,0.483,2.896,1.341c0.719,0.858,1.048,2.083,1.048,3.596
	C224.317,321.173,224.262,321.854,224.126,322.411 M224.813,315.74c-1.1-1.254-2.589-1.88-4.44-1.88
	c-2.008,0-3.553,0.684-4.63,2.045c-0.906,1.229-1.402,2.721-1.402,4.543c0,2.005,0.551,3.588,1.596,4.829
	c1.022,1.229,2.509,1.854,4.385,1.854c1.902,0,3.392-0.626,4.491-1.896c1.022-1.199,1.541-2.782,1.541-4.752
	C226.354,318.539,225.835,316.969,224.813,315.74"/>
<polygon fill="#69318E" points="238.922,326.925 236.965,326.925 231.207,317.865 230.958,317.298 230.82,317.414 230.878,318.375 
	230.878,326.925 229.082,326.925 229.082,314.105 231.039,314.105 236.333,322.569 236.827,323.347 237.078,323.92 237.214,323.727 
	237.133,322.212 237.133,314.105 238.922,314.105 "/>
<path fill="#69318E" d="M254.356,325.146c-0.716,0.625-1.515,1.103-2.479,1.435c-0.909,0.371-1.844,0.552-2.837,0.552
	c-1.96,0-3.447-0.626-4.604-1.854c-1.103-1.229-1.654-2.789-1.654-4.781c0-1.677,0.387-3.156,1.241-4.32
	c1.1-1.544,2.728-2.315,4.933-2.315c2.866,0,4.63,1.226,5.21,3.708l-1.847,0.4c-0.249-0.884-0.745-1.535-1.435-1.961
	c-0.522-0.315-1.183-0.496-1.928-0.496c-1.544,0-2.647,0.587-3.389,1.725c-0.551,0.819-0.829,1.854-0.829,3.079
	c0,1.573,0.332,2.734,0.964,3.631c0.745,0.974,1.821,1.496,3.253,1.496c0.771,0,1.49-0.165,2.234-0.522l1.212-0.807v-2.134h-3.336
	v-1.664h5.291V325.146z"/>
<polygon fill="#69318E" points="273.537,326.925 271.032,326.925 266.786,320.689 264.968,322.683 264.968,326.925 263.014,326.925 
	263.014,314.105 264.968,314.105 264.968,320.448 270.591,314.105 273.044,314.105 268.137,319.332 "/>
<path fill="#69318E" d="M285.254,322.411l-0.412,1.103l-1.245,1.315c-0.632,0.406-1.289,0.613-2.063,0.613
	c-1.103,0-2.041-0.371-2.728-1.148c-0.912-0.87-1.296-2.15-1.296-3.811c0-1.709,0.412-3.04,1.296-3.862
	c0.687-0.716,1.625-1.109,2.728-1.109c1.213,0,2.202,0.483,2.893,1.341c0.716,0.858,1.103,2.083,1.103,3.596
	C285.528,321.173,285.393,321.854,285.254,322.411 M285.999,315.74c-1.103-1.254-2.593-1.88-4.466-1.88
	c-1.957,0-3.501,0.684-4.575,2.045c-0.967,1.229-1.432,2.721-1.432,4.543c0,2.005,0.52,3.588,1.57,4.829
	c1.07,1.229,2.561,1.854,4.379,1.854c1.931,0,3.421-0.626,4.523-1.896c1.019-1.199,1.541-2.782,1.541-4.752
	C287.54,318.539,287.018,316.969,285.999,315.74"/>
<polygon fill="#69318E" points="300.082,326.925 298.125,326.925 292.393,317.865 292.086,317.298 291.979,317.414 292.061,318.375 
	292.061,326.925 290.268,326.925 290.268,314.105 292.225,314.105 297.49,322.569 297.961,323.347 298.261,323.92 298.373,323.727 
	298.318,322.212 298.318,314.105 300.082,314.105 "/>
<path fill="#69318E" d="M315.514,325.146c-0.688,0.625-1.513,1.103-2.451,1.435c-0.912,0.371-1.876,0.552-2.84,0.552
	c-1.957,0-3.473-0.626-4.63-1.854c-1.1-1.229-1.681-2.789-1.681-4.781c0-1.677,0.442-3.156,1.268-4.32
	c1.077-1.544,2.754-2.315,4.962-2.315c2.866,0,4.598,1.226,5.21,3.708l-1.876,0.4c-0.248-0.884-0.716-1.535-1.432-1.961
	c-0.525-0.315-1.157-0.496-1.902-0.496c-1.57,0-2.647,0.587-3.392,1.725c-0.552,0.819-0.825,1.854-0.825,3.079
	c0,1.573,0.332,2.734,0.964,3.631c0.744,0.974,1.844,1.496,3.253,1.496c0.771,0,1.457-0.165,2.202-0.522l1.212-0.807l0.032-2.134
	h-3.34v-1.664h5.266V325.146z"/>
</svg>
