<?xml version="1.0" encoding="utf-8"?>
<!-- Generator: Adobe Illustrator 16.0.0, SVG Export Plug-In . SVG Version: 6.00 Build 0)  -->
<!DOCTYPE svg PUBLIC "-//W3C//DTD SVG 1.1//EN" "http://www.w3.org/Graphics/SVG/1.1/DTD/svg11.dtd">
<svg version="1.1" id="圖層_3" xmlns="http://www.w3.org/2000/svg" xmlns:xlink="http://www.w3.org/1999/xlink" x="0px" y="0px"
	 width="500px" height="500px" viewBox="0 0 500 500" enable-background="new 0 0 500 500" xml:space="preserve">
<rect fill-rule="evenodd" clip-rule="evenodd" fill="#DB1D22" width="500.912" height="500"/>
<path fill-rule="evenodd" clip-rule="evenodd" fill="#FFFFFF" d="M317.32,393.204c-9.976,6.43-19.859,13.037-29.965,19.232
	c-8.6,5.271-17.58,10.017-26.27,15.167c-8.441,5.028-16.292,3.239-24.009-1.539c-2.782-1.717-5.43-3.611-8.612-4.485
	c-1.822-1.726-4.26-2.405-6.207-3.936c-1.721-1.19-3.421-2.43-5.644-2.413c-8.365-5.248-16.977-10.074-24.909-15.985
	c-0.458-0.632-0.943-1.247-1.433-1.895c-0.777-1.458-2.705-1.507-3.6-2.834c-7.163-3.92-13.551-8.899-19.608-14.325
	c-5.936-5.239-12.021-10.292-18.386-14.997c-1.919-0.348-3.134-1.481-3.696-3.336c-3.215-3.037-6.053-6.446-9.782-8.916
	c-18.621-17.572-35.865-36.31-48.946-58.53c-3.948-6.851-7.608-13.839-11.211-20.859l0.016,0.057
	c-2.563-3.911-4.729-7.968-5.316-12.705c-7.122-16.329-9.442-33.557-9.616-51.182c-0.024-2.458-0.016-4.895-0.024-7.333
	c0.178-5.899,0.514-11.758,1.66-17.56c2.122-16.333,7.709-31.435,16.9-45.116c2.429-2.77,4.879-5.523,6.705-8.77
	c2.235-3.519,4.583-6.996,8.555-8.847c1.696-0.834,3.267-1.862,4.656-3.187c12.219-9.952,26.147-16.313,41.594-19.402
	c7.612-2.381,15.6-2.409,23.406-3.571c3.187,0,6.369,0,9.539,0c6.264,1.021,12.665,1.324,18.694,3.478
	c15.507,3.778,28.467,11.823,39.824,22.908c3.008,2.928,5.948,5.952,9.005,8.855c1.838,1.522,2.624,4.065,4.915,5.142
	c2.717,1.348,3.596,6.717,8.737,1.028c9.345-10.336,19.151-20.629,31.31-28.038c0.826-0.522,1.798-0.806,2.697-1.219
	c1.668-0.871,3.636-1.174,5.085-2.47c10.159-6,21.382-8.608,32.974-9.58c12.645-1.081,25.14,0.292,37.343,4.033
	c2.887,0.907,5.932,1.288,8.907,1.927c3.025,1.077,5.965,2.328,8.767,3.858c15.11,6.462,26.848,17.22,37.581,29.297
	c2.024,1.028,1.951,3.268,2.798,4.968c20.508,32.832,22.544,68.591,15.361,105.27c-2.96,15.07-10.305,28.965-17.693,42.553
	c-1.053,1.839-2.798,3.19-3.596,5.199c-6.049,10.705-13.786,20.276-21.471,29.815c-1.628,2.041-3.47,3.871-4.475,6.309
	c-5.891,7.198-12.539,13.677-19.118,20.22c-3.555,3.077-6.871,6.381-10.377,9.507c-2.373,1.522-4.737,3.044-6.041,5.7
	c-5.248,5.19-11.459,9.199-17.001,14.025c-0.385,0.389-0.762,0.745-1.154,1.117C329.553,383.827,324.787,390.435,317.32,393.204z"/>
</svg>
