<?xml version="1.0" encoding="utf-8"?>
<!-- Generator: Adobe Illustrator 16.0.0, SVG Export Plug-In . SVG Version: 6.00 Build 0)  -->
<!DOCTYPE svg PUBLIC "-//W3C//DTD SVG 1.1//EN" "http://www.w3.org/Graphics/SVG/1.1/DTD/svg11.dtd">
<svg version="1.1" id="圖層_2" xmlns="http://www.w3.org/2000/svg" xmlns:xlink="http://www.w3.org/1999/xlink" x="0px" y="0px"
	 width="500px" height="500px" viewBox="0 0 500 500" enable-background="new 0 0 500 500" xml:space="preserve">
<rect fill-rule="evenodd" clip-rule="evenodd" fill="#E4E539" width="499.822" height="500"/>
<path fill-rule="evenodd" clip-rule="evenodd" fill="#FFFFFF" d="M436.537,245.595c-4.095,10.472-11.698,14.271-22.888,13.942
	c-20.176-0.599-40.397-0.147-60.594-0.18c-15.526-0.017-19.351-3.131-23.877-18.399c-3.036-10.217-6.767-20.254-9.684-30.512
	c-1.276-4.526-2.307-5.773-6.8-2.876c-19.281,12.478-38.719,24.73-58.242,36.798c-3.89,2.388-4.049,4.354-2.224,8.305
	c13.172,28.465,24.559,57.762,38.87,85.714c7.387,14.395,0.341,27.524-15.817,27.722c-40.713,0.46-81.435,0.312-122.147,0.017
	c-11.255-0.066-18.173-7.501-18.059-17.637c0.099-10.496,7.209-17.472,19.302-17.595c27.767-0.287,55.534-0.082,83.412-0.082
	c0.911-3.463-1.83-5.146-3.312-7.263c-17.66-24.939-35.419-49.806-53.084-74.746c-14.932-21.062-13.75-33.097,6.496-49.321
	c20.66-16.565,44.524-28.378,66.708-42.732c6.856-4.456,13.75-8.892,20.894-12.843c4.608-2.532,3.96-4.165,0.48-7.218
	c-11.576-10.242-23.036-20.631-34.275-31.238c-3.647-3.459-7.193-4.186-11.94-3.18c-23.098,4.875-46.211,9.573-69.35,14.21
	c-15.129,3.028-25.732-4.112-25.371-17.017c0.254-9.15,5.478-14.854,13.988-16.631c29.256-6.105,58.595-11.76,87.893-17.603
	c6.291-1.255,11.781,0.554,16.819,4.271c23.536,17.382,47.877,33.836,70.335,52.531c11.694,9.745,18.929,24.369,23.159,39.264
	c5.33,18.719,9.306,37.833,13.52,56.876c1.084,4.928,3.106,6.573,8.187,6.462c14.813-0.349,29.679,0.353,44.483-0.279
	c11.124-0.493,18.638,3.648,23.118,13.647C436.537,240.535,436.537,243.071,436.537,245.595z"/>
<path fill-rule="evenodd" clip-rule="evenodd" fill="#FFFFFF" d="M381.586,46.654c5.133,2.938,11.132,3.5,16.212,6.84
	c17.513,11.465,25.092,32.375,18.325,51.837c-6.68,19.204-26.449,32.338-45.247,30.028c-21.451-2.655-38.147-18.588-40.421-38.583
	c-2.393-21.095,9.536-40.307,29.261-47.578c2.228-0.837,5.228,0.201,6.713-2.544C371.467,46.654,376.519,46.654,381.586,46.654z"/>
<path fill-rule="evenodd" clip-rule="evenodd" fill="#FFFFFF" d="M146.664,472.941c-16.327-9.896-17.656-20.278-4.157-33.827
	c16.672-16.767,33.553-33.352,50.102-50.225c3.611-3.692,7.263-5.153,12.383-5.039c15.884,0.296,31.772,0.099,47.151,0.099
	c1.243,3.283-0.546,4.079-1.56,5.006c-29.002,26.204-58.037,52.383-87.101,78.513c-2.261,2.027-4.875,3.652-7.345,5.474
	C152.987,472.941,149.828,472.941,146.664,472.941z"/>
<path fill-rule="evenodd" clip-rule="evenodd" fill="#FFFFFF" d="M74.626,152.757c10.422,0.181,20.845,0.505,31.271,0.525
	c31.431,0.07,62.879,0.017,94.507,1.021c-8.112,7.173-14.604,17.46-25.658,17.058c-31.074-1.157-62.202-0.41-93.317-0.377
	c-2.265,0-4.542,0.468-6.803,0.718C74.626,165.392,74.626,159.052,74.626,152.757z"/>
<path fill-rule="evenodd" clip-rule="evenodd" fill="#FFFFFF" d="M93.559,260.744c29.573-0.173,59.128-0.477,88.713-0.436
	c6.631,0,6.348,11.104,10.578,15.175c-0.176,0.779-0.332,1.534-0.484,2.306c-32.945,0-65.87,0-98.808,0
	C93.559,272.118,93.559,266.423,93.559,260.744z"/>
<path fill-rule="evenodd" clip-rule="evenodd" fill="#FFFFFF" d="M93.559,207.692c5.343-1.854,10.755-0.767,16.134-0.796
	c22.868-0.152,45.731-0.074,69.038-0.074c-0.538,2.015-1.067,3.11-1.1,4.227c-0.263,14.321-6.603,13.516-13.476,13.418
	c-23.536-0.271-47.073,0.139-70.597,0.279C93.559,219.067,93.559,213.384,93.559,207.692z"/>
</svg>
