<?xml version="1.0" encoding="utf-8"?>
<!-- Generator: Adobe Illustrator 16.0.0, SVG Export Plug-In . SVG Version: 6.00 Build 0)  -->
<!DOCTYPE svg PUBLIC "-//W3C//DTD SVG 1.1//EN" "http://www.w3.org/Graphics/SVG/1.1/DTD/svg11.dtd">
<svg version="1.1" id="圖層_3" xmlns="http://www.w3.org/2000/svg" xmlns:xlink="http://www.w3.org/1999/xlink" x="0px" y="0px"
	 width="500px" height="500px" viewBox="0 0 500 500" enable-background="new 0 0 500 500" xml:space="preserve">
<rect fill-rule="evenodd" clip-rule="evenodd" fill="#EDB033" width="500" height="500"/>
<path fill-rule="evenodd" clip-rule="evenodd" fill="#FFFFFF" d="M58.487,130.135c-10.437,0.823-18.979-4.991-26.684-12.951
	c-5.867-6.05-8.107-13.849-3.233-22.314c4.543-7.884,10.92-10.88,17.315-4.114c12.41,13.121,20.893,5.751,30.239-6.408
	c34.165-44.486,62.021-44.459,96.199-0.823c14.972,19.113,19.386,19.189,33.941,0.545c34.818-44.611,61.913-44.848,96.181-0.845
	c15.312,19.654,19.918,19.627,35.157-0.152c33.566-43.556,60.957-43.708,94.772,0.236c9.113,11.842,17.544,20.128,30.348,7.688
	c6.725-6.551,12.838-2.598,17.082,5.326c4.185,7.812,1.864,14.789-3.015,20.951c-12.825,16.206-35.18,17.521-50.962,1.94
	c-7.279-7.182-13.299-16.376-20.19-24.233c-13.862-15.799-27.407-15.746-41.288-0.228c-0.778,0.863-1.503,1.797-2.245,2.701
	c-36.911,45.005-47.151,45.059-84.094,0.425c-16.47-19.882-30.476-19.73-46.937,0.582c-4.069,5.017-7.897,10.353-12.024,15.28
	c-18.594,22.171-40.198,22.176-59.177,0.13c-34.715-40.345-37.384-40.341-71.12,0.156C78.418,126.419,71.08,130.332,58.487,130.135z
	"/>
<path fill-rule="evenodd" clip-rule="evenodd" fill="#FFFFFF" d="M49.315,239.862c-10.441,0.823-18.992-4.986-26.701-12.955
	c-5.845-6.046-8.094-13.845-3.215-22.311c4.543-7.888,10.916-10.88,17.315-4.119c12.405,13.125,20.884,5.756,30.226-6.403
	c34.178-44.486,62.034-44.455,96.204-0.819c14.976,19.108,19.403,19.18,33.945,0.542c34.828-44.611,61.914-44.853,96.186-0.846
	c15.303,19.654,19.913,19.627,35.153-0.152c33.562-43.551,60.961-43.708,94.777,0.237c9.109,11.842,17.538,20.132,30.342,7.692
	c6.726-6.556,12.83-2.603,17.078,5.317c4.194,7.822,1.869,14.798-3.005,20.96c-12.826,16.206-35.189,17.512-50.976,1.936
	c-7.275-7.177-13.295-16.38-20.187-24.228c-13.857-15.804-27.394-15.746-41.289-0.229c-0.769,0.859-1.493,1.798-2.244,2.701
	c-36.906,45-47.151,45.059-84.098,0.425c-16.456-19.886-30.468-19.734-46.937,0.577c-4.065,5.022-7.888,10.353-12.016,15.285
	c-18.599,22.172-40.193,22.172-59.168,0.125c-34.724-40.346-37.389-40.341-71.138,0.157
	C69.234,236.15,61.904,240.063,49.315,239.862z"/>
<path fill-rule="evenodd" clip-rule="evenodd" fill="#FFFFFF" d="M49.924,349.588c-10.442,0.823-18.983-4.981-26.692-12.95
	c-5.849-6.046-8.099-13.85-3.215-22.314c4.534-7.884,10.907-10.885,17.306-4.114c12.41,13.12,20.897,5.756,30.23-6.403
	c34.179-44.496,62.034-44.46,96.212-0.823c14.963,19.108,19.39,19.185,33.942,0.541c34.813-44.611,61.908-44.848,96.181-0.845
	c15.299,19.649,19.913,19.631,35.158-0.152c33.557-43.552,60.947-43.708,94.769,0.241c9.118,11.842,17.552,20.124,30.346,7.688
	c6.722-6.547,12.839-2.603,17.078,5.322c4.194,7.82,1.869,14.797-3.005,20.95c-12.83,16.206-35.186,17.521-50.976,1.94
	c-7.271-7.182-13.295-16.376-20.186-24.229c-13.862-15.804-27.404-15.745-41.289-0.232c-0.773,0.867-1.498,1.807-2.245,2.705
	c-36.906,45.001-47.146,45.054-84.093,0.425c-16.471-19.891-30.472-19.729-46.937,0.581c-4.061,5.014-7.902,10.353-12.021,15.277
	c-18.603,22.18-40.202,22.18-59.176,0.134c-34.72-40.351-37.38-40.341-71.125,0.152C69.864,345.877,62.508,349.785,49.924,349.588z"
	/>
<path fill-rule="evenodd" clip-rule="evenodd" fill="#FFFFFF" d="M49.911,454.096c-10.447,0.814-18.997-4.99-26.707-12.96
	c-5.849-6.046-8.084-13.844-3.206-22.305c4.534-7.889,10.912-10.885,17.311-4.124c12.4,13.121,20.893,5.761,30.221-6.402
	c34.183-44.486,62.034-44.451,96.216-0.815c14.963,19.105,19.39,19.185,33.938,0.537c34.822-44.611,61.913-44.853,96.181-0.85
	c15.308,19.649,19.913,19.633,35.158-0.144c33.566-43.563,60.956-43.707,94.772,0.243c9.118,11.832,17.548,20.123,30.342,7.673
	c6.729-6.537,12.839-2.584,17.082,5.33c4.19,7.817,1.874,14.794-3.009,20.956c-12.821,16.197-35.189,17.512-50.976,1.94
	c-7.267-7.182-13.295-16.385-20.176-24.229c-13.868-15.813-27.404-15.75-41.299-0.231c-0.769,0.857-1.494,1.796-2.24,2.7
	c-36.91,45.005-47.147,45.058-84.098,0.42c-16.461-19.882-30.463-19.729-46.933,0.582c-4.065,5.017-7.897,10.348-12.025,15.283
	c-18.598,22.173-40.193,22.182-59.172,0.126c-34.71-40.336-37.384-40.336-71.134,0.152
	C69.833,450.375,62.494,454.284,49.911,454.096z"/>
</svg>
