<?xml version="1.0" encoding="utf-8"?>
<!-- Generator: Adobe Illustrator 16.0.0, SVG Export Plug-In . SVG Version: 6.00 Build 0)  -->
<!DOCTYPE svg PUBLIC "-//W3C//DTD SVG 1.1//EN" "http://www.w3.org/Graphics/SVG/1.1/DTD/svg11.dtd">
<svg version="1.1" id="圖層_2" xmlns="http://www.w3.org/2000/svg" xmlns:xlink="http://www.w3.org/1999/xlink" x="0px" y="0px"
	 width="500px" height="500px" viewBox="0 0 500 500" enable-background="new 0 0 500 500" xml:space="preserve">
<rect fill-rule="evenodd" clip-rule="evenodd" fill="#B0851E" width="500" height="500"/>
<path fill-rule="evenodd" clip-rule="evenodd" fill="#FFFFFF" d="M250.655,44.988c0.177,0,0.338,0,0.543,0
	c2.256,2.795,4.596,5.557,6.912,8.3c4.922,5.927,10.133,11.613,15.514,17.118c5.549,5.69,11.247,11.215,16.904,16.772
	c4.375,4.271,8.754,8.484,13.013,12.783c4.809,4.93,9.465,9.992,13.334,15.626c3.522,5.059,6.092,10.507,7.435,16.486
	c1.548,6.957,2.666,13.969,2.514,21.139c-0.121,5.059-0.877,10-1.822,14.942c-2.634,13.161-6.92,25.904-11.536,38.57
	c-3.695,10.033-7.66,19.989-11.701,29.929c-4.162,10.318-8.396,20.612-11.887,31.123c-4.842,14.38-9.438,28.808-12.59,43.653
	c-0.281,1.335-0.281,1.335,1.182,1.335c1.376,0,2.783-0.048,4.15,0c1.018,0.017,1.504-0.306,1.721-1.255
	c0.921-4.085,1.918-8.202,3.101-12.24c2.621-8.846,5.839-17.499,9.144-26.089c3.651-9.36,7.922-18.473,12.719-27.327
	c6.479-11.854,13.957-23.041,23.238-33.085c7.499-8.179,15.996-15.212,25.875-20.66c9.479-5.224,19.644-8.46,30.477-9.912
	c3.209-0.479,6.413-0.74,9.599-0.704c10.306,0.117,20.302,1.81,29.775,5.706c7.496,3.068,14.428,7.065,20.54,12.2
	c13.555,11.452,21.875,25.643,24.875,42.644c0.446,2.332,0.574,4.648,0.574,7.013c-0.032,5.059,0.25,10.117-0.563,15.135
	c-1.029,6.209-2.924,12.16-5.626,17.919c-3.301,7.189-7.82,13.534-13.366,19.309c-5.44,5.687-11.757,10.351-18.818,14.114
	c-8.581,4.641-17.813,7.447-27.649,8.653c-4.109,0.515-8.247,0.691-12.429,0.595c-0.378-0.031-0.78-0.096-1.202-0.128
	c-1.05-0.097-1.528-0.636-1.701-1.673c-0.486-2.622-0.945-5.324-1.757-7.946c-3.704-11.323-11.019-19.735-22.522-24.608
	c-3.989-1.689-8.07-2.461-12.385-2.687c-11.006-0.579-20.303,3.016-28.225,10.157c-4.125,3.74-7.182,8.211-9.349,13.205
	c-0.064,0.121-0.129,0.242-0.129,0.37c-0.454,1.158-0.402,1.295,0.889,1.295c2.316,0,4.572,0.017,6.876,0
	c3.503-0.064,6.764,0.7,9.756,2.316c6.313,3.378,9.943,8.541,10.226,15.473c0.293,7.303-4.693,14.154-12.067,17.065
	c-2.634,1.063-5.396,1.545-8.248,1.577c-1.636,0.063-3.305,0-4.949,0.016c-1.42,0-1.508,0.177-0.997,1.447
	c1.254,2.912,3.16,5.421,5.665,7.447c9.209,7.664,23.531,8.042,33.219,0.965c2.026-1.495,3.771-3.257,5.199-5.323
	c0.716-1.054,1.086-1.054,1.757-0.024c2.719,3.925,4.303,8.228,4.701,12.924c0.856,9.618-2.859,17.717-9.145,24.963
	c-4.495,5.179-10.008,9.104-16.675,11.372c-6.708,2.283-13.479,2.638-20.399,1.062c-8.384-1.946-15.582-5.855-21.875-11.38
	c-7.218-6.232-12.373-13.776-16.048-22.221c-2.751-6.386-4.375-13.101-4.85-20.009c-0.032-0.885-0.35-1.271-1.278-1.238
	c-0.881,0.063-1.777,0.063-2.622,0c-0.945-0.032-1.271,0.257-1.194,1.238c0.249,3.603,0.78,7.189,1.451,10.744
	c2.015,11.018,5.288,21.714,9.515,32.169c2.577,6.434,5.589,12.658,8.951,18.754c3.996,7.246,8.428,14.283,13.454,20.975
	c1.548,2.074,1.451,2.315-1.138,2.943c-8.115,2.011-16.298,3.779-24.585,4.89c-7.202,0.965-14.331,1.681-21.626,1.833
	c-7.117,0.105-14.222,0.105-21.352,0.049c-10.121-0.049-20.154-1.255-30.122-2.896c-6.064-0.997-12.023-2.453-18.015-3.925
	c-2.473-0.61-2.537-0.756-1.118-2.686c6.164-8.315,11.432-17.122,15.992-26.266c6.554-13.254,11.605-26.966,14.866-41.249
	c1.134-4.962,1.938-9.956,2.513-14.998c0.173-1.287-0.089-1.513-1.432-1.561c-0.647-0.016-1.291-0.016-1.95-0.016
	c-1.842,0.016-1.995,0.063-2.091,1.753c-0.205,3.442-0.78,6.796-1.636,10.101c-2.642,10.085-7.314,19.188-14.496,27.054
	c-5.014,5.501-10.897,9.997-17.898,13.085c-5.818,2.565-11.938,4.062-18.376,3.804c-8.473-0.354-15.879-3.281-22.337-8.484
	c-5.074-4.045-9.059-8.919-11.597-14.789c-3.997-9.377-3.627-18.514,1.693-27.433c0.097-0.12,0.185-0.249,0.282-0.41
	c0.792-1.085,1.214-1.142,1.994-0.016c1.267,1.656,2.61,3.281,4.279,4.584c3.683,2.919,7.885,4.648,12.566,5.275
	c8.312,1.23,15.678-0.659,21.931-6.063c2.264-1.906,3.977-4.214,5.188-6.884c0.631-1.384,0.511-1.561-1.062-1.576
	c-3.064,0-6.152,0.112-9.185-0.483c-9.296-1.817-16.068-9.763-15.594-18.706c0.382-6.683,4.053-11.597,10.121-14.886
	c3.024-1.656,6.325-2.421,9.86-2.356c2.167,0.017,4.331,0,6.49,0c1.452,0,1.516-0.177,0.997-1.423
	c-2.364-5.582-5.875-10.487-10.62-14.484c-5.219-4.439-11.235-7.455-18.2-8.621c-11.432-1.914-21.657,0.644-30.621,7.688
	c-7.604,5.959-12.131,13.703-14.118,22.855c-0.205,1.238-0.499,2.493-0.704,3.764c-0.326,1.882-0.539,2.107-2.622,2.204
	c-2.155,0.096-4.226,0.112-6.37,0c-5.332-0.298-10.652-0.966-15.819-2.261c-11.713-2.822-22.08-8.114-31.236-15.657
	c-7.431-6.185-13.358-13.463-17.777-21.852c-3.663-6.835-6.1-14.049-7.173-21.657c-0.217-1.512-0.089-3.04-0.314-4.552
	c0-3.756,0-7.576,0-11.339c0.27-2.236,0.225-4.504,0.672-6.699c1.725-9.152,5.255-17.653,10.435-25.514
	c2.847-4.343,6.152-8.375,9.932-12.015c5.453-5.231,11.597-9.655,18.453-13.133c7.749-3.896,15.903-6.587,24.605-7.725
	c2.827-0.41,5.654-0.563,8.549-0.704c7.93-0.398,15.642,0.704,23.262,2.634c4.548,1.19,9.003,2.762,13.294,4.66
	c8.243,3.651,15.73,8.404,22.586,14.042c4.544,3.748,8.766,7.833,12.723,12.131c7.905,8.646,14.528,18.159,20.194,28.236
	c4.737,8.363,8.818,17.049,12.438,25.928c4.68,11.589,8.593,23.379,11.388,35.482c0.519,2.188,0.933,4.375,1.247,6.587
	c0.128,1.021,0.627,1.52,1.777,1.423c1.427-0.064,2.891,0,4.298,0c1.399,0,1.476-0.064,1.17-1.318
	c-0.985-5.155-2.252-10.198-3.651-15.28c-2.469-9.008-5.404-17.87-8.505-26.685c-3.39-9.65-7.161-19.18-10.953-28.646
	c-4.335-10.776-8.589-21.521-12.61-32.434c-3.458-9.305-6.61-18.71-9.188-28.289c-1.95-7.322-3.607-14.745-4.278-22.317
	c-0.664-7.162-0.153-14.247,1.234-21.344c0.985-4.95,2.231-9.763,4.528-14.375c2.224-4.5,5.159-8.573,8.355-12.441
	c3.281-3.953,6.856-7.616,10.527-11.275c5.224-5.159,10.479-10.274,15.734-15.409c5.384-5.296,10.781-10.607,15.936-16.076
	c6.381-6.784,12.481-13.825,18.248-21.087C250.053,45.499,250.354,45.25,250.655,44.988z"/>
</svg>
