<?xml version="1.0" encoding="utf-8"?>
<!-- Generator: Adobe Illustrator 16.0.0, SVG Export Plug-In . SVG Version: 6.00 Build 0)  -->
<!DOCTYPE svg PUBLIC "-//W3C//DTD SVG 1.1//EN" "http://www.w3.org/Graphics/SVG/1.1/DTD/svg11.dtd">
<svg version="1.1" id="圖層_3" xmlns="http://www.w3.org/2000/svg" xmlns:xlink="http://www.w3.org/1999/xlink" x="0px" y="0px"
	 width="500px" height="500px" viewBox="0 0 500 500" enable-background="new 0 0 500 500" xml:space="preserve">
<rect fill-rule="evenodd" clip-rule="evenodd" fill="#653087" width="500.538" height="500"/>
<path fill-rule="evenodd" clip-rule="evenodd" fill="#FFFFFF" d="M370.533,417.45c-5.767,1.722-7.083,3.396-7.075,8.935
	c-1.063-1.689-2.766-1.315-4.346-1.315c-33.836-0.017-67.676-0.017-101.523-0.017c-4.915,0-4.915,0-4.919-4.76
	c0-8.594,0.028-17.229-0.012-25.831c-0.013-1.332,0.41-2.754-0.577-3.964c7.226-7.457,14.305-14.995,19.84-23.849
	c11.218-17.968,16.319-37.593,16.429-58.647c0.028-6.522,0.073-13.013-0.036-19.527c-0.053-3.298-1.268-6.093-4.537-7.563
	c-2.782-1.211-5.381-0.723-7.725,1.112c-2.417,1.901-2.692,4.614-2.721,7.425c-0.073,8.009-0.024,15.994-0.31,23.979
	c-0.869,24.661-10.652,45.375-27.979,62.693c-3.878,3.915-7.708,7.822-11.685,11.632c-2.522,2.404-3.635,5.158-3.595,8.659
	c0.11,9.73,0.049,19.494,0.065,29.226c-1.511-0.853-3.167-0.568-4.768-0.568c-30.375-0.017-60.747-0.017-91.119-0.032
	c-0.057-9.228-0.203-18.504-0.122-27.748c0.033-4.013-1.255-7.132-4.138-9.983c-8.448-8.342-17.066-16.57-24.995-25.4
	c-11.981-13.37-18.386-29.502-21.607-47.04c-2.977-16.205-6.307-32.354-9.447-48.551c-1.479-7.57,2.823-14.507,9.869-16.066
	c7.287-1.601,13.939,2.502,15.954,10.088c1.901,7.125,3.46,14.33,5.337,21.445c1.413,5.353,4.675,8.05,9.666,8.447
	c4.297,0.342,8.237-1.868,10.052-5.751c1.076-2.29,1.194-4.776,1.194-7.302c-0.02-33.167-0.02-66.295-0.008-99.445
	c0-2.12-0.065-4.224,0.638-6.315c1.965-5.828,7.806-9.687,13.618-8.875c6.478,0.886,11.25,6.007,11.275,12.461
	c0.089,17.009,0.037,34.039,0.041,51.032c0,1.389-0.012,2.774,0.256,4.098c0.755,3.895,4.09,6.551,7.692,6.308
	c3.765-0.252,6.645-3.103,7.035-7.055c0.114-1.23,0.061-2.502,0.061-3.753c-0.004-22.764-0.048-45.537-0.02-68.293
	c0.012-8.07,4.89-13.594,12.111-13.967c7.307-0.354,13.175,4.785,13.439,12.107c0.22,6.25,0.069,12.489,0.069,18.76
	c-0.008,17.626-0.057,35.278-0.012,52.917c0.012,6.714,4.297,10.556,9.751,8.826c3.732-1.166,5.272-3.952,5.292-7.668
	c0.024-6.531,0.021-13.013,0.021-19.523c0-10.901-0.045-21.773,0-32.667c0.044-7.891,5.564-13.711,12.854-13.683
	c7.177,0.017,12.672,5.577,12.732,13.411c0.114,16.627-0.024,33.255-0.044,49.903c-0.012,7.006,2.717,10.787,7.688,10.722
	c4.89-0.037,7.404-3.615,7.416-10.519c0.008-9.378-0.028-18.748,0.008-28.134c0.032-8.156,5.081-13.789,12.46-14.004
	c7.525-0.203,13.078,5.361,13.212,13.667c0.175,10.397,0.028,20.783,0.069,31.164c0,1.625-0.082,3.314,0.333,4.846
	c0.89,3.334,3.188,5.284,6.722,5.479c3.439,0.211,6.494-1.909,7.403-5.105c0.28-0.963,0.508-1.978,0.496-2.961
	c-0.139-12.237,0.715-24.519-0.37-36.748c-1.705-19.081-20.628-30.368-38.433-23.146c-0.577,0.224-1.153,0.439-2.043,0.784
	c-0.971-5.248-2.823-10.097-6.25-14.17c-7.831-9.406-20.36-12.554-31.923-8.144c-0.906,0.374-1.965,1.95-3.062,0.187
	c1.194-5.856,0.248-11.798,0.524-17.684c0.073-1.365,0-2.737,0-4.082c5.613-1.495,6.896-2.961,7.566-8.716
	c0.894-7.66,7.075-13.229,14.414-12.985c7.64,0.272,13.431,6.287,13.533,14.191c0.081,5.751-0.109,11.506,0.053,17.253
	c0.179,6.369,4.695,10.012,9.967,8.144c3.862-1.365,5.045-4.464,5.028-8.294c-0.024-12.245-0.021-24.495-0.004-36.748
	c0-1.385,0.032-2.786,0.19-4.13c0.967-7.94,7.286-13.468,14.76-12.944c7.57,0.504,13.216,6.632,13.24,14.552
	c0.04,18.374,0.012,36.756,0.024,55.138c0,1.767-0.057,3.534,0.235,5.251c0.589,3.643,3.399,6.108,6.896,6.287
	c3.688,0.203,6.689-2.047,7.563-5.877c0.313-1.458,0.345-2.977,0.345-4.483c0.005-25.502-0.068-51.012,0-76.542
	c0.021-10.349,9.18-17.139,18.528-13.955c5.504,1.868,9.244,6.632,9.395,12.704c0.199,7.753,0.024,15.515,0.024,23.268
	c0,33.397,0,66.799,0,100.184c0,0.638-0.021,1.255,0.004,1.88c0.228,5.369,3.33,8.797,7.822,8.639
	c4.398-0.15,7.169-3.407,7.173-8.781c0.061-34.271,0.094-68.553,0.094-102.808c0-4.025,0.832-7.725,3.631-10.722
	c3.688-3.936,8.195-5.589,13.573-4.297c5.467,1.288,8.902,4.736,10.454,10.133c0.609,2.084,0.581,4.212,0.581,6.316
	c-0.005,35.404,0.028,70.815-0.041,106.199c-0.004,5.167,1.394,9.508,6.389,11.693c6.389,2.803,12.77-0.503,14.727-7.705
	c2.178-7.94,3.858-16.002,6.08-23.942c1.674-5.966,6.718-9.845,12.501-10.247c6.381-0.447,11.161,2.197,14.235,7.753
	c1.552,2.794,2.092,5.893,1.471,9.081c-3.952,20.084-7.709,40.221-11.989,60.239c-4.074,19.064-13.524,35.311-27.35,49.014
	c-6.921,6.881-13.744,13.866-20.759,20.641c-2.822,2.729-3.984,5.8-3.96,9.69c0.049,20.624,0,41.257,0.033,61.889
	c0.004,6.287,1.519,8.302,7.347,10.04C370.533,409.067,370.533,413.259,370.533,417.45z"/>
</svg>
