<?xml version="1.0" encoding="utf-8"?>
<!-- Generator: Adobe Illustrator 16.0.0, SVG Export Plug-In . SVG Version: 6.00 Build 0)  -->
<!DOCTYPE svg PUBLIC "-//W3C//DTD SVG 1.1//EN" "http://www.w3.org/Graphics/SVG/1.1/DTD/svg11.dtd">
<svg version="1.1" id="圖層_2" xmlns="http://www.w3.org/2000/svg" xmlns:xlink="http://www.w3.org/1999/xlink" x="0px" y="0px"
	 width="500px" height="500px" viewBox="0 0 500 500" enable-background="new 0 0 500 500" xml:space="preserve">
<rect fill-rule="evenodd" clip-rule="evenodd" fill="#DB1D22" width="500" height="501.076"/>
<path fill-rule="evenodd" clip-rule="evenodd" fill="#FFFFFF" d="M469.906,358.344c0,43.915-95.349,79.521-212.932,79.521
	c-117.615,0-212.988-35.606-212.988-79.521c0-43.946,95.373-79.537,212.988-79.537C374.558,278.807,469.906,314.397,469.906,358.344
	z"/>
<path fill-rule="evenodd" clip-rule="evenodd" fill="#FFFFFF" d="M382.752,243.883c0,38.664-73.578,70.019-164.318,70.019
	c-90.723,0-164.277-31.354-164.277-70.019c0-38.675,73.554-70.03,164.277-70.03C309.174,173.853,382.752,205.208,382.752,243.883z"
	/>
<path fill-rule="evenodd" clip-rule="evenodd" fill="#FFFFFF" d="M410.773,130.837c0,35.448-57.425,64.197-128.305,64.197
	s-128.313-28.75-128.313-64.197c0-35.472,57.434-64.217,128.313-64.217S410.773,95.365,410.773,130.837z"/>
</svg>
