<?xml version="1.0" encoding="utf-8"?>
<!-- Generator: Adobe Illustrator 16.0.0, SVG Export Plug-In . SVG Version: 6.00 Build 0)  -->
<!DOCTYPE svg PUBLIC "-//W3C//DTD SVG 1.1//EN" "http://www.w3.org/Graphics/SVG/1.1/DTD/svg11.dtd">
<svg version="1.1" id="圖層_3" xmlns="http://www.w3.org/2000/svg" xmlns:xlink="http://www.w3.org/1999/xlink" x="0px" y="0px"
	 width="500px" height="500px" viewBox="0 0 500 500" enable-background="new 0 0 500 500" xml:space="preserve">
<rect x="0.493" fill-rule="evenodd" clip-rule="evenodd" fill="#EDB033" width="499.507" height="500.004"/>
<path fill-rule="evenodd" clip-rule="evenodd" fill="#FFFFFF" d="M184.502,144.229c-1.277-0.243-1.616-1.39-2.19-2.186
	c-16.38-22.813-32.76-45.625-49.1-68.441c-3.742-5.236-3.758-5.301,1.543-8.655c16.412-10.368,33.956-18.291,52.502-23.996
	c1.979-0.59,2.675-0.238,3.2,1.753c7.265,28.603,14.586,57.185,21.988,85.771c0.509,1.923,0.348,2.792-1.705,3.438
	c-8.679,2.768-16.849,6.667-24.623,11.418C185.585,143.651,185.019,143.934,184.502,144.229z"/>
<path fill-rule="evenodd" clip-rule="evenodd" fill="#FFFFFF" d="M130.626,215.753c-9.754-2.077-19.225-4.097-28.711-6.154
	c-19.637-4.291-39.306-8.643-58.991-12.816c-2.303-0.489-2.619-1.224-2.053-3.341c5.14-19.701,12.833-38.32,23.144-55.9
	c1.18-2.024,1.883-2.307,3.928-0.961c24.469,16.17,48.954,32.263,73.504,48.295c2.053,1.333,2.311,2.368,1.115,4.465
	c-4.339,7.641-7.491,15.778-9.956,24.202C132.283,214.65,132.404,216.318,130.626,215.753z"/>
<path fill-rule="evenodd" clip-rule="evenodd" fill="#FFFFFF" d="M271.582,125.885c2.61-21.891,5.221-43.653,7.798-65.452
	c0.913-7.746,1.859-15.483,2.603-23.261c0.202-2.053,0.784-2.744,2.893-2.392c20.356,3.625,39.88,9.81,58.466,18.881
	c1.511,0.727,2.053,1.276,1.115,3.01c-14.053,26.227-28.033,52.474-42.005,78.773c-0.896,1.701-1.745,1.911-3.442,1.124
	c-8.153-3.81-16.655-6.566-25.487-8.356C272.059,127.938,271.081,127.501,271.582,125.885z"/>
<path fill-rule="evenodd" clip-rule="evenodd" fill="#FFFFFF" d="M251.744,32.364c4.864,0.133,9.704,0.339,14.545,0.352
	c2.077,0.02,2.675,0.642,2.425,2.771c-2.045,16.97-4.024,33.928-6.021,50.906c-1.455,12.368-2.998,24.72-4.389,37.096
	c-0.193,1.757-0.581,2.501-2.609,2.372c-9.188-0.642-18.36-0.133-27.403,1.584c-1.657,0.319-2.23-0.218-2.618-1.737
	c-7.37-28.78-14.764-57.561-22.198-86.304c-0.533-2.077,0.097-2.691,2.069-3.107C220.81,33.249,236.188,31.722,251.744,32.364z"/>
<path fill-rule="evenodd" clip-rule="evenodd" fill="#FFFFFF" d="M34.439,240.687c0.437-9.483,1.002-18.946,2.44-28.38
	c0.404-2.554,1.511-2.784,3.596-2.327c19.257,4.222,38.522,8.416,57.754,12.59c9.366,2.044,18.724,4.207,28.114,6.053
	c2.408,0.501,2.844,1.41,2.545,3.576c-1.301,8.934-1.317,17.879-0.243,26.833c0.218,1.899-0.751,1.972-2.141,2.206
	c-19.968,3.168-39.952,6.392-59.92,9.576c-9.357,1.527-18.731,2.909-28.089,4.525c-2.052,0.339-2.44-0.194-2.683-2.117
	C34.407,262.416,34.277,251.563,34.439,240.687z"/>
<path fill-rule="evenodd" clip-rule="evenodd" fill="#FFFFFF" d="M340.723,325.811c0.355-0.444,0.743-0.953,1.131-1.43
	c5.689-6.845,10.708-14.117,14.659-22.085c0.921-1.892,1.843-2.021,3.685-1.253c27.225,11.395,54.474,22.748,81.707,34.062
	c1.737,0.711,2.44,1.228,1.438,3.305c-8.816,18.368-19.977,35.177-33.366,50.522c-1.722,1.963-2.57,2.093-4.525,0.169
	c-20.857-20.315-41.812-40.542-62.732-60.801C341.983,327.589,340.997,327.039,340.723,325.811z"/>
<path fill-rule="evenodd" clip-rule="evenodd" fill="#FFFFFF" d="M337.353,163.764c-0.565-0.493-1.059-0.885-1.479-1.321
	c-6.384-6.501-13.317-12.348-21.019-17.212c-1.584-0.99-1.463-1.834-0.711-3.252c14.021-26.215,28.009-52.417,41.932-78.627
	c0.881-1.705,1.487-2.021,3.249-0.95c17.608,10.675,33.422,23.536,47.476,38.583c1.446,1.527,1.139,2.162-0.283,3.386
	c-22.4,19.241-44.761,38.57-67.137,57.855C338.751,162.746,338.072,163.227,337.353,163.764z"/>
<path fill-rule="evenodd" clip-rule="evenodd" fill="#FFFFFF" d="M110.853,411.097c-0.372-0.307-0.784-0.63-1.18-0.978
	c-15.717-13.495-29.269-28.881-40.663-46.166c-1.131-1.697-0.824-2.336,0.84-3.297c25.762-14.869,51.476-29.811,77.173-44.785
	c1.471-0.84,2.239-0.824,3.265,0.679c5.204,7.483,11.257,14.239,18.093,20.268c1.301,1.155,1.091,1.858,0.122,3.079
	c-18.586,23.208-37.132,46.473-55.702,69.729C112.299,410.225,111.968,411.113,110.853,411.097z"/>
<path fill-rule="evenodd" clip-rule="evenodd" fill="#FFFFFF" d="M73.26,123.424c0.38-0.525,0.728-1.059,1.091-1.576
	c11.936-16.639,26.005-31.269,42.053-43.997c1.592-1.249,2.335-1.301,3.588,0.437c17.188,24.134,34.498,48.195,51.799,72.264
	c0.921,1.313,1.188,2.121-0.274,3.325c-6.982,5.802-13.31,12.299-18.756,19.588c-1.026,1.39-1.786,1.628-3.305,0.634
	c-24.897-16.42-49.843-32.789-74.773-49.181C74.141,124.535,73.292,124.366,73.26,123.424z"/>
<path fill-rule="evenodd" clip-rule="evenodd" fill="#FFFFFF" d="M416.886,245.58c-14.667-0.392-29.342-0.849-43.977-1.156
	c-2.134-0.044-2.837-0.562-2.901-2.788c-0.331-8.667-1.535-17.22-3.847-25.58c-0.573-1.931-0.218-2.739,1.729-3.426
	c27.896-9.859,55.782-19.75,83.605-29.758c2.076-0.744,2.643-0.218,3.232,1.697c5.721,19.317,8.695,39.051,9.18,59.165
	c0.081,2.836-0.856,3.2-3.37,3.127C446.009,246.343,431.455,245.996,416.886,245.58z"/>
<path fill-rule="evenodd" clip-rule="evenodd" fill="#FFFFFF" d="M306.007,354.191c0.097-0.954,0.913-1.1,1.52-1.438
	c7.951-4.429,15.361-9.665,22.109-15.782c1.131-1.01,1.737-0.896,2.788,0.121c21.431,20.809,42.869,41.593,64.372,62.304
	c1.334,1.293,1.221,1.973-0.064,3.192c-14.771,13.907-31.119,25.552-49.06,34.982c-2.053,1.099-2.804,0.573-3.701-1.357
	c-12.323-26.708-24.735-53.334-37.1-80.001C306.564,355.549,306.298,354.862,306.007,354.191z"/>
<path fill-rule="evenodd" clip-rule="evenodd" fill="#FFFFFF" d="M129.932,274.433c1.115-0.17,1.382,0.671,1.64,1.688
	c2.19,8.816,5.309,17.302,9.536,25.366c1.164,2.23-0.46,2.48-1.648,3.168c-16.954,9.875-33.916,19.701-50.877,29.544
	c-8.493,4.921-16.995,9.786-25.431,14.796c-1.834,1.091-2.513,0.816-3.499-1.01c-9.503-17.875-16.453-36.688-20.72-56.47
	c-0.404-1.956-0.121-2.603,1.794-2.909c29.374-4.663,58.724-9.357,88.082-14.045C129.124,274.529,129.438,274.497,129.932,274.433z"
	/>
<path fill-rule="evenodd" clip-rule="evenodd" fill="#FFFFFF" d="M263.784,370.143c-1.236-3.063,1.074-3.41,3.887-3.806
	c8.057-1.115,15.92-3.176,23.491-6.149c1.681-0.663,2.489-0.501,3.297,1.309c12.445,26.958,24.93,53.908,37.504,80.777
	c0.913,1.947,0.388,2.448-1.301,3.151c-18.748,7.661-38.167,12.59-58.288,14.853c-1.31,0.146-2.594,0.606-2.731-1.721
	C267.776,429.312,265.805,400.059,263.784,370.143z"/>
<path fill-rule="evenodd" clip-rule="evenodd" fill="#FFFFFF" d="M416.425,259.046c14.764,0.404,29.544,0.841,44.324,1.188
	c1.931,0.04,2.764,0.363,2.577,2.626c-1.713,19.879-5.753,39.217-12.606,57.948c-0.889,2.425-1.713,2.699-4.016,1.722
	c-26.982-11.329-54.037-22.61-81.116-33.803c-1.883-0.8-2.554-1.446-1.786-3.628c2.796-7.888,4.646-15.992,5.414-24.308
	c0.242-2.295,1.034-3.128,3.516-3.006C387.285,258.311,401.847,258.643,416.425,259.046z"/>
<path fill-rule="evenodd" clip-rule="evenodd" fill="#FFFFFF" d="M238.701,461.11c-15.111-0.614-29.988-2.861-44.606-6.684
	c-2.117-0.549-2.319-1.261-1.689-3.265c8.97-28.057,17.851-56.187,26.715-84.268c0.59-1.907,1.22-2.635,3.507-2.085
	c7.895,1.956,15.976,3.015,24.105,2.885c2.836-0.057,3.475,0.881,3.628,3.483c0.849,14.311,1.859,28.622,2.813,42.909
	c0.978,14.845,1.891,29.697,2.998,44.51c0.178,2.319-0.437,2.99-2.594,2.917C248.608,461.36,243.654,461.231,238.701,461.11z"/>
<path fill-rule="evenodd" clip-rule="evenodd" fill="#FFFFFF" d="M362.202,200.342c-1.463,0.279-1.641-0.719-1.973-1.438
	c-3.531-8.166-7.838-15.919-13.147-23.035c-1.301-1.737-0.137-2.327,0.881-3.224c17.778-15.297,35.524-30.603,53.294-45.9
	c4.711-4.089,9.463-8.117,14.117-12.258c1.31-1.172,1.988-1.16,3.128,0.319c12.403,16.057,22.456,33.411,30.044,52.248
	c0.76,1.871,0.413,2.46-1.397,3.083c-27.92,9.899-55.815,19.839-83.727,29.75C362.929,200.072,362.444,200.27,362.202,200.342z"/>
<path fill-rule="evenodd" clip-rule="evenodd" fill="#FFFFFF" d="M206.854,361.173c-1.39,4.429-2.707,8.76-4.065,13.092
	c-7.652,24.072-15.313,48.17-22.901,72.283c-0.816,2.61-1.778,3.192-4.437,2.19c-18.36-6.934-35.564-15.952-51.548-27.378
	c-1.754-1.253-1.754-2.037-0.509-3.589c18.554-23.127,37.067-46.271,55.524-69.463c1.188-1.495,1.899-1.746,3.483-0.646
	c6.982,4.832,14.513,8.614,22.384,11.733C206.878,360.235,206.878,360.26,206.854,361.173z"/>
</svg>
