<?xml version="1.0" encoding="utf-8"?>
<!-- Generator: Adobe Illustrator 16.0.0, SVG Export Plug-In . SVG Version: 6.00 Build 0)  -->
<!DOCTYPE svg PUBLIC "-//W3C//DTD SVG 1.1//EN" "http://www.w3.org/Graphics/SVG/1.1/DTD/svg11.dtd">
<svg version="1.1" id="圖層_2" xmlns="http://www.w3.org/2000/svg" xmlns:xlink="http://www.w3.org/1999/xlink" x="0px" y="0px"
	 width="500px" height="500px" viewBox="0 0 500 500" enable-background="new 0 0 500 500" xml:space="preserve">
<rect fill-rule="evenodd" clip-rule="evenodd" fill="#E4E539" width="500" height="500"/>
<path fill-rule="evenodd" clip-rule="evenodd" fill="#FFFFFF" d="M325.839,77.465c4.714-4.666,9.436-9.34,14.142-14.03
	c0.539-0.519,0.998-1.11,1.488-1.677c0.395-0.716,1.078-1.074,1.794-1.388c1.199-0.688,2.414-1.379,3.629-2.059
	c1.85-0.644,3.765-1.054,5.703-1.396c1.689,0.088,3.395,0.197,5.101,0.298c2.196,0.607,4.328,1.404,6.307,2.542
	c0.209,0.293,0.515,0.466,0.853,0.579c1.602,0.567,2.478,2.007,3.66,3.057c0.459,0.402,0.877,0.849,1.304,1.295
	c0.402,0.422,0.813,0.833,1.239,1.227c1.487,1.496,2.984,2.98,4.473,4.485c0.49,0.511,0.989,1.005,1.504,1.488
	c1.312,1.335,2.606,2.614,3.926,3.921c0.482,0.519,0.981,1.022,1.505,1.513c1.488,1.496,2.976,2.98,4.473,4.469
	c0.394,0.422,0.804,0.84,1.223,1.235c1.48,1.504,2.984,2.98,4.473,4.469c0.41,0.422,0.813,0.84,1.239,1.247
	c1.488,1.484,2.984,2.969,4.473,4.457c0.482,0.519,0.989,1.021,1.504,1.512c1.287,1.319,2.614,2.615,3.926,3.922
	c0.482,0.519,0.981,1.014,1.505,1.504c1.472,1.496,2.984,2.98,4.473,4.469c0.394,0.43,0.796,0.841,1.23,1.235
	c1.384,1.408,2.8,2.795,4.191,4.199c0.49,0.511,0.989,1.014,1.504,1.504c1.48,1.496,2.977,2.98,4.465,4.469
	c0.41,0.43,0.82,0.841,1.255,1.235c1.376,1.416,2.792,2.795,4.191,4.191c0.482,0.519,0.981,1.029,1.505,1.512
	c1.472,1.496,2.968,2.98,4.465,4.469c0.401,0.422,0.804,0.833,1.23,1.235c1.046,1.066,2.132,2.116,3.17,3.189
	c0.346,0.358,0.82,0.652,0.804,1.251c0.322,0.467,0.652,0.925,0.981,1.38c1.095,1.915,1.891,3.95,2.51,6.069
	c0.218,1.766,0.362,3.548,0.338,5.338c-0.321,1.955-0.748,3.869-1.415,5.711c-1.038,2.06-2.277,3.95-3.806,5.688
	c-0.064,0.68-0.619,1.014-1.029,1.44c-1.473,1.497-2.993,2.965-4.457,4.469c-2.864,2.84-5.695,5.712-8.56,8.552
	c-0.402,0.394-0.772,0.861-1.287,1.11c-0.555,0.125-0.9-0.197-1.263-0.519c-0.281-0.27-0.547-0.539-0.82-0.805
	c-30.675-30.678-61.364-61.352-92.022-92.066C326.409,78.942,325.38,78.583,325.839,77.465z"/>
<path fill-rule="evenodd" clip-rule="evenodd" fill="#FFFFFF" d="M409.1,71.508c-1.52-1.557-3.008-3.149-4.593-4.638
	c-0.725-0.688-0.901-1.219-0.097-1.898c2.92-2.558,6.202-4.529,9.887-5.82c2.003-0.422,4.006-0.856,6.01-1.307
	c1.906,0,3.797-0.016,5.703-0.024c1.786,0.346,3.596,0.724,5.414,1.082c4.288,1.344,8.068,3.544,11.327,6.645
	c0.78,0.141,1.174,0.805,1.722,1.271c0.965,1.271,2.147,2.389,3.064,3.725c0.378,0.591,0.893,1.11,0.893,1.878h0.009
	c0.804,1.782,1.616,3.564,2.413,5.338c0.636,2.075,0.981,4.227,1.352,6.355c-0.017,1.569-0.017,3.133-0.017,4.694
	c-0.338,2.14-0.716,4.279-1.335,6.355c-0.684,1.597-1.384,3.19-2.075,4.783c-0.186,0.306-0.378,0.607-0.556,0.897
	c0.008,0.913-0.659,1.448-1.102,2.104c-0.604,0.905-1.376,1.673-2.06,2.514c-0.467,0.583-1.021,1.058-1.826,0.539
	c-1.279-0.977-2.293-2.249-3.403-3.403c-2.445-2.506-5.02-4.887-7.449-7.405c-0.266-0.205-0.498-0.447-0.699-0.724
	c-2.301-2.526-4.819-4.819-7.217-7.252c-3.024-3.081-6.065-6.134-9.13-9.179c-0.241-0.217-0.491-0.422-0.732-0.656
	c-1.649-1.701-3.387-3.33-4.996-5.064C409.438,72.047,409.068,71.895,409.1,71.508z"/>
<path fill-rule="evenodd" clip-rule="evenodd" fill="#FFFFFF" d="M73.407,436.762c-1.874-1.528-3.756-3.049-5.639-4.569
	c-0.402-0.596-0.893-1.078-1.464-1.465c-0.99-0.145-1.271-1.062-1.794-1.673c-1.07-1.239-2.236-2.43-2.759-4.047v0.024
	c-0.692-1.705-1.4-3.379-2.092-5.068c-0.627-2.075-0.989-4.215-1.343-6.339c0-1.576,0-3.138,0-4.714
	c0.338-2.132,0.716-4.271,1.327-6.355c1.416-3.829,3.395-7.305,6.235-10.265c0.515-0.531,0.909-0.74,1.48-0.161
	c1.987,1.167,3.274,3.105,5.004,4.554c0.201,0.241,0.418,0.482,0.651,0.691c1.794,1.754,3.548,3.508,5.293,5.31
	c0.169,0.201,0.314,0.418,0.482,0.619c1.899,1.617,3.54,3.476,5.302,5.237c0.161,0.121,0.297,0.258,0.442,0.386
	c1.738,1.609,3.331,3.347,4.947,5.068c0.137,0.145,0.282,0.273,0.426,0.418c3.773,3.443,7.249,7.225,10.917,10.78
	c0.258,0.281,0.507,0.587,0.789,0.837c1.625,1.753,3.62,3.201,4.883,5.277c0.555,0.579,0.08,0.868-0.306,1.238
	c-3.017,2.969-6.653,4.964-10.57,6.46c-2.019,0.395-4.014,0.78-6.034,1.166c-1.689,0-3.371-0.016-5.052-0.016
	c-2.027-0.37-4.046-0.708-6.018-1.319C76.737,438.314,75.225,437.188,73.407,436.762z"/>
<path fill-rule="evenodd" clip-rule="evenodd" fill="#FFFFFF" d="M130.146,432.225c-0.306-0.467-0.684-0.837-1.15-1.135
	c-1.81-1.198-3.097-2.937-4.674-4.36c-0.394-0.426-0.821-0.845-1.239-1.23c-1.392-1.416-2.792-2.8-4.183-4.199
	c-0.491-0.515-0.998-1.014-1.513-1.496c-1.48-1.513-2.968-2.993-4.465-4.481c-0.41-0.426-0.82-0.845-1.247-1.23
	c-1.472-1.513-2.969-2.977-4.465-4.465c-0.394-0.427-0.805-0.845-1.231-1.255c-1.48-1.488-2.977-2.969-4.473-4.457
	c-0.402-0.426-0.805-0.845-1.239-1.23c-1.472-1.496-2.977-2.977-4.457-4.473c-0.41-0.419-0.82-0.837-1.239-1.247
	c-1.48-1.488-2.984-2.969-4.473-4.457c-0.483-0.522-0.998-1.021-1.513-1.504c-1.392-1.416-2.783-2.8-4.183-4.199
	c-0.402-0.419-0.82-0.837-1.247-1.247c-1.472-1.488-2.977-2.969-4.465-4.457c-0.395-0.426-0.805-0.845-1.239-1.23
	c-1.376-1.416-2.792-2.8-4.175-4.199c-0.499-0.515-0.998-1.014-1.521-1.496c-1.48-1.513-2.984-2.993-4.473-4.481
	c-0.402-0.426-0.805-0.828-1.239-1.23c-0.925-0.949-1.842-1.898-2.808-2.815c-0.66-0.62-1.191-1.328-1.529-2.156l0,0
	c-1.424-2.124-2.413-4.457-3.113-6.902c-0.233-1.786-0.362-3.571-0.338-5.357c0.306-1.955,0.74-3.861,1.416-5.712
	c0.676-1.207,1.375-2.43,2.06-3.636c0.273-0.725,0.813-1.287,1.183-1.972c1.464-1.359,2.88-2.808,4.295-4.223
	c0.596-0.58,1.199-1.191,1.778-1.786c2.864-2.832,5.688-5.68,8.535-8.527c0.41-0.402,0.756-0.853,1.279-1.094
	c0.547-0.146,0.909,0.185,1.263,0.498c0.386,0.354,0.756,0.732,1.118,1.11c25.566,25.565,51.156,51.147,76.713,76.714
	c0.161,0.137,0.29,0.281,0.426,0.418c4.948,4.972,9.903,9.895,14.851,14.866c0.475,0.482,1.15,0.885,1.038,1.754
	c-1.11,1.577-2.655,2.735-3.942,4.151c-0.611,0.595-1.199,1.174-1.786,1.785c-2.808,2.784-5.591,5.607-8.399,8.383
	c-0.426,0.418-0.756,0.981-1.456,1.046c-1.721,1.513-3.628,2.751-5.671,3.797c-1.85,0.66-3.773,1.046-5.695,1.399
	c-1.706-0.096-3.403-0.209-5.125-0.289c-2.204-0.563-4.296-1.448-6.307-2.526c-0.45-0.346-0.909-0.676-1.375-1.014
	C132.615,435.41,131.36,433.833,130.146,432.225z"/>
<path fill-rule="evenodd" clip-rule="evenodd" fill="#FFFFFF" d="M262.865,77.474c1.625-1.577,3.307-3.117,4.875-4.747
	c1.561-1.593,3.193-3.097,5.004-4.388c1.287-1.468,2.977-1.943,4.843-2.047c0.313,0.044,0.611,0.024,0.869-0.241
	c1.882-0.262,3.78-0.342,5.695-0.326c0.949,0.189,1.898,0.37,2.855,0.555c1.03-0.185,1.891,0.342,2.8,0.648
	c2.156,1.001,4.135,2.292,5.816,3.982c0.241,0.233,0.467,0.487,0.7,0.708c1.882,1.898,3.772,3.781,5.663,5.651
	c1.682,1.709,3.402,3.395,5.084,5.092c0.233,0.225,0.459,0.466,0.692,0.691c1.665,1.673,3.338,3.339,5.003,5.004
	c0.233,0.233,0.467,0.467,0.7,0.692c1.665,1.673,3.339,3.338,5.004,5.02c0.233,0.217,0.458,0.466,0.691,0.684
	c1.665,1.665,3.347,3.331,5.012,5.012c0.233,0.241,0.459,0.467,0.7,0.7c1.665,1.673,3.347,3.323,5.004,5.012
	c0.226,0.225,0.458,0.458,0.691,0.684c1.666,1.681,3.347,3.338,5.012,5.012c0.233,0.233,0.467,0.458,0.7,0.692
	c1.665,1.673,3.339,3.338,5.004,5.012c0.226,0.241,0.458,0.458,0.691,0.692c1.666,1.681,3.347,3.347,5.021,5.012
	c0.225,0.233,0.458,0.467,0.676,0.7c1.673,1.665,3.362,3.33,5.027,4.996c0.233,0.249,0.45,0.466,0.692,0.7
	c1.665,1.681,3.338,3.331,5.003,5.012c0.233,0.233,0.459,0.467,0.7,0.7c1.665,1.673,3.339,3.33,5.012,5.003
	c0.226,0.241,0.45,0.458,0.684,0.692c1.875,1.878,3.757,3.749,5.64,5.631c1.682,1.709,3.387,3.395,5.084,5.092
	c0.226,0.233,0.467,0.466,0.692,0.692c1.866,1.878,3.748,3.752,5.631,5.631c1.682,1.702,3.395,3.387,5.084,5.084
	c0.226,0.233,0.459,0.458,0.692,0.684c1.657,1.681,3.338,3.347,5.003,5.02c0.233,0.225,0.459,0.458,0.7,0.692
	c1.665,1.665,3.339,3.33,5.004,5.003c0.241,0.242,0.459,0.475,0.691,0.692c1.666,1.682,3.355,3.343,5.012,5.016
	c0.233,0.225,0.467,0.466,0.7,0.691c1.665,1.673,3.347,3.331,5.012,5.004c0.226,0.241,0.451,0.483,0.684,0.692
	c1.674,1.689,3.355,3.347,5.021,5.02c0.225,0.225,0.458,0.466,0.691,0.691c1.665,1.673,3.339,3.331,5.012,5.02
	c0.226,0.225,0.459,0.467,0.7,0.692c1.665,1.673,3.347,3.347,5.012,5.004c0.241,0.249,0.482,0.491,0.716,0.708
	c1.722,1.802,3.009,3.878,3.975,6.13c0.418,0.998,0.804,1.979,0.659,3.081c0.362,1.987,0.338,3.982,0.29,5.993
	c-0.354,2.743-1.344,5.269-2.663,7.69c-0.112,1.215-1.158,1.842-1.794,2.719c-0.467,0.611-1.11,1.126-1.657,1.681
	c-0.418,0.411-0.829,0.813-1.223,1.239c-1.408,1.392-2.8,2.791-4.191,4.191c-0.435,0.386-0.837,0.805-1.239,1.239
	c-1.504,1.464-2.903,3.041-4.642,4.256c-1.086,0.7-2.115,1.488-3.362,1.898c-0.724,0.298-1.448,0.604-2.204,0.829
	c-1.126,0.241-2.253,0.547-3.419,0.604c-2.502,0.024-5.028,0.185-7.434-0.829c-0.41-0.137-0.82-0.298-1.23-0.458
	c-1.706-0.749-3.25-1.722-4.763-2.775c-1.263-0.965-2.284-2.188-3.427-3.266c-0.756-0.805-1.537-1.553-2.309-2.317
	c-0.845-0.869-1.714-1.722-2.574-2.59c-1.328-1.319-2.655-2.639-3.967-3.95c-0.853-0.869-1.729-1.729-2.59-2.582
	c-0.756-0.772-1.521-1.537-2.293-2.301c-1.029-1.046-2.075-2.083-3.137-3.113c-1.11-1.15-2.253-2.285-3.388-3.411
	c-0.764-0.78-1.536-1.537-2.301-2.309c-0.853-0.869-1.721-1.722-2.582-2.558c-1.021-1.062-2.075-2.1-3.138-3.129
	c-1.118-1.15-2.252-2.285-3.402-3.411c-0.837-0.877-1.697-1.729-2.574-2.582c-0.74-0.772-1.505-1.521-2.285-2.285
	c-0.836-0.869-1.705-1.722-2.565-2.575c-1.319-1.335-2.655-2.654-3.967-3.966c-0.853-0.877-1.721-1.722-2.574-2.582
	c-0.756-0.772-1.528-1.537-2.309-2.285c-1.029-1.054-2.075-2.1-3.138-3.138c-1.109-1.142-2.252-2.285-3.402-3.403
	c-0.837-0.869-1.697-1.722-2.574-2.582c-0.74-0.772-1.513-1.521-2.293-2.285c-0.828-0.873-1.697-1.725-2.582-2.586
	c-1.295-1.324-2.623-2.647-3.958-3.958c-0.837-0.877-1.697-1.718-2.566-2.566c-0.74-0.788-1.521-1.548-2.301-2.301
	c-0.845-0.881-1.697-1.729-2.558-2.582c-1.312-1.324-2.655-2.631-3.982-3.966c-0.845-0.869-1.705-1.709-2.566-2.566
	c-0.853-0.881-1.714-1.722-2.582-2.57c-0.934-0.978-1.883-1.927-2.856-2.86c-1.109-1.143-2.252-2.272-3.402-3.419
	c-0.837-0.861-1.697-1.709-2.574-2.558c-0.74-0.772-1.513-1.541-2.293-2.293c-1.029-1.058-2.075-2.096-3.129-3.137
	c-1.118-1.154-2.261-2.273-3.411-3.403c-0.748-0.785-1.521-1.537-2.301-2.301c-0.925-0.974-1.883-1.907-2.855-2.844
	c-1.11-1.159-2.253-2.285-3.403-3.415c-0.925-0.965-1.898-1.915-2.848-2.856c-0.837-0.869-1.706-1.726-2.566-2.566
	c-0.765-0.772-1.528-1.541-2.301-2.293c-1.215-1.255-2.453-2.474-3.692-3.692c-0.934-0.965-1.898-1.915-2.848-2.856
	c-0.837-0.869-1.714-1.726-2.574-2.578c-0.757-0.776-1.521-1.549-2.309-2.301c-1.07-1.154-2.301-2.148-3.259-3.403
	c-1.062-1.396-2.06-2.836-2.767-4.457c-0.161-0.394-0.322-0.816-0.507-1.203c-0.845-2.176-1.135-4.42-1.11-6.733
	c-0.04-1.513,0.298-2.973,0.676-4.405c0.281-1.058,0.644-2.075,1.094-3.081c0.378-0.784,0.82-1.564,1.304-2.309
	c1.287-1.915,2.952-3.52,4.561-5.177C261.819,78.049,262.214,77.574,262.865,77.474z"/>
<path fill-rule="evenodd" clip-rule="evenodd" fill="#FFFFFF" d="M212.836,430.841c-0.925-0.313-1.875-0.644-2.808-0.966
	c-2.091-1.094-3.974-2.421-5.704-4.006c-0.121-0.273-0.297-0.467-0.579-0.555c-1.295-0.507-1.987-1.698-2.96-2.583
	c-0.805-0.724-1.537-1.512-2.317-2.284c-0.313-0.322-0.627-0.644-0.957-0.949c-1.569-1.593-3.154-3.154-4.73-4.747
	c-0.233-0.217-0.451-0.45-0.692-0.684c-1.85-1.858-3.708-3.708-5.575-5.574c-0.145-0.138-0.273-0.258-0.411-0.402
	c-1.577-1.593-3.169-3.17-4.738-4.763c-0.402-0.402-0.813-0.82-1.247-1.223c-1.666-1.674-3.338-3.339-5.012-5.02
	c-0.145-0.138-0.273-0.274-0.411-0.419c-1.488-1.496-2.984-2.969-4.457-4.44c-0.499-0.531-1.005-1.029-1.528-1.521
	c-1.666-1.682-3.347-3.347-5.012-5.028c-0.145-0.128-0.282-0.273-0.411-0.418c-1.488-1.496-2.976-2.96-4.448-4.44
	c-0.314-0.33-0.636-0.651-0.974-0.966c-1.85-1.866-3.708-3.716-5.575-5.583c-0.145-0.128-0.282-0.281-0.411-0.418
	c-1.472-1.496-2.976-2.952-4.448-4.44c-0.314-0.322-0.636-0.651-0.958-0.949c-1.882-1.898-3.773-3.781-5.655-5.655
	c-1.585-1.617-3.194-3.21-4.803-4.803c-0.306-0.338-0.627-0.651-0.965-0.974c-1.657-1.673-3.347-3.33-5.012-5.012
	c-0.225-0.217-0.458-0.467-0.684-0.684c-1.577-1.593-3.161-3.162-4.73-4.738c-0.322-0.33-0.644-0.651-0.965-0.949
	c-1.875-1.898-3.773-3.781-5.664-5.655c-1.673-1.714-3.378-3.396-5.068-5.093c-0.233-0.241-0.451-0.458-0.7-0.684
	c-1.858-1.891-3.749-3.757-5.631-5.631c-1.673-1.714-3.387-3.396-5.076-5.093c-0.233-0.225-0.451-0.458-0.692-0.684
	c-1.866-1.874-3.765-3.757-5.655-5.655c-1.585-1.593-3.178-3.17-4.771-4.763c-0.145-0.137-0.29-0.289-0.418-0.418
	c-2.035-2.075-4.095-4.087-6.138-6.146c-0.145-0.137-0.281-0.281-0.41-0.418c-1.472-1.496-2.977-2.96-4.44-4.425
	c-0.145-0.145-0.29-0.281-0.435-0.426c-2.035-2.067-4.095-4.111-6.146-6.171c-0.153-0.128-0.282-0.273-0.41-0.434
	c-1.585-1.706-2.719-3.701-3.773-5.752c-0.483-0.99-0.644-2.052-0.579-3.146c-0.37-1.979-0.354-3.975-0.306-5.978
	c0.33-2.542,1.19-4.883,2.333-7.144c0.523-2.02,2.14-3.25,3.492-4.658c0.418-0.41,0.836-0.82,1.23-1.255
	c1.513-1.464,3.001-2.992,4.481-4.488c0.523-0.483,1.022-0.989,1.521-1.496c1.44-1.352,2.671-2.929,4.376-4.007
	c1.11-0.659,2.196-1.399,3.435-1.842c0.853-0.218,1.649-0.556,2.494-0.789c1.697-0.346,3.379-0.764,5.141-0.667
	c2.003,0.129,3.99,0.386,5.889,1.126c0.145,0.024,0.265,0.064,0.418,0.129c1.923,0.724,3.701,1.786,5.293,3.081
	c1.078,0.788,1.915,1.81,2.888,2.711c0.925,0.965,1.89,1.915,2.864,2.864c0.925,0.981,1.882,1.931,2.848,2.863
	c1.118,1.158,2.269,2.285,3.411,3.395c0.74,0.789,1.528,1.545,2.301,2.317c0.925,0.957,1.898,1.898,2.848,2.832
	c0.933,0.981,1.898,1.914,2.864,2.863c1.11,1.158,2.252,2.285,3.395,3.396c0.748,0.788,1.528,1.544,2.301,2.3
	c0.925,0.974,1.882,1.915,2.848,2.864c0.925,0.966,1.898,1.915,2.848,2.848c1.126,1.143,2.269,2.269,3.411,3.395
	c0.74,0.789,1.528,1.553,2.301,2.317c0.933,0.949,1.898,1.898,2.848,2.832c0.925,0.981,1.898,1.914,2.848,2.863
	c0.925,0.966,1.899,1.915,2.848,2.848c0.949,0.966,1.898,1.915,2.864,2.849c0.925,0.973,1.875,1.922,2.848,2.848
	c0.925,0.981,1.898,1.914,2.848,2.863c0.949,0.966,1.915,1.915,2.872,2.864c1.875,1.898,3.773,3.781,5.664,5.663
	c0.941,0.981,1.906,1.931,2.872,2.864c0.934,0.981,1.899,1.914,2.856,2.863c0.941,0.966,1.898,1.915,2.848,2.849
	c0.941,0.981,1.883,1.914,2.856,2.863c0.925,0.949,1.898,1.898,2.848,2.848c0.934,0.966,1.899,1.915,2.848,2.848
	c0.933,0.966,1.898,1.915,2.864,2.849c0.933,0.973,1.882,1.914,2.848,2.848c0.933,0.981,1.898,1.914,2.856,2.872
	c1.118,1.134,2.261,2.26,3.403,3.402c0.748,0.772,1.528,1.536,2.301,2.301c0.933,0.966,1.898,1.898,2.848,2.848
	c0.949,0.957,1.898,1.898,2.864,2.848c1.11,1.159,2.253,2.269,3.403,3.396c0.748,0.788,1.512,1.552,2.292,2.316
	c0.933,0.966,1.898,1.898,2.848,2.832c0.925,0.973,1.898,1.914,2.856,2.863c0.941,0.966,1.891,1.915,2.848,2.848
	c0.941,0.974,1.898,1.915,2.856,2.864c0.933,0.949,1.875,1.898,2.848,2.848c0.933,0.966,1.898,1.907,2.856,2.848
	c0.917,0.966,1.891,1.898,2.848,2.848c0.941,0.966,1.891,1.915,2.856,2.849c0.949,0.981,1.898,1.931,2.864,2.863
	c0.974,1.078,2.108,1.979,2.969,3.153c1.021,1.15,1.794,2.494,2.51,3.861c0.282,0.58,0.499,1.191,0.772,1.771
	c0.86,2.172,1.142,4.424,1.11,6.741c0.041,1.521-0.297,2.977-0.667,4.408c-0.346,1.014-0.692,2.06-1.126,3.041
	c-0.41,0.788-0.893,1.521-1.271,2.325c-1.287,1.858-2.815,3.475-4.521,4.947c-0.37,0.467-0.708,0.965-1.207,1.303
	c-1.488,1.465-2.92,3.009-4.505,4.393c-0.442,0.37-0.86,0.765-1.207,1.231c-1.255,1.512-2.815,2.679-4.44,3.74
	c-1.504,0.901-2.993,1.81-4.843,1.77c-0.338-0.048-0.644-0.016-0.869,0.241c-1.882,0.266-3.789,0.347-5.695,0.322
	C214.759,431.211,213.81,431.018,212.836,430.841z"/>
<path fill-rule="evenodd" clip-rule="evenodd" fill="#FFFFFF" d="M201.976,327.757c-0.185,0.049-0.354,0.081-0.547,0.121
	c-1.247-0.788-2.252-1.834-3.081-3.033c-0.78-0.788-1.561-1.576-2.341-2.356c-1.167-0.765-2.132-1.73-2.888-2.904
	c-0.933-0.934-1.875-1.883-2.815-2.808c-1.344-0.894-2.414-2.06-3.363-3.354c-0.78-0.789-1.569-1.577-2.341-2.35
	c-1.167-0.756-2.132-1.729-2.888-2.896c-0.949-0.934-1.875-1.883-2.824-2.808c-1.239-0.894-2.381-1.858-3.21-3.178
	c-0.732-0.941-1.593-1.754-2.485-2.526c-1.022-0.475-1.617-1.424-2.446-2.14c-0.547-0.467-0.362-1.046,0.056-1.513
	c0.58-0.691,1.255-1.287,1.891-1.931c0.981-0.949,1.939-1.931,2.896-2.912c0.974-0.933,1.923-1.898,2.864-2.848
	c1.07-1.021,2.1-2.075,3.138-3.137c0.877-0.837,1.738-1.706,2.582-2.575c0.965-0.933,1.907-1.898,2.848-2.848
	c0.965-0.933,1.898-1.898,2.839-2.848c1.062-1.029,2.1-2.075,3.138-3.121c0.78-0.756,1.537-1.536,2.301-2.309
	c1.054-1.038,2.083-2.084,3.129-3.13c0.861-0.845,1.713-1.705,2.574-2.582c1.142-1.11,2.276-2.261,3.403-3.387
	c0.78-0.772,1.537-1.536,2.301-2.309c1.046-1.021,2.083-2.076,3.129-3.13c0.965-0.949,1.898-1.898,2.84-2.863
	c1.062-1.03,2.1-2.06,3.137-3.105c0.789-0.772,1.537-1.537,2.292-2.309c1.054-1.038,2.092-2.083,3.138-3.129
	c0.965-0.95,1.898-1.899,2.848-2.864c1.054-1.03,2.092-2.059,3.129-3.121c0.78-0.756,1.537-1.521,2.292-2.293
	c1.054-1.038,2.092-2.075,3.122-3.129c0.877-0.845,1.729-1.706,2.59-2.575c1.142-1.118,2.269-2.269,3.403-3.411
	c0.772-0.756,1.553-1.521,2.301-2.293c1.046-1.021,2.083-2.075,3.129-3.129c0.965-0.933,1.915-1.882,2.84-2.864
	c1.07-1.03,2.107-2.059,3.137-3.121c0.877-0.837,1.737-1.706,2.582-2.574c0.966-0.933,1.915-1.898,2.848-2.864
	c0.974-0.934,1.915-1.883,2.849-2.832c1.054-1.046,2.091-2.075,3.129-3.137c0.877-0.853,1.729-1.706,2.582-2.574
	c0.966-0.933,1.898-1.898,2.848-2.848c0.869-0.844,1.722-1.705,2.575-2.574c1.142-1.118,2.276-2.269,3.402-3.403
	c0.772-0.748,1.536-1.521,2.301-2.309c1.054-1.03,2.084-2.067,3.129-3.105c0.869-0.861,1.722-1.721,2.575-2.598
	c1.142-1.11,2.276-2.261,3.402-3.403c0.78-0.756,1.553-1.521,2.309-2.293c1.046-1.021,2.076-2.083,3.121-3.133
	c0.869-0.841,1.73-1.717,2.575-2.578c1.166-1.146,2.324-2.301,3.475-3.491c0.161-0.181,0.33-0.322,0.499-0.503
	c2.043-2.023,3.765-1.549,4.811,1.307c0.885,0.881,1.762,1.738,2.639,2.615c1.384,0.772,2.574,1.737,3.242,3.234
	c0.965,0.981,1.914,1.963,2.896,2.936c1.224,0.322,1.915,1.19,2.333,2.341c0.99,0.949,1.972,1.931,2.937,2.896
	c1.344,0.579,2.204,1.625,2.864,2.864c1.094,1.11,2.188,2.204,3.266,3.298c1.126,0.434,1.987,1.142,2.341,2.333
	c0.99,0.965,1.963,1.947,2.937,2.928c1.11,0.378,1.778,1.327,2.574,2.107c0.547,0.547,0.467,1.174-0.032,1.746
	s-1.046,1.07-1.576,1.601c-1.087,1.046-2.148,2.124-3.21,3.202c-0.966,0.949-1.907,1.915-2.872,2.872
	c-1.062,1.03-2.084,2.067-3.121,3.113c-0.789,0.756-1.545,1.528-2.31,2.317c-1.054,1.029-2.083,2.075-3.113,3.121
	c-0.965,0.933-1.914,1.898-2.863,2.856c-1.062,1.03-2.092,2.083-3.121,3.129c-0.877,0.845-1.729,1.713-2.574,2.574
	c-0.966,0.933-1.915,1.882-2.848,2.848c-0.966,0.933-1.915,1.898-2.856,2.856c-1.069,1.03-2.1,2.067-3.138,3.129
	c-0.78,0.748-1.528,1.512-2.301,2.285c-1.045,1.029-2.075,2.075-3.113,3.137c-0.965,0.933-1.914,1.898-2.863,2.864
	c-1.054,1.022-2.084,2.067-3.121,3.122c-0.789,0.748-1.537,1.528-2.301,2.301c-1.063,1.029-2.1,2.075-3.122,3.122
	c-0.981,0.933-1.914,1.898-2.855,2.855c-1.062,1.029-2.1,2.083-3.138,3.129c-0.78,0.748-1.528,1.529-2.301,2.285
	c-1.045,1.046-2.083,2.075-3.113,3.138c-0.965,0.933-1.914,1.898-2.855,2.863c-1.07,1.021-2.1,2.067-3.129,3.121
	c-0.877,0.845-1.738,1.689-2.574,2.574c-0.966,0.934-1.915,1.899-2.856,2.849c-0.974,0.949-1.906,1.898-2.855,2.855
	c-1.063,1.029-2.1,2.075-3.122,3.129c-0.877,0.854-1.729,1.714-2.574,2.574c-0.965,0.934-1.915,1.899-2.848,2.856
	c-0.965,0.941-1.915,1.891-2.864,2.84c-1.046,1.029-2.092,2.092-3.138,3.137c-0.772,0.748-1.521,1.513-2.285,2.301
	c-1.062,1.03-2.091,2.076-3.121,3.105c-0.981,0.949-1.915,1.898-2.856,2.88c-1.062,1.021-2.092,2.067-3.129,3.121
	c-0.788,0.749-1.544,1.513-2.301,2.301c-1.062,1.014-2.091,2.076-3.129,3.122c-0.973,0.933-1.906,1.898-2.848,2.848
	c-1.07,1.037-2.1,2.092-3.137,3.137c-0.78,0.749-1.537,1.513-2.301,2.301c-1.054,1.03-2.092,2.076-3.113,3.122
	c-0.965,0.933-1.915,1.898-2.856,2.848c-1.07,1.029-2.092,2.083-3.129,3.121C203.44,326.542,203.005,327.532,201.976,327.757z"/>
</svg>
