<?xml version="1.0" encoding="utf-8"?>
<!-- Generator: Adobe Illustrator 16.0.0, SVG Export Plug-In . SVG Version: 6.00 Build 0)  -->
<!DOCTYPE svg PUBLIC "-//W3C//DTD SVG 1.1//EN" "http://www.w3.org/Graphics/SVG/1.1/DTD/svg11.dtd">
<svg version="1.1" id="圖層_3" xmlns="http://www.w3.org/2000/svg" xmlns:xlink="http://www.w3.org/1999/xlink" x="0px" y="0px"
	 width="500px" height="500px" viewBox="0 0 500 500" enable-background="new 0 0 500 500" xml:space="preserve">
<rect x="-0.68" y="-3" fill-rule="evenodd" clip-rule="evenodd" fill="#EDB033" width="500.68" height="508.576"/>
<rect x="140.81" y="138.717" fill="#FFFFFF" width="33.334" height="291.489"/>
<polygon fill="#FFFFFF" points="275.688,216.795 252.124,240.371 134.584,122.811 158.147,99.255 "/>
<polygon fill="#FFFFFF" points="39.246,219.263 62.829,242.855 180.349,125.303 156.793,101.719 "/>
<polygon fill="#FFFFFF" points="273.716,323.137 250.152,346.696 132.608,229.136 156.176,205.568 "/>
<polygon fill="#FFFFFF" points="37.27,325.593 60.853,349.176 178.393,231.608 154.81,208.057 "/>
<rect x="329.283" y="136.18" fill="#FFFFFF" width="33.338" height="291.481"/>
<polygon fill="#FFFFFF" points="464.173,213.188 440.618,236.751 323.058,119.212 346.634,95.636 "/>
<polygon fill="#FFFFFF" points="227.719,215.645 251.282,239.216 368.835,121.688 345.279,98.121 "/>
<polygon fill="#FFFFFF" points="462.209,319.478 438.626,343.077 321.094,225.537 344.67,201.95 "/>
<polygon fill="#FFFFFF" points="225.755,321.982 249.307,345.541 366.858,227.993 343.295,204.438 "/>
</svg>
