<?xml version="1.0" encoding="utf-8"?>
<!-- Generator: Adobe Illustrator 16.0.0, SVG Export Plug-In . SVG Version: 6.00 Build 0)  -->
<!DOCTYPE svg PUBLIC "-//W3C//DTD SVG 1.1//EN" "http://www.w3.org/Graphics/SVG/1.1/DTD/svg11.dtd">
<svg version="1.1" id="圖層_2" xmlns="http://www.w3.org/2000/svg" xmlns:xlink="http://www.w3.org/1999/xlink" x="0px" y="0px"
	 width="500px" height="500px" viewBox="0 0 500 500" enable-background="new 0 0 500 500" xml:space="preserve">
<rect y="-0.003" fill-rule="evenodd" clip-rule="evenodd" fill="#E4E539" width="500" height="500.007"/>
<path fill-rule="evenodd" clip-rule="evenodd" fill="#FFFFFF" d="M347.629,434.828c-62.77,0-125.514,0-188.268,0
	c-6.198-1.493-9.005-4.542-9.731-10.959c-2.37-21.25-4.3-42.563-6.46-63.813c-2.061-20.329-4.102-40.658-6.114-60.979
	c-2.005-20.083-4.018-40.181-6.023-60.264c-1.993-20.074-4.01-40.181-6.023-60.263c-2.021-20.321-4.062-40.65-6.115-60.979
	c-1.088-10.744-2.104-21.504-3.212-32.256c-0.071-0.715-0.19-1.414-0.226-2.128c-0.469-7.425,2.588-11.673,9.672-13.484
	c85.563,0,171.142,0,256.713,0c7.242,1.85,10.363,6.321,9.604,13.833c-4.24,41.356-8.33,82.721-12.459,124.077
	c-3.471,34.519-6.865,68.999-10.323,103.509c-3.736,37.45-7.413,74.931-11.288,112.38
	C356.681,430.104,353.945,433.287,347.629,434.828z"/>
<path fill-rule="evenodd" clip-rule="evenodd" fill="#E4E539" d="M253.537,412.006c-25.785,0-51.569-0.048-77.361,0.079
	c-3.148,0.016-3.827-0.89-4.129-3.923c-2.371-24.935-4.987-49.845-7.497-74.771c-2.259-22.449-4.419-44.897-6.67-67.339
	c-2.271-22.552-4.613-45.112-6.893-67.672c-1.211-12.07-2.398-24.108-3.637-36.155c-0.21-1.882,0.056-2.93,2.243-3.565
	c15.469-4.558,31.184-7.433,47.359-6.829c19.586,0.73,37.803,5.987,53.335,18.304c14.77,11.697,31.001,19.654,49.81,21.988
	c17.978,2.224,35.516-0.207,52.839-4.892c4.312-1.175,4.248-1.199,3.808,3.271c-2.379,23.378-4.693,46.772-7.056,70.166
	c-2.518,24.919-5.091,49.837-7.588,74.771c-2.251,22.553-4.431,45.12-6.662,67.688c-0.111,1.175-0.302,2.366-0.449,3.542
	c-0.679,5.336-0.679,5.336-6.226,5.336C303.695,412.006,278.614,412.006,253.537,412.006z"/>
</svg>
