<?xml version="1.0" encoding="utf-8"?>
<!-- Generator: Adobe Illustrator 16.0.0, SVG Export Plug-In . SVG Version: 6.00 Build 0)  -->
<!DOCTYPE svg PUBLIC "-//W3C//DTD SVG 1.1//EN" "http://www.w3.org/Graphics/SVG/1.1/DTD/svg11.dtd">
<svg version="1.1" id="圖層_3" xmlns="http://www.w3.org/2000/svg" xmlns:xlink="http://www.w3.org/1999/xlink" x="0px" y="0px"
	 width="500px" height="500px" viewBox="0 0 500 500" enable-background="new 0 0 500 500" xml:space="preserve">
<rect fill-rule="evenodd" clip-rule="evenodd" fill="#EDB033" width="500" height="500"/>
<path fill="#FFFFFF" d="M395.06,47.358c0.775,0.751,1.457,1.535,2.11,2.36l42.034,40.568c6.536,8.55,5.822,21.04-2.136,29.287
	c-7.97,8.251-20.406,9.399-29.185,3.164c-0.845-0.612-1.694-1.307-2.466-2.058l-41.997-40.552
	c-8.746-8.436-8.771-22.599-0.021-31.663C372.138,39.413,386.317,38.91,395.06,47.358z"/>
<path fill="#FFFFFF" d="M209.69,70.725c0.784,0.751,1.474,1.543,2.123,2.364l42.025,40.572c6.537,8.542,5.818,21.035-2.14,29.278
	c-7.965,8.264-20.41,9.403-29.176,3.168c-0.849-0.616-1.686-1.302-2.47-2.058l-42.005-40.548
	c-8.742-8.435-8.758-22.599-0.004-31.663C186.773,62.787,200.949,62.289,209.69,70.725z"/>
<path fill="#FFFFFF" d="M384.697,242.183c0.779,0.751,1.465,1.535,2.118,2.368l42.03,40.568c6.545,8.55,5.826,21.035-2.132,29.282
	c-7.974,8.248-20.418,9.391-29.188,3.169c-0.85-0.621-1.69-1.307-2.475-2.058l-41.992-40.552
	c-8.742-8.428-8.767-22.604-0.013-31.667C361.779,234.246,375.964,233.739,384.697,242.183z"/>
<path fill="#FFFFFF" d="M92.057,380.292c0.776,0.743,1.474,1.543,2.119,2.376l42.03,40.552c6.537,8.558,5.822,21.044-2.14,29.283
	c-7.966,8.255-20.402,9.407-29.181,3.168c-0.841-0.612-1.69-1.307-2.462-2.05l-42.005-40.543
	c-8.746-8.452-8.762-22.604-0.012-31.684C69.14,372.363,83.312,371.84,92.057,380.292z"/>
<path fill="#FFFFFF" d="M99.664,187.129c0.776,0.751,1.466,1.535,2.115,2.368l42.025,40.568c6.541,8.542,5.826,21.043-2.131,29.283
	c-7.966,8.264-20.406,9.398-29.185,3.168c-0.845-0.62-1.682-1.298-2.475-2.058l-41.993-40.552
	c-8.746-8.427-8.766-22.591-0.017-31.667C76.738,179.191,90.922,178.702,99.664,187.129z"/>
<path fill="#FFFFFF" d="M274.666,358.587c0.775,0.743,1.466,1.544,2.115,2.368l42.037,40.576c6.533,8.533,5.814,21.035-2.144,29.267
	c-7.97,8.256-20.406,9.398-29.176,3.185c-0.85-0.62-1.694-1.323-2.475-2.066l-42.001-40.543c-8.737-8.443-8.766-22.604-0.012-31.684
	C251.74,350.642,265.925,350.144,274.666,358.587z"/>
</svg>
