<?xml version="1.0" encoding="utf-8"?>
<!-- Generator: Adobe Illustrator 16.0.0, SVG Export Plug-In . SVG Version: 6.00 Build 0)  -->
<!DOCTYPE svg PUBLIC "-//W3C//DTD SVG 1.1//EN" "http://www.w3.org/Graphics/SVG/1.1/DTD/svg11.dtd">
<svg version="1.1" id="圖層_2" xmlns="http://www.w3.org/2000/svg" xmlns:xlink="http://www.w3.org/1999/xlink" x="0px" y="0px"
	 width="500px" height="500px" viewBox="0 0 500 500" enable-background="new 0 0 500 500" xml:space="preserve">
<rect fill-rule="evenodd" clip-rule="evenodd" fill="#DB1D22" width="500" height="504.097"/>
<path fill-rule="evenodd" clip-rule="evenodd" fill="#FFFFFF" d="M355.153,430.936c-7.66-9.252-14.202-19.049-18.499-30.644
	c-12.709-33.914-12.519-67.462-0.936-101.661c18.223-53.825,25.037-107.919-0.565-161.744
	c-15.032-31.766-33.349-61.856-53.528-90.636c-2.53-3.547-4.589-8.499-7.209-12.522c-2.51-3.739-5.594-6.631-10.09-6.721
	c-0.183,0-0.464,0-0.646,0.09c-1.591,0.285-3.174,0.939-4.959,2.148c-1.209,0.745-3.084,2.246-3.549,1.875
	c-0.28-0.191-0.654-0.382-0.936-0.565c-0.271,0.089-0.646,0.285-1.017,0.565c-0.464,0.37-2.339-1.131-3.552-1.875
	c-1.782-1.208-3.365-1.863-4.959-2.148c-0.281-0.09-0.464-0.09-0.655-0.09c-4.483,0.09-7.572,2.982-10.09,6.721
	c-2.612,4.023-4.679,8.975-7.197,12.522c-20.183,28.78-38.499,58.87-53.54,90.636c-25.595,53.825-18.78,107.919-0.553,161.744
	c11.583,34.199,11.766,67.747-0.936,101.661c-4.304,11.595-10.838,21.392-18.511,30.644c-5.13,6.27-4.947,11.037,2.624,14.765
	c18.031,8.885,36.168,17.754,54.281,26.623c9.72,4.687,12.148,0.749,10.566-8.576c-2.709-16.273,2.522-30.188,12.238-43.08
	c8.78-11.595,15.785-24.305,21.302-37.755c5.424,13.45,12.43,26.16,21.217,37.755c9.72,12.893,14.943,26.807,12.23,43.08
	c-1.583,9.325,0.858,13.263,10.565,8.576c18.125-8.869,36.258-17.738,54.293-26.623
	C360.101,441.973,360.292,437.205,355.153,430.936z M253.5,378.9c0.273-0.943,0.465-1.871,0.736-2.718
	c0.191,0.936,0.473,1.961,0.745,3.003C254.428,379.186,253.965,379.079,253.5,378.9z M254.236,306.287
	c-10.183-31.758-9.992-63.906,0-96.145C264.144,242.381,264.326,274.529,254.236,306.287z M254.143,175.105
	c2.059,3.36,0.839,9.805,0.094,15.973C253.398,184.91,252.178,178.466,254.143,175.105z M304.893,205.562
	c-0.374,4.858,0.09,10.285-5.053,13.833c-5.798-6.257-6.453-13.548-7.751-20.651c-2.53-13.735-4.495-27.559-8.601-41.009
	c-2.245-7.388-5.138-15.428-13.738-17.201c-8.035-1.685-11.583,4.955-15.514,10.285c-4.011-5.33-7.563-11.969-15.606-10.285
	c-8.588,1.773-11.481,9.813-13.731,17.201c-4.101,13.45-6.078,27.274-8.597,41.009c-1.302,7.104-1.957,14.394-7.754,20.651
	c-5.138-3.547-4.674-8.975-5.138-13.833c-1.583-22.14,2.62-42.881,12.608-62.971c11.875-23.744,25.517-46.535,37.662-72.239
	l0.557-0.928l0.473,0.928c12.148,25.704,25.785,48.495,37.653,72.239C302.362,162.681,306.564,183.421,304.893,205.562z"/>
</svg>
